<?xml version="1.0" standalone="no"?>
<!DOCTYPE svg PUBLIC "-//W3C//DTD SVG 20010904//EN"
 "http://www.w3.org/TR/2001/REC-SVG-20010904/DTD/svg10.dtd">
<svg version="1.0" xmlns="http://www.w3.org/2000/svg"
 width="700.000000pt" height="700.000000pt" viewBox="0 0 700.000000 700.000000"
 preserveAspectRatio="xMidYMid meet">
<metadata>
Created by potrace 1.11, written by Peter Selinger 2001-2013
</metadata>
<g transform="translate(0.000000,700.000000) scale(0.100000,-0.100000)"
fill="#000000" stroke="none">
<path d="M1711 6224 c-44 -19 -66 -52 -66 -98 0 -35 23 -79 163 -311 l162
-270 0 -175 -1 -175 -31 -25 c-419 -336 -700 -748 -853 -1252 -14 -48 -28 -95
-30 -105 -21 -102 -45 -227 -49 -263 -3 -25 -8 -72 -12 -105 -13 -116 -7 -433
11 -536 13 -76 35 -197 39 -214 123 -531 405 -1001 799 -1333 43 -36 76 -71
73 -78 -3 -7 -65 -93 -138 -190 -125 -167 -133 -180 -132 -221 1 -55 34 -92
90 -102 30 -5 3359 -7 3434 -2 18 1 60 40 120 111 25 30 63 75 85 100 22 25
63 72 90 105 28 32 82 95 120 140 78 90 162 188 185 215 8 10 35 42 60 71 25
29 51 61 59 71 18 26 18 81 1 113 -27 50 -52 55 -270 55 -110 0 -200 2 -200 5
0 3 29 47 63 98 179 260 323 604 372 886 3 19 8 37 10 41 2 4 9 47 15 96 6 49
13 108 16 131 9 72 11 351 2 427 -43 376 -125 655 -279 944 -257 485 -717 909
-1199 1107 -36 14 -78 32 -95 40 -84 37 -371 115 -481 130 -21 3 -52 7 -69 10
-83 13 -205 19 -342 19 l-152 0 0 227 c1 256 -6 286 -64 310 -43 18 -1465 20
-1506 3z m1353 -2414 c1 -2371 -2 -2226 50 -2261 18 -12 217 -15 1230 -19
l1210 -5 -119 -140 c-66 -77 -122 -142 -125 -145 -3 -3 -54 -61 -112 -130
l-107 -125 -1553 1 c-854 1 -1557 2 -1562 3 -6 0 2 13 15 29 14 15 63 79 110
141 l84 115 0 2170 0 2171 -112 186 c-62 103 -115 193 -118 200 -4 12 81 14
551 14 l557 0 1 -2205z m636 1645 c36 -4 70 -9 75 -10 6 -1 28 -5 50 -9 228
-41 430 -109 631 -211 101 -52 260 -147 307 -185 306 -245 479 -438 633 -710
99 -176 211 -464 239 -618 3 -15 7 -38 10 -52 11 -58 21 -126 32 -225 12 -120
6 -420 -10 -500 -3 -11 -8 -45 -12 -75 -23 -178 -126 -493 -209 -640 -10 -19
-31 -57 -45 -85 -42 -80 -118 -193 -198 -292 l-74 -93 -230 0 -230 0 114 113
c62 61 127 130 143 151 16 22 38 51 50 65 139 174 303 530 338 736 3 17 8 41
11 55 23 119 30 199 29 375 0 94 -5 199 -12 235 -7 36 -15 81 -18 100 -40 260
-190 590 -373 825 -117 150 -329 342 -482 436 -30 19 -64 39 -75 46 -148 92
-468 204 -649 228 -27 3 -66 9 -85 13 -19 4 -112 7 -207 7 l-171 0 -1 162 c0
159 0 162 22 165 38 7 329 1 397 -7z m-1760 -1050 c-146 -194 -251 -392 -315
-595 -28 -87 -61 -225 -70 -290 -3 -25 -9 -58 -11 -75 -10 -53 -12 -328 -3
-400 16 -133 20 -157 40 -242 65 -273 182 -522 345 -735 l44 -56 0 -231 c0
-128 -4 -231 -9 -231 -17 0 -229 229 -302 326 -202 269 -361 622 -413 919 -3
17 -8 41 -11 55 -32 158 -39 535 -11 675 2 11 7 42 10 68 11 82 72 307 111
412 113 303 281 564 518 803 l102 104 3 -233 2 -233 -30 -41z"/>
</g>
</svg>
