<svg xmlns="http://www.w3.org/2000/svg" xmlns:xlink="http://www.w3.org/1999/xlink" viewBox="0 0 4096 723.64"><defs><style>.cls-1,.cls-10,.cls-12,.cls-14,.cls-16,.cls-43,.cls-5,.cls-7{fill:none;}.cls-2{fill:url(#linear-gradient);}.cls-3{fill:url(#linear-gradient-2);}.cls-4{fill:#c9f5f2;}.cls-5{stroke:#c9f5f2;}.cls-10,.cls-11,.cls-12,.cls-14,.cls-16,.cls-43,.cls-5,.cls-7{stroke-miterlimit:10;}.cls-6{fill:#00aea0;}.cls-7{stroke:#00aea0;}.cls-8{fill:#fff;}.cls-9{fill:#00506b;}.cls-10{stroke:#00506b;}.cls-10,.cls-16{stroke-width:2px;}.cls-11,.cls-13{fill:#ff927c;}.cls-11,.cls-14{stroke:#ff927c;}.cls-12{stroke:#ef5c8a;stroke-width:0.75px;}.cls-15{fill:#002c51;}.cls-16{stroke:#002c51;}.cls-17{clip-path:url(#clip-path);}.cls-18,.cls-21{fill:#53007a;}.cls-19,.cls-26{fill:#6f0084;}.cls-20{fill:#007585;}.cls-21,.cls-22,.cls-23,.cls-24,.cls-26,.cls-27,.cls-29,.cls-30,.cls-32,.cls-33,.cls-36,.cls-37,.cls-39{opacity:0.25;}.cls-21,.cls-22,.cls-23,.cls-24,.cls-26,.cls-27,.cls-28,.cls-29,.cls-30,.cls-31,.cls-32,.cls-33,.cls-34,.cls-35,.cls-36,.cls-37,.cls-38,.cls-39,.cls-40{isolation:isolate;}.cls-22{fill:url(#linear-gradient-3);}.cls-23{fill:url(#linear-gradient-4);}.cls-24{fill:url(#linear-gradient-5);}.cls-25{fill:#00d6c6;}.cls-27{fill:#a8009c;}.cls-28{opacity:0.2;fill:url(#linear-gradient-6);}.cls-29{fill:url(#linear-gradient-7);}.cls-30{fill:url(#linear-gradient-8);}.cls-31,.cls-34,.cls-35,.cls-38,.cls-40{opacity:0.5;}.cls-31{fill:url(#linear-gradient-9);}.cls-32{fill:url(#linear-gradient-10);}.cls-33{fill:url(#linear-gradient-11);}.cls-34{fill:url(#linear-gradient-12);}.cls-35{fill:url(#linear-gradient-13);}.cls-36{fill:url(#linear-gradient-14);}.cls-37{fill:url(#linear-gradient-15);}.cls-38{fill:url(#linear-gradient-16);}.cls-39{fill:url(#linear-gradient-17);}.cls-40{fill:url(#linear-gradient-18);}.cls-41{fill:url(#linear-gradient-19);}.cls-42{fill:url(#linear-gradient-20);}.cls-43{stroke:#00d6c6;}</style><linearGradient id="linear-gradient" y1="379.52" x2="4096" y2="379.52" gradientTransform="matrix(1, 0, 0, -1, 0, 757.78)" gradientUnits="userSpaceOnUse"><stop offset="0" stop-color="#0a253e"/><stop offset="0.36" stop-color="#163847"/><stop offset="1" stop-color="#32645d"/></linearGradient><linearGradient id="linear-gradient-2" y1="379.52" x2="4096" y2="379.52" gradientTransform="matrix(1, 0, 0, -1, 0, 757.78)" gradientUnits="userSpaceOnUse"><stop offset="0" stop-color="#fff" stop-opacity="0"/><stop offset="0.44" stop-color="#fbfefe" stop-opacity="0.01"/><stop offset="0.6" stop-color="#eafcfa" stop-opacity="0.04"/><stop offset="0.72" stop-color="#cef7f4" stop-opacity="0.1"/><stop offset="0.81" stop-color="#a6f1eb" stop-opacity="0.17"/><stop offset="0.89" stop-color="#72e8df" stop-opacity="0.28"/><stop offset="0.96" stop-color="#32ded1" stop-opacity="0.4"/><stop offset="1" stop-color="#00d6c6" stop-opacity="0.5"/></linearGradient><clipPath id="clip-path"><path class="cls-1" d="M2696.67,32.89V236.65c-50.47,25.58-96.52,52.41-138.3,77.33-38.87,23.18-74,44.72-105.65,62.07-34.54,19-66.12,34.37-95.39,46.95-129.55,55.73-214,56.17-309.85,63.93v-454Z"/></clipPath><linearGradient id="linear-gradient-3" x1="2157.59" y1="377.78" x2="2290.94" y2="377.78" gradientTransform="matrix(1, 0, 0, -1, 0, 757.78)" gradientUnits="userSpaceOnUse"><stop offset="0" stop-color="#6f0084"/><stop offset="1" stop-color="#00aea0"/></linearGradient><linearGradient id="linear-gradient-4" x1="2260.86" y1="661.65" x2="2429.72" y2="661.65" xlink:href="#linear-gradient-3"/><linearGradient id="linear-gradient-5" x1="2362.21" y1="502.51" x2="2423.77" y2="502.51" xlink:href="#linear-gradient-3"/><linearGradient id="linear-gradient-6" x1="2338.29" y1="387.72" x2="2432.64" y2="387.72" xlink:href="#linear-gradient-3"/><linearGradient id="linear-gradient-7" x1="2321.54" y1="363.28" x2="2400.6" y2="363.28" xlink:href="#linear-gradient-3"/><linearGradient id="linear-gradient-8" x1="2500.66" y1="459.93" x2="2546.45" y2="459.93" gradientTransform="matrix(1, 0, 0, -1, 0, 757.78)" gradientUnits="userSpaceOnUse"><stop offset="0" stop-color="#00aea0"/><stop offset="1" stop-color="#b800aa"/></linearGradient><linearGradient id="linear-gradient-9" x1="2142.12" y1="495.82" x2="2300.42" y2="495.82" gradientTransform="matrix(1, 0, 0, -1, 0, 757.78)" gradientUnits="userSpaceOnUse"><stop offset="0" stop-color="#b800aa"/><stop offset="1" stop-color="#00aea0"/></linearGradient><linearGradient id="linear-gradient-10" x1="2392.79" y1="551.29" x2="2430.02" y2="551.29" xlink:href="#linear-gradient-9"/><linearGradient id="linear-gradient-11" x1="2468.89" y1="558.66" x2="2473.81" y2="558.66" xlink:href="#linear-gradient-9"/><linearGradient id="linear-gradient-12" x1="2549.54" y1="624.82" x2="2638.29" y2="624.82" xlink:href="#linear-gradient-8"/><linearGradient id="linear-gradient-13" x1="2223.13" y1="588.41" x2="2335.94" y2="588.41" xlink:href="#linear-gradient-9"/><linearGradient id="linear-gradient-14" x1="2414.67" y1="693.98" x2="2433.66" y2="693.98" xlink:href="#linear-gradient-8"/><linearGradient id="linear-gradient-15" x1="2327.79" y1="494.16" x2="2405.08" y2="494.16" xlink:href="#linear-gradient-9"/><linearGradient id="linear-gradient-16" x1="2514.67" y1="563.23" x2="2535.63" y2="563.23" gradientTransform="matrix(1, 0.05, 0.05, -1, -22.26, 570.72)" xlink:href="#linear-gradient-8"/><linearGradient id="linear-gradient-17" x1="2515.3" y1="593.03" x2="2627.74" y2="593.03" xlink:href="#linear-gradient-3"/><linearGradient id="linear-gradient-18" x1="2131.79" y1="335.28" x2="2282.2" y2="335.28" gradientTransform="matrix(1, 0.06, 0.06, -1, -18.38, 544.48)" xlink:href="#linear-gradient-9"/><linearGradient id="linear-gradient-19" x1="2449.93" y1="396.21" x2="2469.26" y2="376.9" gradientTransform="matrix(1, 0, 0, -1, 0, 757.78)" gradientUnits="userSpaceOnUse"><stop offset="0" stop-color="#010758"/><stop offset="0.6" stop-color="#010758" stop-opacity="0.2"/><stop offset="1" stop-color="#010758" stop-opacity="0"/></linearGradient><linearGradient id="linear-gradient-20" x1="2565.68" y1="211.17" x2="2336.41" y2="543.38" gradientTransform="matrix(1, 0, 0, -1, 0, 757.78)" gradientUnits="userSpaceOnUse"><stop offset="0" stop-color="#00d6c6" stop-opacity="0.5"/><stop offset="1" stop-color="#fff" stop-opacity="0"/></linearGradient></defs><title>Asset 3</title><g id="Layer_2" data-name="Layer 2"><g id="Layer_1-2" data-name="Layer 1"><path id="h-wave" class="cls-2" d="M0,32.89V723.47s365.72,11.77,800.48-160.7c263.68-104.61,593.41,42.08,800.73,27.26,181-12.95,178.54-61.69,347.77-91.17s266.94,7.16,503.74-122.81c172.6-94.74,451.68-314.28,856.62-245.79S4096,141.89,4096,32.89Z"/><path class="cls-3" d="M0,32.89V723.47s365.72,11.77,800.48-160.7c263.68-104.61,593.41,42.08,800.73,27.26,181-12.95,178.54-61.69,347.77-91.17s266.94,7.16,503.74-122.81c172.6-94.74,451.68-314.28,856.62-245.79S4096,141.89,4096,32.89Z"/><path class="cls-4" d="M2520.33,359.09c1.06-.84,3.08-1.73,3.83-1a7.31,7.31,0,0,1,1.63,3.73l-3.82,1.95Z"/><path class="cls-4" d="M2521.69,364.43l-2-5.51.28-.23c1-.77,3.37-2,4.48-1a7.73,7.73,0,0,1,1.79,4.1v.31Zm-.77-5.16,1.33,3.75,3-1.53a7.24,7.24,0,0,0-1.44-3.07c-.37-.35-1.81.08-2.89.85Z"/><path class="cls-4" d="M2524.5,360.43c1.25-.72,2.64,3.43-1.09,5.59l-2.15-3.72Z"/><path class="cls-5" d="M2524.5,360.43c1.25-.72,2.64,3.43-1.09,5.59l-2.15-3.72Z"/><circle class="cls-4" cx="2514.57" cy="364.32" r="8.48"/><circle class="cls-5" cx="2514.6" cy="364.39" r="8.48" transform="translate(307.41 1623.08) rotate(-37.94)"/><path class="cls-4" d="M2523,363.07c1.39,4,2.74,9.76-1.91,12.45-5,2.91-9-1.34-11.74-4.54Z"/><path class="cls-5" d="M2523,363.07c1.39,4,2.74,9.76-1.91,12.45-5,2.91-9-1.34-11.74-4.54Z"/><circle class="cls-6" cx="2514.21" cy="363.96" r="5.37"/><circle class="cls-7" cx="2514.18" cy="363.96" r="5.37" transform="translate(2098.96 2870.18) rotate(-88.83)"/><path class="cls-8" d="M2508.22,402l-60.81,35.22a3.79,3.79,0,0,1-5.18-1.38h0L2419,395.61l67.38-39,23.28,40.19A3.8,3.8,0,0,1,2508.22,402Z"/><path class="cls-8" d="M2492.71,410.09c-3.5,2-21.2,12.19-40.54,23.41l-3.65,2.12-.91.53c-.3.18-.63.37-.86.48a3.07,3.07,0,0,1-1.64.24,2.91,2.91,0,0,1-1.51-.66,4.52,4.52,0,0,1-1.08-1.48c-.71-1.22-1.42-2.43-2.12-3.65L2432.21,417l-12.39-21.13.14-.09c3.52-2.07,7.07-4.26,10.54-6.23,12-6.8,23.88-13.54,35.68-20.63,1.79-1,4.82-2.72,8.45-4.82l11.49-6.69,11.22,19.11,9.84,16.86,1.93,3.24a3.65,3.65,0,0,1,.55,3.26,6,6,0,0,1-1.35,2.08c-.08.13,0,.18.17.11a2.45,2.45,0,0,0,1-.71,4.14,4.14,0,0,0,1.1-2.51,4,4,0,0,0-.17-1.53,5.21,5.21,0,0,0-.3-.74l-.34-.62c-1.46-2.62-3-5.34-4.58-8l-18.64-32.29-56,32.32-12.75,7.37,14.35,24.77c1.75,3,3.94,6.75,6.23,10.69l1.74,3,.87,1.5.44.75a5.22,5.22,0,0,0,.57.82,4.49,4.49,0,0,0,5.54,1.07c.54-.3,1-.56,1.45-.84l13.52-7.87,22.77-13.15c6.6-3.86,13.17-7.79,19.59-11.66a19.44,19.44,0,0,0,3.29-2.41c.11-.13-2.68,1.29-6,3.05s-7.27,3.79-9.45,5Z"/><rect class="cls-4" x="2435.36" y="405.65" width="6.07" height="6.07" rx="0.88" transform="translate(123.55 1277.18) rotate(-30.08)"/><rect class="cls-5" x="2435.35" y="405.64" width="6.07" height="6.07" rx="0.88" transform="translate(123.56 1277.18) rotate(-30.08)"/><rect class="cls-4" x="2444.43" y="400.39" width="6.07" height="6.07" rx="0.88" transform="translate(127.41 1281.02) rotate(-30.08)"/><path class="cls-4" d="M2449.14,405.16c-.18.07-.67.33-1.34.71l-1.08.61h-.06l-.09-.14c-.53-.88-1.07-1.78-1.56-2.58l-.63-1a.24.24,0,0,1,0-.23v-.08l.22-.17a2.47,2.47,0,0,1,.46-.31c.56-.26,1.13-.52,1.67-.81a8,8,0,0,0,.8-.47l.39-.26.18-.14.07-.07a.54.54,0,0,1,.27.14l.65,1,1,1.57.46.74.19.28a.52.52,0,0,1,.12.31,1,1,0,0,1,0,.43c-.06.16,0,.58.31.54a.85.85,0,0,0,.6-.44,1.37,1.37,0,0,0-.07-1.33l-1.1-2-.55-1-.28-.49-.14-.25a1.85,1.85,0,0,0-.3-.39,1.59,1.59,0,0,0-1.9-.22l-1,.55-2,1.11-.84.47a1.68,1.68,0,0,0-.54,2.31l.24.41.48.81,1.24,2,.31.5a1.59,1.59,0,0,0,.6.52,1.78,1.78,0,0,0,.51.16h.2a1.53,1.53,0,0,0,.52-.08,1.22,1.22,0,0,0,.24-.1l.15-.08.52-.28a9.74,9.74,0,0,0,1-.59,12.6,12.6,0,0,0,1.64-1.27.61.61,0,0,0,.1-.55,4.11,4.11,0,0,0-1.71.16Z"/><rect class="cls-4" x="2453.49" y="395.14" width="6.07" height="6.07" rx="0.88" transform="translate(131.26 1284.86) rotate(-30.08)"/><rect class="cls-5" x="2453.5" y="395.15" width="6.07" height="6.07" rx="0.88" transform="translate(131.26 1284.86) rotate(-30.08)"/><rect class="cls-4" x="2462.56" y="389.88" width="6.07" height="6.07" rx="0.88" transform="translate(135.12 1288.7) rotate(-30.08)"/><rect class="cls-5" x="2462.56" y="389.87" width="6.07" height="6.07" rx="0.88" transform="translate(135.12 1288.69) rotate(-30.08)"/><rect class="cls-4" x="2481.73" y="385.4" width="21.55" height="6.09" rx="0.88" transform="translate(137.91 1293.63) rotate(-29.89)"/><rect class="cls-5" x="2481.73" y="385.4" width="21.55" height="6.09" rx="0.88" transform="translate(137.91 1293.63) rotate(-29.89)"/><rect class="cls-4" x="2436.2" y="391.74" width="6.07" height="6.07" rx="0.88" transform="translate(130.64 1275.73) rotate(-30.08)"/><rect class="cls-5" x="2436.2" y="391.73" width="6.07" height="6.07" rx="0.88" transform="translate(130.64 1275.73) rotate(-30.08)"/><rect class="cls-4" x="2445.27" y="386.47" width="6.07" height="6.07" rx="0.88" transform="translate(134.5 1279.57) rotate(-30.08)"/><rect class="cls-5" x="2445.27" y="386.48" width="6.07" height="6.07" rx="0.88" transform="translate(134.5 1279.57) rotate(-30.08)"/><rect class="cls-4" x="2427.18" y="396.97" width="6.07" height="6.07" rx="0.88" transform="translate(126.8 1271.91) rotate(-30.08)"/><rect class="cls-5" x="2427.17" y="396.96" width="6.07" height="6.07" rx="0.88" transform="translate(126.8 1271.91) rotate(-30.08)"/><rect class="cls-4" x="2454.33" y="381.22" width="6.07" height="6.07" rx="0.88" transform="translate(138.35 1283.4) rotate(-30.08)"/><rect class="cls-5" x="2454.33" y="381.22" width="6.07" height="6.07" rx="0.88" transform="translate(138.35 1283.4) rotate(-30.08)"/><rect class="cls-4" x="2463.4" y="375.97" width="6.07" height="6.07" rx="0.88" transform="translate(142.2 1287.24) rotate(-30.08)"/><rect class="cls-5" x="2463.4" y="375.96" width="6.07" height="6.07" rx="0.88" transform="translate(142.21 1287.24) rotate(-30.08)"/><rect class="cls-4" x="2455.84" y="401.11" width="28" height="9.33" rx="0.88" transform="translate(129.25 1292.55) rotate(-30.08)"/><rect class="cls-5" x="2455.84" y="401.11" width="28" height="9.33" rx="0.88" transform="translate(129.25 1292.55) rotate(-30.08)"/><rect class="cls-4" x="2472.48" y="370.73" width="6.07" height="6.07" rx="0.88" transform="translate(146.05 1291.08) rotate(-30.08)"/><rect class="cls-5" x="2472.48" y="370.74" width="6.07" height="6.07" rx="0.88" transform="translate(146.05 1291.09) rotate(-30.08)"/><rect class="cls-4" x="2481.54" y="365.48" width="6.07" height="6.07" rx="0.88" transform="translate(149.91 1294.92) rotate(-30.08)"/><rect class="cls-5" x="2481.54" y="365.47" width="6.07" height="6.07" rx="0.88" transform="translate(149.91 1294.92) rotate(-30.08)"/><path class="cls-9" d="M2536.6,426.75c2.69,4.64,2,21.42,1,26.38s-3.92,11.29-24.17,23-27.14,11-32,9.52-18.65-9.72-21.34-14.36Z"/><path class="cls-10" d="M2536.6,426.75c2.69,4.64,2,21.42,1,26.38s-3.92,11.29-24.17,23-27.14,11-32,9.52-18.65-9.72-21.34-14.36Z"/><path class="cls-11" d="M2525,384.89c-4.36.09-25.51-.86-27.45-1.63s-6.73-4.31-7.72-4.9-3.64-1.81-4.1-2.1a5.79,5.79,0,0,0-2.07-.23c-.64,0-1.8-.11-2,.64a3.59,3.59,0,0,0-.9-.27c-.63,0-1.31.72-1.64,1.26s-.5,1.22-.1,1.61a4.43,4.43,0,0,0-1.49-.19,3.37,3.37,0,0,0-2.2,2,2.3,2.3,0,0,0,.22,1.46,11.28,11.28,0,0,0-2-.33,1,1,0,0,0-.82,1.16,1,1,0,0,0,.27.52c.61.59,4.82,2.36,5.29,2.58l1.05.47c-1.1.31-2,.8-2,1.54-.09,1.12,1.44.76,2.82,1.31s3.6,1.63,5.79,2.32a24.35,24.35,0,0,0,7,.87c1.13-.11,2.48-1.24,4.86-1.05s24.5,4.19,26.06,5.29l14.69,1.5a15.33,15.33,0,0,0-.79-6.58c-2.19-4.49-6-7.34-12.77-7.25Zm-45.46-1.42c-.35-.06-1.8-.42-3.2-.74.43-.29,1-.8,1.3-.78a35.43,35.43,0,0,1,4.28,2c-.71-.06-1.92-.37-2.41-.44Zm.31-4c.28-.13.48-.4.7-.36.4.09,2.41,1.23,3.3,1.64-.85-.17-2.59-.78-4-1.21Z"/><path d="M2525.17,398.16c-.18-.17-.51.2-.35.58,0,.07.16.24.1.21-.21-.09-.5-.2-.22.17-.35-.22-.06.36-.06.38v.2a.86.86,0,0,0,.2.18c.12.09.8.45,1.07.59l.4.22.1.06a.62.62,0,0,0,.33,0s.1,0,.1-.07-.07-.29,0-.26.14.07.12,0a2.82,2.82,0,0,0-.27-.48l-.52-.7c-.17-.16-.88-1-1-1.08Z"/><path class="cls-11" d="M2453.23,397.39c-.4,1.07-1.25,5.35-1.58,6.28a52.05,52.05,0,0,0-1.92,5.42,8.39,8.39,0,0,1-2.19,3.56c-1.14,1.2-2.59,5.85-3.13,9.29-.45,2.82-1.14,16.76-1.57,21.12,2.47.46,9.95,3.62,14.24,4.94l-7.65,16c-7-1.86-17.45-8-19.92-13s.18-16.55,1.06-19.05,8.53-18.62,8.7-20.26-1.19-5.82-1.68-7.73a35.36,35.36,0,0,1-1-6,11.06,11.06,0,0,1,1.51-3.18,4.23,4.23,0,0,1,.61-.51,4.67,4.67,0,0,1,2.11-1.92c.43-.12.8.5.86,1.21a11,11,0,0,1,.11-1.51c.15-.48,1.69-1.25,2.13-1.39a1.88,1.88,0,0,1,1.6.8c.38.51-.24,1-.59,1.1s-.27.71-.17,1.5.45,4.52,1,3.81,1.28-3.76,1.69-5.16c.35-1.21,1.17-4.18,2-4.05s.9,2.32.51,4a48,48,0,0,0-.7,7.57,19.68,19.68,0,0,1,1.81-2.8c1.1-1.31,2.56-1.06,2.16,0Z"/><path class="cls-12" d="M2441.64,397.1c0-.56.12-4.13.16-5.44m-2.93,7.92c0-.8-.44-4.57-.16-5.37m42.91-17.9a41.52,41.52,0,0,1,4.77,2.71"/><path class="cls-6" d="M2540,419.28c-1.33,5-4,11.34-6.06,16.39s-10.45,18.94-28.38,29.32c-7,4-15.56,8.77-23,10.27s-17.44-2.58-20.06-3-27.09-14.63-29.4-15.53-2.19-3.75,0-8c2.33-4.47,7.93-7.79,10.43-7.85s19.24,4,21.78,3,5.5-2.39,11.4-4.28c10.67-3.41,26.93-16.54,26.93-16.54,2.12-1.24,6.62-8,8-8.44,1.18-.48,4.07-5.19,4.92-5.85a2.4,2.4,0,0,1,.58-.52c.83-.78,3.61-4.77,4.13-6.83a26.78,26.78,0,0,1,1-3.11c.79-2.69,3.27-4.61,6.48-6,6.27-2.74,9.68-1.15,10.85.29s1.7,21.67.4,26.68Z"/><path class="cls-7" d="M2540,419.28c-1.33,5-4,11.34-6.06,16.39s-10.45,18.94-28.38,29.32c-7,4-15.56,8.77-23,10.27s-17.44-2.58-20.06-3-27.09-14.63-29.4-15.53-2.19-3.75,0-8c2.33-4.47,7.93-7.79,10.43-7.85s19.24,4,21.78,3,5.5-2.39,11.4-4.28c10.67-3.41,26.93-16.54,26.93-16.54,2.12-1.24,6.62-8,8-8.44,1.18-.48,4.07-5.19,4.92-5.85a2.4,2.4,0,0,1,.58-.52c.83-.78,3.61-4.77,4.13-6.83a26.78,26.78,0,0,1,1-3.11c.79-2.69,3.27-4.61,6.48-6,6.27-2.74,9.68-1.15,10.85.29s1.7,21.67.4,26.68Z"/><path class="cls-12" d="M2481.89,384c-.68-.16-1.93-.69-2.39-.76s-3.31-.89-4.71-1.21m9-1.24c-.86-.24-4.38-1.52-5.83-1.95m43.21,16.82a19.78,19.78,0,0,1,5.2-6.06"/><path class="cls-13" d="M2501.54,415.06c-3.11-2.23-12.2-7.35-22.12-2.14-10.81,5.7-7.58,22.59-6.7,26Z"/><path class="cls-14" d="M2501.54,415.06c-3.11-2.23-12.2-7.35-22.12-2.14-10.81,5.7-7.58,22.59-6.7,26Z"/><path class="cls-13" d="M2482.54,411.89c-1-.46-3.72-2-5.36-1s-1.68,4.11-1.76,5.16Z"/><path class="cls-14" d="M2482.54,411.89c-1-.46-3.72-2-5.36-1s-1.68,4.11-1.76,5.16Z"/><path class="cls-15" d="M2474,433.73s-1.29-10.28,5.67-15.6,17-6.81,25.27-1.19,6.41,15.93,8.54,20.74,6.44,12.89,1.95,21.33-19.55,9.13-21.37,2.85-4.64-5.56-8.69-6.86-10.28-6.65-11.82-11.32c-2.23-6.79.45-9.95.45-9.95Z"/><path class="cls-16" d="M2474,433.73s-1.29-10.28,5.67-15.6,17-6.81,25.27-1.19,6.41,15.93,8.54,20.74,6.44,12.89,1.95,21.33-19.55,9.13-21.37,2.85-4.64-5.56-8.69-6.86-10.28-6.65-11.82-11.32c-2.23-6.79.45-9.95.45-9.95Z"/><g class="cls-17"><path class="cls-18" d="M2487.49,70.46v-2l-6.81,0,0-6.31h-1l0,6.32-6.81,0v2l6.81,0,0,6.31h1l0-6.31Z"/><path class="cls-19" d="M2251.18,194.31l-4.5-4.43,4.42-4.5-1.43-1.4-4.42,4.5-4.5-4.42-1.4,1.43,4.5,4.42-4.42,4.5,1.42,1.4,4.43-4.5,4.5,4.42Z"/><path class="cls-20" d="M2326.49,282.58l-3.66-3.24,3.25-3.66-1.5-1.33-3.25,3.66-3.65-3.25-1.33,1.5,3.66,3.24-3.25,3.66,1.49,1.33,3.25-3.66,3.66,3.25Z"/><path class="cls-21" d="M2072.14,439.89c-7.81-9.35-2.11-18.67,3.85-26.67,4.19-5.62,2.29-9.56-.13-14.55-1.81-3.74-3.85-8-3.25-13.42.68-6.22,3.45-8.41,6.13-10.53,2.85-2.26,5.8-4.59,7.16-12.2,1.24-6.92-.41-10.64-2-14.23-1.9-4.26-3.71-8.29-.75-16.53l1.88.68c-2.68,7.47-1.12,11,.7,15,1.65,3.68,3.51,7.86,2.16,15.39-1.5,8.36-4.9,11.05-7.89,13.42-2.57,2-4.79,3.79-5.38,9.18-.54,4.88,1.29,8.67,3.06,12.33,2.5,5.15,4.85,10-.07,16.62-5.75,7.72-10.8,16-3.91,24.19Z"/><path class="cls-22" d="M2243.86,463.39c0-93.33,47.08-164.73,47.08-164.73l-33.7-17.09c-20.83-1.87-28.41,6.82-29.79,28.17-.94,14.54-28,10.54-35.32,27-8.21,18.6,8.76,28.62-10.93,49.56-17.88,19-38.5,63-8.08,92.37,0,0,21.46-3.63,35.37-6.78s35.37-8.5,35.37-8.5Z"/><path class="cls-23" d="M2263.72,148c-12-29.85,16.91-40.06,28.48-38.52,12.72,1.69,19.26-3,18.31-17.55-1.26-19.21,12.95-31.29,33.45-32s21.61-2.52,29.94-18.07,26.3-21.83,43.18-26.06l12.64,88.09s-62.47,6.74-145.08,72.51Z"/><path class="cls-24" d="M2362.45,258.09c-2.45-17.11,14.22-25.64,26.66-17.66,15.29,9.81,7.87-11.26,28.8-8.64l5.86,21.91S2393,266.81,2376.89,279Z"/><path class="cls-21" d="M2103.87,441.89c-5.76-6.84-3.84-18.36,4.47-26.79,6.87-7,3.17-13.2-.1-18.71l-.67-1.13c-3.43-5.89-.81-20.06,10.95-28,4-2.72,2.79-5.92,0-11.81-2.6-5.58-5.83-12.52-2.07-20.5l1.81.85c-3.36,7.14-.47,13.34,2.08,18.8s4.89,10.51-.74,14.32c-10.45,7.07-13.43,20.05-10.34,25.35.21.37.43.74.66,1.12,3.27,5.52,7.76,13.08-.19,21.14-7.58,7.69-9.46,18-4.37,24.09Z"/><path class="cls-19" d="M2175.48,213.45l-1.18-16.6,2-.14,1,14.6,14.61-1,.14,2Z"/><path class="cls-25" d="M2335.91,424.09l-11-7.63,1.14-1.64,9.38,6.49,6.49-9.37,1.64,1.14-7.63,11Z"/><path class="cls-21" d="M2208.34,398.6l-8.58-12.52,1.65-1.13,7.45,10.87,10.87-7.45,1.13,1.65-12.52,8.58Z"/><path class="cls-25" d="M2394.13,322.75a3,3,0,1,0,.41,1.48A3,3,0,0,0,2394.13,322.75Z"/><path class="cls-20" d="M2313.53,351.05a4.33,4.33,0,0,0-5.93-1.51l-.07,0a4.34,4.34,0,0,0,1.2,7.92,4.81,4.81,0,0,0,1,.13,4.34,4.34,0,0,0,3.7-6.58Z"/><path class="cls-9" d="M2321.16,248.08c-.18-.21-.71-.19-1-.06a.79.79,0,0,0,.52-.5,1.34,1.34,0,0,0-.08-.88,3.24,3.24,0,0,0-.95-1,6.25,6.25,0,0,0-7.11-.06,6.44,6.44,0,0,0-2.37,2.94,6.12,6.12,0,0,0-.23,3.85,5.93,5.93,0,0,0,4.59,4.3,6.33,6.33,0,0,0,3.9-.54,6.1,6.1,0,0,0,1.39-.92c.17-.14.34-.3.5-.46a5.54,5.54,0,0,0,1.85-3.45,4.53,4.53,0,0,0-1-3.22Zm-85.68,213a5.83,5.83,0,0,0-10,6h0a5.48,5.48,0,0,0,3.54,2.54,5.6,5.6,0,0,0,1.29.14,6,6,0,0,0,3.07-.86,5.72,5.72,0,0,0,2.1-7.82Z"/><path class="cls-26" d="M2307.89,133.65a5.5,5.5,0,0,0-3.54-2.53,6,6,0,0,0-7,4.24,5.51,5.51,0,0,0,.59,4.31,5.6,5.6,0,0,0,4.83,2.68,6,6,0,0,0,5.75-4.38,5.56,5.56,0,0,0-.63-4.32Z"/><path class="cls-18" d="M2215,134a5,5,0,0,0-3.22-2.31,5.46,5.46,0,0,0-6.44,3.88,5,5,0,0,0,.54,3.93,5.1,5.1,0,0,0,4.4,2.44,5.38,5.38,0,0,0,2.81-.79A5.24,5.24,0,0,0,2215,134Z"/><path class="cls-9" d="M2499.69,179.44a5.88,5.88,0,0,0-2.51-3.64,5.51,5.51,0,0,0-7.64,1.52c-.06.08-.11.17-.16.25a6,6,0,0,0,1.82,8,5.46,5.46,0,0,0,3.06.93,5,5,0,0,0,1.22-.14,5.44,5.44,0,0,0,3.52-2.56A5.89,5.89,0,0,0,2499.69,179.44Zm2.93-44.8a6,6,0,0,0-2.51-3.64,5.52,5.52,0,0,0-7.65,1.53l-.16.25a5.84,5.84,0,0,0-.68,4.36,5.77,5.77,0,0,0,5.57,4.57,5.56,5.56,0,0,0,1.22-.13A5.74,5.74,0,0,0,2502.62,134.64Zm135.85,79.49a5.9,5.9,0,0,0-2.5-3.64,5.59,5.59,0,0,0-4.29-.79,5.83,5.83,0,1,0,2.59,11.37,5.55,5.55,0,0,0,3.52-2.57A5.91,5.91,0,0,0,2638.47,214.13Z"/><path class="cls-18" d="M2649.67,86.47a7.05,7.05,0,0,0-5.13-1,6.47,6.47,0,0,0-4.2,2.89,6.76,6.76,0,0,0,2.28,9.26,7.08,7.08,0,0,0,3.74,1.08,6.53,6.53,0,0,0,5.59-3,6.73,6.73,0,0,0-2.25-9.26l0,0Z"/><path class="cls-9" d="M2170.61,347.89a7.45,7.45,0,0,0-3.29-4.52,7.12,7.12,0,0,0-8.55,11.39,9.66,9.66,0,0,0,5,1.78,7,7,0,0,0,7.08-6.92,7.52,7.52,0,0,0-.21-1.77Zm238-245a7.12,7.12,0,0,0-8.55,11.39,9.57,9.57,0,0,0,5,1.77,7,7,0,0,0,6-3.26A7.26,7.26,0,0,0,2408.6,102.89Z"/><path class="cls-18" d="M2162.55,135a8.78,8.78,0,0,0-3.87-5.3,8.49,8.49,0,0,0-11.68,2.44,8.1,8.1,0,0,0-1,6.33,8.87,8.87,0,0,0,8.57,6.67,8.26,8.26,0,0,0,7-3.8A8.16,8.16,0,0,0,2162.55,135Zm157.5-55.36a9.11,9.11,0,0,0-8.93-4.88,8.49,8.49,0,0,0-4.91,2.16,8.31,8.31,0,0,0-2.43,8.33,9,9,0,0,0,3,4.63,9.12,9.12,0,0,0,2,1.23,7.82,7.82,0,0,0,.91.36,8.51,8.51,0,0,0,5.55.09,7.51,7.51,0,0,0,3.79-2.94,1.14,1.14,0,0,0,.13-.92c.07.14.22.16.42,0a2.74,2.74,0,0,0,.69-.89,6.53,6.53,0,0,0,.59-1.88A8.72,8.72,0,0,0,2320.05,79.66Z"/><path class="cls-20" d="M2359.75,292.76a4.39,4.39,0,0,0-2.67-2,4.34,4.34,0,1,0,2.67,2ZM2404,262.13a4.34,4.34,0,0,0-7.43,4.49,4.29,4.29,0,0,0,2.67,2,4.22,4.22,0,0,0,1,.13,4.34,4.34,0,0,0,3.71-6.58Z"/><path class="cls-25" d="M2487.76,238.31a4.34,4.34,0,1,0-4.76,6.45,4.29,4.29,0,0,0,3.28-.5,4.34,4.34,0,0,0,1.51-5.95l0-.05Z"/><path class="cls-4" d="M2501.51,308.28a2.87,2.87,0,0,0-2.09-.64,2.8,2.8,0,0,0-1.93,1,2.86,2.86,0,1,0,4-.35l0,0Z"/><path class="cls-25" d="M2499,272a3.36,3.36,0,0,0-4.27,5.18,3.32,3.32,0,0,0,2.13.77h.33A3.36,3.36,0,0,0,2499,272h0Z"/><path class="cls-4" d="M2543.34,297a1.67,1.67,0,0,0-1.23-.38,1.72,1.72,0,0,0-1.13.61,1.67,1.67,0,0,0,.21,2.35h0a1.67,1.67,0,0,0,1.07.38,1.64,1.64,0,0,0,1.3-.6,1.68,1.68,0,0,0-.22-2.36Zm-70.92,24.9a1.71,1.71,0,0,0-1.23-.38,1.74,1.74,0,0,0-1.14.61,1.67,1.67,0,0,0,.22,2.35h0a1.68,1.68,0,0,0,2.14-2.59Zm-64.27,8.29a1.68,1.68,0,1,0-1.07,3h.16a1.66,1.66,0,0,0,1.51-1.79v0a1.68,1.68,0,0,0-.6-1.17Zm71.85-5.34a1.66,1.66,0,1,0,.28,2.3,1.67,1.67,0,0,0,.35-1.16A1.7,1.7,0,0,0,2480,324.89Zm-28.34-51a1.68,1.68,0,1,0-2.14,2.59,1.68,1.68,0,0,0,2.15-2.58ZM2407,280a1.68,1.68,0,1,0-1.07,3h.16a1.66,1.66,0,0,0,1.51-1.79v0a1.62,1.62,0,0,0-.6-1.17Zm87.46,61a1.71,1.71,0,0,0-1.23-.38,1.74,1.74,0,0,0-1.14.61,1.67,1.67,0,0,0,.22,2.35h0a1.65,1.65,0,0,0,1.06.39h.17a1.64,1.64,0,0,0,1.13-.61,1.67,1.67,0,0,0-.22-2.36Zm26.54-92.1a2.85,2.85,0,0,0-3.62,4.39,2.81,2.81,0,0,0,1.82.66,2.86,2.86,0,0,0,1.8-5.05ZM2335.91,362a2.87,2.87,0,0,0-2.09-.64,2.81,2.81,0,0,0-2.57,3.09,2.86,2.86,0,0,0,5.7-.25c0-.1,0-.2,0-.3a2.85,2.85,0,0,0-1-1.9Z"/><path class="cls-19" d="M2584,78.24a3.36,3.36,0,1,0-4.28,5.18,3.32,3.32,0,0,0,2.13.77h.33a3.37,3.37,0,0,0,1.82-6Z"/><path class="cls-9" d="M2650.28,170.36a3.42,3.42,0,0,0-2.46-.76,3.36,3.36,0,1,0,.65,6.69,3.4,3.4,0,0,0,2.26-1.2,3.36,3.36,0,0,0-.45-4.73Z"/><path class="cls-19" d="M2579.44,63.18a3.38,3.38,0,1,0,.39,4.8l.06-.07A3.36,3.36,0,0,0,2579.44,63.18Z"/><circle class="cls-18" cx="2592" cy="39.68" r="2.36"/><path class="cls-18" d="M2592,42.54a2.83,2.83,0,0,1-2.84-2.59,2.8,2.8,0,0,1,.64-2.06,2.85,2.85,0,1,1,2.2,4.65Zm0-4.72h-.18a1.87,1.87,0,0,0-1.68,2,1.9,1.9,0,0,0,.67,1.26,1.86,1.86,0,1,0,1.19-3.26Z"/><path class="cls-27" d="M2158.76,297.24a3.35,3.35,0,0,0-4.72.44h0a3.36,3.36,0,0,0,.46,4.73h0a3.36,3.36,0,0,0,4.72-.44h0A3.36,3.36,0,0,0,2158.76,297.24Zm33.85-2.41a3.35,3.35,0,1,0,.45,4.73A3.35,3.35,0,0,0,2192.61,294.83Z"/><path class="cls-25" d="M2461.71,219.19a2.85,2.85,0,1,0-3.58,4.43,2.81,2.81,0,0,0,1.78.64,2.86,2.86,0,0,0,1.83-5.07Z"/><path class="cls-18" d="M2111,465a3.36,3.36,0,1,0-2.15,6h.33A3.37,3.37,0,0,0,2111,465Zm-39.51,17.6a3.36,3.36,0,1,0,.46,4.73,3.36,3.36,0,0,0-.46-4.73Zm18.32-28.88a3.36,3.36,0,0,0-4.28,5.18,3.32,3.32,0,0,0,2.13.77,3.36,3.36,0,0,0,2.15-5.95Z"/><circle class="cls-18" cx="2154.25" cy="274.17" r="2.36"/><path class="cls-18" d="M2154.25,277a2.88,2.88,0,0,1-1.82-.65,2.82,2.82,0,0,1-1-1.94,2.79,2.79,0,0,1,.64-2.09,2.85,2.85,0,0,1,4.39,3.62,2.8,2.8,0,0,1-1.93,1Zm0-4.72h-.18a1.87,1.87,0,0,0-1.68,2,1.9,1.9,0,0,0,.67,1.26,1.86,1.86,0,1,0,2.37-2.87,1.83,1.83,0,0,0-1.17-.39Z"/><circle class="cls-18" cx="2130.53" cy="278.98" r="2.36"/><path class="cls-18" d="M2130.53,281.89a2.87,2.87,0,1,1,2.21-1A2.86,2.86,0,0,1,2130.53,281.89Zm0-4.72h-.18a1.84,1.84,0,0,0-1.26.67,1.86,1.86,0,1,0,2.54-.25,1.89,1.89,0,0,0-1.1-.39Z"/><circle class="cls-18" cx="2108.87" cy="228.81" r="2.36"/><path class="cls-18" d="M2108.87,232.17a3.36,3.36,0,1,1,2.59-1.22A3.35,3.35,0,0,1,2108.87,232.17Zm0-4.72a1.36,1.36,0,0,0-1.4,1.32,1.33,1.33,0,0,0,.53,1.12,1.39,1.39,0,0,0,1,.3,1.36,1.36,0,0,0,.76-2.39,1.39,1.39,0,0,0-.89-.32Z"/><path class="cls-25" d="M2438.66,295.89a3,3,0,1,0-1,4.11l0,0A3,3,0,0,0,2438.66,295.89Z"/><path class="cls-27" d="M2324,181.51l-2-.25c.06-.43,1.42-10.66,11.21-14.76a16.57,16.57,0,0,1,10.55-1,15.45,15.45,0,0,0,10.93-1.48c4.73-2.27,6.11-5.21,7.57-8.31,1.56-3.33,3.18-6.77,8.88-9,5.93-2.3,9.45-.78,12.56.56,2.6,1.13,4.84,2.1,8.35.75s5.91-4.21,8.47-7.24c3.24-3.85,6.6-7.83,12.54-9.3,10.74-2.65,18.52,5.08,18.84,5.42l-1.42,1.4c-.07-.07-7.34-7.25-16.94-4.88-5.31,1.32-8.46,5-11.49,8.65-2.61,3.09-5.3,6.29-9.28,7.82-4.27,1.64-7.11.41-9.87-.78-3-1.3-5.87-2.54-11-.53s-6.27,4.72-7.79,8-3.14,6.68-8.51,9.26c-5.68,2.72-9,2.18-12.13,1.65a14.83,14.83,0,0,0-9.45.88c-8.72,3.61-10,13-10,13.14Zm10.64,17.8-1.69-1.07c5-7.9,10.64-12.29,24.63-11.28,7.24.52,9.37-3.22,11.85-7.55,2-3.43,4-7,8.66-8.52,5.18-1.72,8.71-.59,12.12.49,3.58,1.14,6.95,2.21,12.49.44,3.83-1.22,6.86-4.36,9.8-7.4,5.56-5.75,11.3-11.69,22.24-5l-1,1.71c-9.57-5.85-14.29-1-19.76,4.69-3.11,3.21-6.33,6.54-10.63,7.92-6.15,2-10.16.69-13.7-.44-3.26-1-6.33-2-10.89-.5-3.94,1.3-5.7,4.37-7.55,7.61-2.58,4.51-5.25,9.16-13.74,8.56-13.1-.95-18.12,2.92-22.83,10.34Zm263.93,36.58c0-.08-1-8.08-6.43-10.89-2.54-1.32-5.11-.64-8.09.15-3.35.89-7.14,1.89-11.56.12s-6.44-4.9-8.2-7.65c-1.56-2.44-2.91-4.56-5.73-5.57-2.2-.79-5.28.19-8.53,1.22-5.55,1.76-11.84,3.75-15.63-2.77-2.76-4.77-5.65-7.33-8.81-7.8s-6.76,1.18-10.76,4.89l-1.36-1.46c4.53-4.21,8.59-6,12.41-5.41s7.16,3.44,10.25,8.78c3,5.13,8,3.54,13.29,1.86,3.59-1.14,7-2.21,9.82-1.19,3.45,1.24,5.12,3.85,6.74,6.38s3.4,5.31,7.26,6.86,7.11.65,10.3-.19,6.29-1.67,9.52,0c6.36,3.29,7.46,12.06,7.5,12.43Zm-6.57,10-2-.25s.48-4.31-2.49-6.69c-1.92-1.53-4.44-.89-7.63-.09s-7.07,1.78-11.07.38-5.89-4-7.72-6.47-3.38-4.61-6.88-5.64c-2.7-.79-6,.63-9.21,2-4.7,2-10,4.3-13.27-1.3-4.65-8-13.1-10.33-21.53-5.9l-.93-1.77c9.46-5,18.95-2.36,24.19,6.67,2.24,3.87,5.54,2.7,10.75.47,3.52-1.52,7.17-3.08,10.56-2.08,4.15,1.21,6.07,3.83,7.93,6.37,1.72,2.34,3.35,4.56,6.77,5.76s6.73.37,9.92-.43c3.43-.86,6.68-1.68,9.37.47,3.86,3.1,3.24,8.3,3.24,8.5Z"/><path class="cls-28" d="M2389.11,409.35l-17.38,2.54s-23.84,3.47-27-16.4,16.87-27.61,3.72-35.2-11.79-19.44-5.7-32.28l77.59,41.34,12.3,17Z"/><path class="cls-29" d="M2326.94,395.89c2.53.18,25.93-.07,33.12-.43,1.28-.07,2.58-.26,3.83-.22a98.85,98.85,0,0,0,12.88-.06c2.72.31,13.68-.27,14.48-.28,3.38,0,2.73-.09,6.1-.17a16.56,16.56,0,0,0,2.33-.23c.88-.13,1.14-.78.41-1a7.09,7.09,0,0,0-1.64-.37c-.94-.07-1.92-.07-2.88-.07h-31.43c-4.34,0-8.7,0-13,.08s-13,.33-13,.29c-2.74,0-5.49-.07-8.21,0-2.39.08-4.78.28-7.12.51a1.84,1.84,0,0,0-1.27.74c-.17.21,3.84,1.09,5.4,1.21Z"/><path class="cls-30" d="M2505,330.34c1.63-2.26,15.09-24.15,19-31,.69-1.23,1.28-2.54,2-3.68a117.85,117.85,0,0,0,7.48-12c1.85-2.36,7.77-12.86,8.22-13.61,1.93-3.17,1.51-2.58,3.42-5.76a19.74,19.74,0,0,0,1.17-2.29c.4-.89,0-1.48-.62-.93a9,9,0,0,0-1.28,1.33c-.61.83-1.18,1.75-1.75,2.64l-18.33,29.24c-2.53,4-5.07,8.09-7.55,12.18s-7.33,12.28-7.36,12.27c-1.61,2.54-3.27,5.06-4.8,7.64-1.33,2.27-2.55,4.6-3.72,6.9a2,2,0,0,0-.12,1.57,31.55,31.55,0,0,0,4.24-4.5Z"/><path class="cls-31" d="M2152.48,226c5,2.92,51.82,28.32,66.36,35.88,2.59,1.34,5.28,2.59,7.75,4,8.51,4.83,17,9.7,25.75,14.05,5.28,3.25,27.46,14.75,29.07,15.61,6.77,3.66,5.48,2.9,12.26,6.54,1.58.84,3.22,1.63,4.77,2.35,1.82.84,2.66.56,1.33-.44-1-.76-2-1.47-3.11-2.13-1.83-1.09-3.8-2.16-5.72-3.22q-31.38-17.19-62.77-34.37c-8.68-4.75-17.38-9.52-26.1-14.21s-26.17-14-26.17-14c-5.47-3-10.92-6.08-16.41-9-4.81-2.55-9.69-5-14.48-7.35a6.7,6.7,0,0,0-2.88-.75c-.28.06,7.28,5.23,10.35,7Z"/><path class="cls-32" d="M2394.17,145.42c1,4.6,11.93,46.74,15.57,59.62.65,2.3,1.44,4.59,2,6.85,1.82,7.8,3.58,15.56,6,23.22.94,5,6.52,24.62,6.9,26.06,1.6,6.08,1.33,4.89,3,11,.37,1.41.84,2.83,1.29,4.15.53,1.55,1.28,1.86,1.18.5a22.46,22.46,0,0,0-.39-3.06c-.36-1.71-.81-3.48-1.25-5.22L2414,211.89c-2-7.84-4-15.7-6.06-23.52s-6.27-23.41-6.24-23.43c-1.25-4.94-2.44-9.91-3.77-14.81-1.17-4.3-2.46-8.56-3.76-12.72a4.54,4.54,0,0,0-1.29-2.11C2392.6,135.13,2393.56,142.57,2394.17,145.42Z"/><path class="cls-33" d="M2468.9,154.65c-.11,3.3.83,33.86,1.41,43.24.1,1.67.33,3.37.33,5,0,5.62-.1,11.21.44,16.82-.24,3.56.66,17.86.7,18.91.15,4.41.18,3.56.35,8a29.87,29.87,0,0,0,.3,3c.16,1.15.81,1.47,1,.52a11,11,0,0,0,.32-2.15v-3.77q-.47-20.52-.95-41c-.14-5.68-.27-11.36-.47-17s-.71-17-.68-17c-.08-3.58-.09-7.17-.25-10.73-.14-3.12-.42-6.24-.72-9.29a2.63,2.63,0,0,0-.77-1.64c-.17-.21-.91,5-1,7.09Z"/><path class="cls-34" d="M2556.73,193.75c3-4.35,29.23-45.65,37.05-58.5,1.39-2.29,2.69-4.68,4.14-6.85,5-7.49,10-14.91,14.5-22.7,3.34-4.61,15.24-24.21,16.14-25.63,3.77-6,3-4.84,6.75-10.82.87-1.39,1.69-2.85,2.44-4.22.88-1.62.63-2.43-.39-1.29a28,28,0,0,0-2.17,2.69c-1.12,1.61-2.23,3.34-3.32,5q-17.74,27.64-35.47,55.29c-4.91,7.65-9.83,15.31-14.67,23s-14.45,23.09-14.48,23.08c-3.1,4.82-6.26,9.62-9.27,14.46-2.64,4.25-5.17,8.56-7.62,12.81a5.6,5.6,0,0,0-.82,2.63c.05.29,5.33-6.26,7.19-8.95Z"/><path class="cls-35" d="M2229.89,104.09c3.44,5,36.83,50.32,47.33,64.08,1.87,2.45,3.87,4.86,5.61,7.31,6,8.44,11.89,16.87,18.32,25,3.6,5.47,19.62,26.43,20.77,28,4.84,6.53,3.94,5.23,8.79,11.75,1.12,1.51,2.34,3,3.49,4.39,1.36,1.63,2.25,1.76,1.42.21-.61-1.17-1.28-2.31-2-3.41-1.27-1.86-2.66-3.77-4-5.64l-44.59-61c-6.18-8.44-12.35-16.9-18.58-25.29s-18.74-25.11-18.72-25.14c-3.89-5.33-7.73-10.71-11.67-16-3.45-4.6-7-9.12-10.51-13.53a7,7,0,0,0-2.4-2c-.34-.13,4.61,8.17,6.74,11.27Z"/><path class="cls-36" d="M2414.85,9c.39,4.11,5.87,41.88,7.85,53.45.35,2.06.83,4.13,1.07,6.15.81,7,1.57,13.91,2.94,20.8.3,4.44,3.32,22.07,3.51,23.37.81,5.45.71,4.38,1.53,9.83.2,1.26.47,2.54.75,3.73.33,1.41,1,1.74,1.11.54a17.51,17.51,0,0,0,0-2.71c-.14-1.52-.36-3.11-.57-4.67q-3.52-25.38-7.06-50.75c-1-7-2-14.06-3-21.08s-3.23-21-3.2-21c-.61-4.42-1.16-8.87-1.85-13.27-.6-3.85-1.34-7.69-2.1-11.44a3.71,3.71,0,0,0-1-1.94c-.22-.11-.22,6.45,0,9Z"/><path class="cls-37" d="M2332.11,216.37c2.3,3.67,25.14,36.61,32.4,46.57,1.29,1.77,2.71,3.49,3.88,5.28,4,6.16,8,12.33,12.51,18.18,2.38,4,13.46,19.18,14.24,20.31,3.32,4.75,2.71,3.79,6,8.53.77,1.1,1.63,2.17,2.45,3.16,1,1.17,1.74,1.17,1.24,0a18.76,18.76,0,0,0-1.28-2.53c-.85-1.37-1.8-2.75-2.73-4.12q-15.2-22.19-30.42-44.38c-4.21-6.15-8.42-12.3-12.69-18.4s-12.87-18.23-12.85-18.25c-2.64-3.88-5.24-7.8-8-11.61-2.37-3.34-4.85-6.6-7.31-9.78a4,4,0,0,0-1.84-1.37,86.87,86.87,0,0,0,4.4,8.41Z"/><path class="cls-38" d="M2536.82,66.37c-1.05,4.41-9,45.65-11.1,58.38-.38,2.27-.64,4.59-1.12,6.78-1.64,7.54-3.33,15-4.43,22.69-1.25,4.72-4.5,24.14-4.77,25.55-1.12,6-.85,4.81-2,10.77-.25,1.38-.43,2.81-.58,4.15-.18,1.57.37,2.16.86.93a23.26,23.26,0,0,0,.93-2.82c.4-1.64.74-3.37,1.08-5.06q5.46-27.66,10.91-55.31c1.5-7.66,3-15.32,4.45-23s4.22-23,4.26-23c1-4.82,2-9.65,2.85-14.47.76-4.22,1.39-8.47,2-12.63a4.41,4.41,0,0,0-.28-2.38,77,77,0,0,0-3.06,9.42Z"/><path class="cls-25" d="M2381.72,333.68a2.08,2.08,0,0,0-2.94.12c-13.43,14.58-18.49,26.41-18.7,26.9a2.09,2.09,0,0,0,1.1,2.73h0a2.19,2.19,0,0,0,.8.16,2.07,2.07,0,0,0,1.08-.3,2,2,0,0,0,.84-1c.05-.11,4.94-11.58,17.93-25.69a2.08,2.08,0,0,0-.12-2.94h0Zm40.91-30.21a2.07,2.07,0,0,0-2.79-.88h0a159,159,0,0,0-17.61,10.75,2.08,2.08,0,0,0,2.27,3.48l.13-.08a157.92,157.92,0,0,1,17.14-10.47,2,2,0,0,0,1-1.21,2.07,2.07,0,0,0-.12-1.6Zm60.19-16.85c-.5,0-12.46-1-30.58,3.52a2.08,2.08,0,0,0,1,4c17.47-4.36,29.09-3.42,29.21-3.41a2,2,0,0,0,1.25-.29,2.08,2.08,0,0,0-.89-3.85Z"/><path class="cls-20" d="M2291.36,403.15a3.39,3.39,0,0,0-4,2.62v0c-3.19,15.72-3.16,25.82-3.15,26.24a3.36,3.36,0,1,0,6.71,0,139.55,139.55,0,0,1,3-24.85,3.38,3.38,0,0,0-2.56-4ZM2347.59,303a3.31,3.31,0,0,0-2.39-1,3.43,3.43,0,0,0-2.38,1,209.76,209.76,0,0,0-26.3,32.38,3.37,3.37,0,0,0,4.56,4.74,3.3,3.3,0,0,0,1.07-1,202.17,202.17,0,0,1,25.45-31.34,3.36,3.36,0,0,0,0-4.76h0Zm111.94-60.1a3.35,3.35,0,0,0-4-2.55,220.2,220.2,0,0,0-44.3,15.13,3.36,3.36,0,0,0-1.63,4.46h0a3.35,3.35,0,0,0,4.47,1.64A213.57,213.57,0,0,1,2457,246.89a3.61,3.61,0,0,0,1-.4A3.36,3.36,0,0,0,2459.53,242.89Zm121.74,9.86c-.49-.26-12.41-6.59-32.64-11.58a3.4,3.4,0,0,0-2.55.39,3.33,3.33,0,0,0-1.53,2.08,3.37,3.37,0,0,0,2.47,4.08h0c19.11,4.71,30.59,10.72,31.07,11a3.29,3.29,0,0,0,1.59.4,3.36,3.36,0,0,0,1.74-.48,3.27,3.27,0,0,0,1.23-1.3,3.37,3.37,0,0,0-1.35-4.57l0,0Z"/><path class="cls-9" d="M2271.17,309.49a3.77,3.77,0,0,0-6.88-1.07A316.91,316.91,0,0,0,2234.46,373a3.75,3.75,0,0,0,2.37,4.74h0a3.64,3.64,0,0,0,1.18.19,3.71,3.71,0,0,0,1.94-.54,3.77,3.77,0,0,0,1.63-2.05,309,309,0,0,1,29.12-63,3.75,3.75,0,0,0,.44-2.85Zm156.67-119.94a3.75,3.75,0,0,0-4.6-2.66h0a261.85,261.85,0,0,0-67.11,28.52,3.78,3.78,0,1,0,3.89,6.48h0a255.08,255.08,0,0,1,65.18-27.7,3.75,3.75,0,0,0,2.67-4.58v-.06ZM2146.37,405.46a4.14,4.14,0,0,0-4.93,3.16v0c-5.13,23.89-7.39,46.29-6.74,66.6a4.16,4.16,0,0,0,4.16,4h.13a4,4,0,0,0,2-.59,4.15,4.15,0,0,0,2-3.7c-.63-19.63,1.57-41.36,6.55-64.58a4.16,4.16,0,0,0-3.16-4.92Zm97.05-189.09a4.17,4.17,0,0,0-5.87.43A430.66,430.66,0,0,0,2199,269.25a4.16,4.16,0,0,0,5.69,5.77,4,4,0,0,0,1.37-1.35,420.09,420.09,0,0,1,37.75-51.43,4.16,4.16,0,0,0-.43-5.87h0Zm78.4-65.83a4.17,4.17,0,0,0-5.71-1.42,306.29,306.29,0,0,0-48.18,36.3,4.16,4.16,0,0,0-.26,5.88h0a4.17,4.17,0,0,0,5.22.76,4.51,4.51,0,0,0,.66-.49,298.32,298.32,0,0,1,46.86-35.31,4.15,4.15,0,0,0,1.41-5.71Zm369.33-7.45a4.16,4.16,0,0,0-2-2.52,259,259,0,0,0-44.42-19.6,4.15,4.15,0,0,0-5.07,5.77,4.06,4.06,0,0,0,2.39,2.1,251,251,0,0,1,43,19,4.17,4.17,0,0,0,4.21-.06,4.21,4.21,0,0,0,1.89-4.69Zm-108-38a4.13,4.13,0,0,0-2.72-1.66,460,460,0,0,0-70.34-5.23,4.17,4.17,0,0,0,0,8.33h1a448.68,448.68,0,0,1,68,5.13,3.31,3.31,0,0,0,.63,0,4.21,4.21,0,0,0,2.16-.6,4.17,4.17,0,0,0,2-2.93,4.12,4.12,0,0,0-.74-3Z"/><path class="cls-39" d="M2525.2,131.61c1.4-9.7,25.38-16.74,40.05,1.42s19.23,25.66,38.37,23.63c23-2.45,26.64,15.77,22.8,23.77l-19.89,27.3a109.13,109.13,0,0,0-37.1-19.32c-24.94-7.15-54.13-7.92-54.13-7.92Z"/><path class="cls-9" d="M2572.94,185.65c-.62-.18-15.35-4.45-39-7a3.76,3.76,0,0,0-4.15,3.33h0a3.79,3.79,0,0,0,.82,2.77,3.71,3.71,0,0,0,2.53,1.37c23,2.45,37.53,6.65,37.68,6.7a3.77,3.77,0,0,0,2.12-7.23Z"/><path class="cls-21" d="M2597.14,186.23l-.57-1.92,12.65-3.71L2605.5,168l1.92-.56L2611.7,182l-14.56,4.28Z"/><path class="cls-4" d="M2398.81,401.39a2.9,2.9,0,0,0-2.1-.64,2.86,2.86,0,1,0,3.12,2.57h0A2.86,2.86,0,0,0,2398.81,401.39Zm-19.45-5.5a1.68,1.68,0,1,0-1.07,3h.16a1.63,1.63,0,0,0,1.14-.6,1.7,1.7,0,0,0,.38-1.23,1.63,1.63,0,0,0-.61-1.17Z"/><path class="cls-40" d="M2140.52,330.43c4.71,1.25,48.73,11,62.32,13.69,2.42.49,4.91.85,7.24,1.42,8.05,2,16,4,24.21,5.44,5,1.46,25.77,5.57,27.28,5.9,6.36,1.39,5.14,1.07,11.5,2.44,1.47.32,3,.56,4.43.77,1.68.24,2.31-.28,1-.82a26.71,26.71,0,0,0-3-1.06c-1.74-.47-3.59-.89-5.4-1.3l-59-13.37c-8.17-1.85-16.35-3.7-24.54-5.48s-24.56-5.24-24.56-5.27c-5.15-1.17-10.3-2.41-15.44-3.5-4.51-.94-9-1.76-13.5-2.53a4.87,4.87,0,0,0-2.54.17c-.23.14,7.09,2.72,10,3.5Z"/><path class="cls-41" d="M2503.06,347.06c-17.69,10.51-34.47,20.28-50.34,29q-18.87,10.35-36.59,19.33l6.18-3.89,58.45-34Z"/><path class="cls-8" d="M2478.38,338.11c-3.44-7.19-7-14.35-10.41-21.35a21.76,21.76,0,0,0-2.2-3.64c0-.06-.07-.1-.1-.16l.08.07c.12.1.17.06.11-.17a2.15,2.15,0,0,0-.76-1.09,3.24,3.24,0,0,0-2.83-.63,5,5,0,0,0-.76.3l-.63.34-1.28.7c-2.73,1.52-5.57,3.16-8.35,4.76l-45.35,26.19L2394.56,350l-1.42.82-.71.41-.35.2c-.13.08-.29.18-.42.28a3.54,3.54,0,0,0-1.3,3.67,4.46,4.46,0,0,0,.87,1.69l.93,1.34,1.87,2.69,15,21.52q4.88,7,9.76,14.07l24.11-14,37.53-21.87,6.89-4c-3-6.19-6-12.46-8.91-18.69Z"/><path class="cls-42" d="M2548,15.89l-66.36,343.46-58.23,33.73L2053.6,309.73C2114.93,75.05,2375.81-35.67,2548,15.89Z"/><path class="cls-25" d="M2423.38,393l-25.18-36.38a1.53,1.53,0,0,1,.39-2.14l.1-.07,62-35.91a1.54,1.54,0,0,1,2.11.56l.06.12,18.74,40.09Z"/><path class="cls-43" d="M2423.38,393l-25.18-36.38a1.53,1.53,0,0,1,.39-2.14l.1-.07,62-35.91a1.54,1.54,0,0,1,2.11.56l.06.12,18.74,40.09Z"/><path class="cls-4" d="M2417.31,354.89l-10.92,6.32a.32.32,0,0,1-.42-.19.32.32,0,0,1,.09-.37l10.92-6.32a.32.32,0,0,1,.44.11h0a.33.33,0,0,1-.11.45Z"/><path class="cls-4" d="M2415.49,355.56c-.39.19-2.33,1.3-4.44,2.53l-3.11,1.83c-.9.52-2,1.26-1.72,1.05l.28-.18.56-.35a38.69,38.69,0,0,0,3.85-2.21c.86-.39,4.06-2.41,4.3-2.55l1.8-1.08a.19.19,0,0,1,.27,0,.17.17,0,0,1,.06.12,1.13,1.13,0,0,1,0,.26c0,.06.08.13.24,0a.53.53,0,0,0,0-.75.6.6,0,0,0-.13-.09.61.61,0,0,0-.46,0c-.18.07-.18.09-.28.13l-.43.25-9.42,5.37-1,.59a.73.73,0,0,0-.15,1l.06.07a.72.72,0,0,0,.57.21.53.53,0,0,0,.3-.09l.13-.07,1.94-1.13,3.87-2.3c.82-.47,1.65-.92,2.46-1.41s1.39-.89,2.06-1.35a.68.68,0,0,0,.27-.41,9.35,9.35,0,0,0-1.85.55Zm39.93-22.67-10.92,6.32a.33.33,0,1,1-.43-.5.21.21,0,0,1,.1-.06l10.92-6.33a.33.33,0,0,1,.33.57Z"/><path class="cls-4" d="M2453.6,333.49c-.39.19-2.33,1.3-4.44,2.53l-3.11,1.83c-.9.52-2,1.26-1.72,1l.28-.19c.18-.12.37-.23.56-.34a38.69,38.69,0,0,0,3.85-2.21c.86-.39,4.06-2.41,4.3-2.55l1.8-1.09a.19.19,0,0,1,.27,0,.16.16,0,0,1,.06.13v.25c0,.07.08.13.24,0a.54.54,0,0,0,0-.76.38.38,0,0,0-.13-.09.72.72,0,0,0-.46,0c-.18.08-.18.09-.28.14l-.43.25-9.42,5.37-1,.58a.74.74,0,0,0-.14,1l0,.06a.72.72,0,0,0,.57.21.75.75,0,0,0,.3-.09l.13-.07,1.94-1.13,3.87-2.31c.82-.46,1.65-.91,2.46-1.4s1.39-.89,2.06-1.35a.68.68,0,0,0,.27-.41,9.38,9.38,0,0,0-1.85.56Z"/><circle class="cls-4" cx="2420.72" cy="352.58" r="0.87"/><path class="cls-4" d="M2421.22,352.53a.61.61,0,0,1-.28.46.56.56,0,0,1-.67-.1.16.16,0,0,1-.13-.14,3,3,0,0,1,.14-.57c.07,0,.18-.12.32-.17a.86.86,0,0,1,.32-.05.71.71,0,0,1,.29.14.31.31,0,0,0,.13.06.3.3,0,0,0,.27-.14.28.28,0,0,0,0-.18.68.68,0,0,0-.17-.21,1.23,1.23,0,1,0-.44,2.15,1.25,1.25,0,0,0,.56-.34,1.1,1.1,0,0,0,.37-.69.88.88,0,0,0-.22-.62.25.25,0,0,0-.24,0,3.47,3.47,0,0,1-.25.4Zm16.11-9.2-5,2.9a.32.32,0,0,1-.44-.12.33.33,0,0,1,.12-.44h0l5-2.9a.32.32,0,1,1,.32.56Z"/><path class="cls-4" d="M2436.33,343.49c-.2.08-1.17.63-2.22,1.25l-1.55.92-.34.22s-.08,0-.07.06l.13-.11a2.61,2.61,0,0,1,.28-.17,10.2,10.2,0,0,0,1.92-1.11,17.87,17.87,0,0,0,2.14-1.29l.45-.28c.08-.05.1-.08.21,0a.21.21,0,0,1,0,.19c0,.08,0,.32.18.26a.46.46,0,0,0,.28-.4.62.62,0,0,0-.62-.62h0a.72.72,0,0,0-.32.08l-.15.09-.3.16-.59.34-1.18.66-2.36,1.33-.5.29a.71.71,0,0,0-.22,1,.36.36,0,0,0,.07.1.8.8,0,0,0,.56.24.64.64,0,0,0,.3-.08l.15-.08.48-.29,1.91-1.17c.42-.23.84-.44,1.24-.69a10.33,10.33,0,0,0,1-.74.36.36,0,0,0,.08-.3,2.84,2.84,0,0,0-1,.15Zm-6.83,4.4-5,2.9a.33.33,0,0,1-.45-.12.32.32,0,0,1,.12-.44h0l5-2.9a.33.33,0,0,1,.33.56Z"/><path class="cls-4" d="M2428.5,348c-.21.09-1.18.64-2.23,1.26l-1.54.92-.35.21a.06.06,0,0,0-.06.07l.14-.1a1.27,1.27,0,0,1,.27-.18,9.71,9.71,0,0,0,1.93-1.1,18.69,18.69,0,0,0,2.14-1.29l.44-.28c.08,0,.11-.08.21,0a.22.22,0,0,1,.06.19c0,.08,0,.31.18.26a.45.45,0,0,0,.27-.4.61.61,0,0,0-.6-.62h0a.72.72,0,0,0-.32.08l-.15.09-.29.16-.59.33-1.18.67-2.36,1.33-.51.28a.73.73,0,0,0-.21,1l.06.08a.75.75,0,0,0,.56.25.64.64,0,0,0,.3-.08l.15-.08.48-.29,1.92-1.17c.41-.23.84-.45,1.23-.7a10.23,10.23,0,0,0,1-.73.36.36,0,0,0,.08-.3,2.9,2.9,0,0,0-1,.13Z"/><circle class="cls-4" cx="2440.76" cy="340.97" r="0.87"/><path class="cls-4" d="M2441.26,340.89a.65.65,0,0,1-.28.47.59.59,0,0,1-.68-.11s-.12-.07-.12-.13a3.75,3.75,0,0,1,.13-.58,2.59,2.59,0,0,0,.33-.17.55.55,0,0,1,.31,0,.76.76,0,0,1,.29.13.33.33,0,0,0,.13.07.35.35,0,0,0,.28-.14.31.31,0,0,0,0-.19.91.91,0,0,0-.18-.21,1.22,1.22,0,0,0-1.41-.07,1.23,1.23,0,0,0-.52,1.36,1.16,1.16,0,0,0,.88.88,1.2,1.2,0,0,0,.79-.08,1.14,1.14,0,0,0,.38-.28,1,1,0,0,0,.37-.69.88.88,0,0,0-.22-.62h-.24A2.25,2.25,0,0,1,2441.26,340.89Z"/><path class="cls-5" d="M2463.24,331.44c-1.16.68-1.21-2.79-3.91-1.23,2.7-1.56-.28-3.33.88-4m-29.3,55.23c1.17-.67-1.82-2.44.88-4-2.7,1.56-2.74-1.9-3.91-1.23"/><path class="cls-4" d="M2443.92,349.94,2433,356.26a.32.32,0,0,1-.44-.12.33.33,0,0,1,.12-.44h0l10.91-6.32a.33.33,0,0,1,.45.12.32.32,0,0,1-.12.44Z"/><path class="cls-4" d="M2442.1,350.57c-.39.19-2.33,1.3-4.43,2.53l-3.11,1.83c-.91.52-2,1.26-1.73,1l.27-.18a6.42,6.42,0,0,1,.56-.34,40.86,40.86,0,0,0,3.85-2.22c.87-.38,4.07-2.41,4.3-2.55l1.81-1.08c.15-.13.3-.06.32.11a1.13,1.13,0,0,1,0,.26c0,.06.09.13.24,0a.53.53,0,0,0,0-.75.6.6,0,0,0-.13-.09.61.61,0,0,0-.46,0l-.28.13-.44.25-9.41,5.37-1,.59a.72.72,0,0,0,.48,1.3.53.53,0,0,0,.3-.09l.12-.07,1.95-1.13,3.86-2.3c.82-.47,1.66-.92,2.46-1.41s1.39-.89,2.06-1.35a.62.62,0,0,0,.27-.41,9.89,9.89,0,0,0-1.84.6Zm-5.83,14.22-10.91,6.33a.32.32,0,0,1-.44-.15.32.32,0,0,1,.11-.42l10.92-6.32a.32.32,0,0,1,.32.56Z"/><path class="cls-4" d="M2434.46,365.42c-.39.19-2.34,1.31-4.44,2.54l-3.11,1.83a13.09,13.09,0,0,1-1.72,1l.28-.19c.18-.12.37-.23.56-.34a40.86,40.86,0,0,0,3.85-2.22c.86-.38,4.06-2.4,4.3-2.54l1.8-1.09a.19.19,0,0,1,.27,0,.17.17,0,0,1,.06.12v.26c0,.07.08.13.24,0a.54.54,0,0,0,0-.76.38.38,0,0,0-.13-.09.61.61,0,0,0-.46,0l-.28.14-.43.24-9.42,5.38-1,.58a.73.73,0,0,0-.16,1l.07.08a.73.73,0,0,0,.87.12l.13-.07,1.94-1.14,3.87-2.3c.82-.47,1.65-.92,2.46-1.41s1.39-.88,2.06-1.34a.76.76,0,0,0,.27-.41,8.51,8.51,0,0,0-1.85.6Zm-8.61-5-5,2.9a.33.33,0,0,1-.45-.12.32.32,0,0,1,.12-.44h0l5-2.91a.33.33,0,1,1,.37.55l0,0Z"/><path class="cls-4" d="M2424.85,360.56c-.21.09-1.18.64-2.23,1.25l-1.54.93-.35.21a.06.06,0,0,0-.06.07l.14-.1a2.11,2.11,0,0,1,.27-.18,9.71,9.71,0,0,0,1.93-1.1,17.87,17.87,0,0,0,2.14-1.29l.44-.28c.08-.05.11-.08.21,0a.22.22,0,0,1,.06.19c0,.08,0,.31.18.26a.45.45,0,0,0,.27-.4.61.61,0,0,0-.6-.62h0a.72.72,0,0,0-.32.08l-.15.09-.29.16-.59.33-1.18.67-2.36,1.33-.51.28a.73.73,0,0,0-.21,1l.06.08a.75.75,0,0,0,.56.25.64.64,0,0,0,.3-.08l.15-.08.48-.29,1.92-1.17c.41-.23.84-.45,1.23-.7a10.23,10.23,0,0,0,1-.73.36.36,0,0,0,.08-.3,3.15,3.15,0,0,0-1,.13Zm31.24-17.67-5,2.91a.32.32,0,0,1-.44-.15.32.32,0,0,1,.11-.42l5-2.9a.33.33,0,0,1,.47,0,.33.33,0,0,1,0,.46A.21.21,0,0,1,2456.09,342.89Z"/><path class="cls-4" d="M2455.09,343.05c-.21.08-1.18.63-2.23,1.25l-1.54.93-.35.21a.06.06,0,0,0-.06.07l.14-.1a1.27,1.27,0,0,1,.27-.18,10.23,10.23,0,0,0,1.93-1.1,17.94,17.94,0,0,0,2.14-1.3l.44-.27c.08-.06.11-.09.21,0a.22.22,0,0,1,.06.19c0,.08,0,.32.18.26a.44.44,0,0,0,.27-.4.62.62,0,0,0-.94-.53l-.15.08-.29.17-.59.33-1.18.66-2.36,1.33-.51.29a.73.73,0,0,0-.21,1l.06.08a.71.71,0,0,0,.56.24.63.63,0,0,0,.3-.07l.15-.09.48-.28,1.92-1.18c.41-.23.84-.44,1.23-.69a8.9,8.9,0,0,0,1-.74.34.34,0,0,0,.08-.29,2.89,2.89,0,0,0-1,.12Z"/><circle class="cls-4" cx="2447.34" cy="347.59" r="0.87"/><path class="cls-4" d="M2447.84,347.54a.62.62,0,0,1-.29.46.56.56,0,0,1-.67-.1.17.17,0,0,1-.13-.14,3,3,0,0,1,.14-.57c.08,0,.18-.12.32-.17a.86.86,0,0,1,.32,0,.61.61,0,0,1,.29.14.31.31,0,0,0,.13.06.3.3,0,0,0,.27-.14.19.19,0,0,0,0-.18.5.5,0,0,0-.17-.21,1.2,1.2,0,0,0-1.41-.07,1.22,1.22,0,0,0,1.15,2.15,1.26,1.26,0,0,0,.38-.27,1,1,0,0,0,.37-.69.88.88,0,0,0-.22-.62h-.24a3.26,3.26,0,0,1-.24.4Zm.6,10.21-5,2.9a.32.32,0,0,1-.44-.11h0a.33.33,0,0,1,.12-.45l5-2.9a.35.35,0,0,1,.45.12.33.33,0,0,1-.13.45Z"/><path class="cls-4" d="M2447.44,357.89c-.2.08-1.17.64-2.22,1.25l-1.55.93-.34.21s-.08,0-.07.07l.13-.1a1.67,1.67,0,0,1,.28-.18,9.36,9.36,0,0,0,1.92-1.1,18.69,18.69,0,0,0,2.14-1.29l.45-.28c.08,0,.1-.08.21,0a.22.22,0,0,1,.05.19c0,.08,0,.31.18.26a.46.46,0,0,0,.28-.4.62.62,0,0,0-.62-.62h0a.72.72,0,0,0-.32.08l-.15.08-.3.17-.59.33-1.18.66-2.36,1.33-.5.29a.71.71,0,0,0-.22,1,.36.36,0,0,0,.07.1.71.71,0,0,0,.56.24.63.63,0,0,0,.3-.07l.15-.08.48-.29,1.91-1.17c.42-.23.84-.45,1.24-.7a8.81,8.81,0,0,0,1-.73.36.36,0,0,0,.08-.3,2.65,2.65,0,0,0-1,.13Z"/><circle class="cls-4" cx="2429.26" cy="358.05" r="0.87"/><path class="cls-4" d="M2429.76,358a.56.56,0,0,1-.5.6.57.57,0,0,1-.5-.24s-.13-.08-.13-.14a3,3,0,0,1,.14-.57c.07,0,.18-.12.32-.18a.86.86,0,0,1,.32,0,.71.71,0,0,1,.29.14l.13.06a.3.3,0,0,0,.27-.14.31.31,0,0,0,0-.19.55.55,0,0,0-.17-.2,1.23,1.23,0,0,0-1.42-.07,1.26,1.26,0,0,0-.52,1.35,1.22,1.22,0,0,0,.89.89,1.27,1.27,0,0,0,1.17-.36,1.1,1.1,0,0,0,.37-.69.9.9,0,0,0-.22-.63.33.33,0,0,0-.24,0c-.06.13-.13.25-.2.37Z"/><circle class="cls-4" cx="2439.69" cy="362.44" r="0.87"/><path class="cls-4" d="M2440.19,362.39a.65.65,0,0,1-.28.47.59.59,0,0,1-.68-.11s-.12-.07-.12-.13a2.89,2.89,0,0,1,.14-.58c.07,0,.18-.12.32-.17a.58.58,0,0,1,.32,0,.6.6,0,0,1,.28.13.37.37,0,0,0,.14.07c.05,0,.24-.06.27-.15a.28.28,0,0,0,0-.18.91.91,0,0,0-.18-.21,1.22,1.22,0,0,0-1.41-.07,1.24,1.24,0,0,0-.52,1.36,1.16,1.16,0,0,0,.88.88,1.2,1.2,0,0,0,.79-.08,1.08,1.08,0,0,0,.39-.28,1.06,1.06,0,0,0,.36-.69.8.8,0,0,0-.22-.62h-.23c-.07,0-.2.32-.25.36Zm20.42-11.69-5,2.9a.33.33,0,1,1-.43-.5.21.21,0,0,1,.1-.06l5-2.9a.33.33,0,0,1,.47,0,.33.33,0,0,1,0,.46A.21.21,0,0,1,2460.61,350.7Z"/><path class="cls-4" d="M2459.61,350.89c-.2.09-1.18.64-2.23,1.26l-1.54.92-.35.21a.06.06,0,0,0-.06.07l.13-.1a2.11,2.11,0,0,1,.27-.18,9.71,9.71,0,0,0,1.93-1.1,17.87,17.87,0,0,0,2.14-1.29l.45-.28c.07,0,.1-.08.2,0a.2.2,0,0,1,.06.19c0,.08,0,.31.18.26a.44.44,0,0,0,.27-.4.61.61,0,0,0-.6-.62h0a.73.73,0,0,0-.33.08l-.15.09-.29.16-.59.33-1.18.67-2.36,1.33-.51.28a.73.73,0,0,0-.21,1l.06.08a.75.75,0,0,0,.56.25.84.84,0,0,0,.31-.08l.14-.08.49-.29,1.91-1.17c.41-.23.84-.44,1.24-.7a10.23,10.23,0,0,0,1-.73.36.36,0,0,0,.08-.3,3.15,3.15,0,0,0-1,.13Z"/><circle class="cls-4" cx="2451.86" cy="355.39" r="0.87"/><path class="cls-4" d="M2452.36,355.35a.7.7,0,0,1-.28.46.59.59,0,0,1-.68-.11.17.17,0,0,1-.13-.13,4,4,0,0,1,.14-.57c.08,0,.18-.12.33-.18a.55.55,0,0,1,.31,0,.61.61,0,0,1,.29.14l.13.06a.29.29,0,0,0,.28-.14.21.21,0,0,0,0-.19.68.68,0,0,0-.17-.21,1.22,1.22,0,0,0-1.41-.06,1.24,1.24,0,0,0,.36,2.24,1.34,1.34,0,0,0,.79-.09,1.26,1.26,0,0,0,.38-.27,1,1,0,0,0,.37-.69.9.9,0,0,0-.22-.63h-.24a3,3,0,0,1-.25.37Z"/></g></g></g></svg>