<svg xmlns="http://www.w3.org/2000/svg" xmlns:xlink="http://www.w3.org/1999/xlink" viewBox="0 0 4096 758.07"><defs><style>.cls-1,.cls-10,.cls-12,.cls-14,.cls-16,.cls-43,.cls-5,.cls-7{fill:none;}.cls-2{fill:url(#linear-gradient);}.cls-3{fill:url(#linear-gradient-2);}.cls-4{fill:#c9f5f2;}.cls-5{stroke:#c9f5f2;}.cls-10,.cls-11,.cls-12,.cls-14,.cls-16,.cls-43,.cls-5,.cls-7{stroke-miterlimit:10;}.cls-6{fill:#00aea0;}.cls-7{stroke:#00aea0;}.cls-8{fill:#fff;}.cls-9{fill:#00506b;}.cls-10{stroke:#00506b;}.cls-10,.cls-16{stroke-width:2px;}.cls-11,.cls-13{fill:#ff927c;}.cls-11,.cls-14{stroke:#ff927c;}.cls-12{stroke:#ef5c8a;stroke-width:0.75px;}.cls-15{fill:#002c51;}.cls-16{stroke:#002c51;}.cls-17{clip-path:url(#clip-path);}.cls-18,.cls-21{fill:#53007a;}.cls-19,.cls-26{fill:#6f0084;}.cls-20{fill:#007585;}.cls-21,.cls-22,.cls-23,.cls-24,.cls-26,.cls-27,.cls-29,.cls-30,.cls-32,.cls-33,.cls-36,.cls-37,.cls-39{opacity:0.25;}.cls-21,.cls-22,.cls-23,.cls-24,.cls-26,.cls-27,.cls-28,.cls-29,.cls-30,.cls-31,.cls-32,.cls-33,.cls-34,.cls-35,.cls-36,.cls-37,.cls-38,.cls-39,.cls-40{isolation:isolate;}.cls-22{fill:url(#linear-gradient-3);}.cls-23{fill:url(#linear-gradient-4);}.cls-24{fill:url(#linear-gradient-5);}.cls-25{fill:#00d6c6;}.cls-27{fill:#a8009c;}.cls-28{opacity:0.2;fill:url(#linear-gradient-6);}.cls-29{fill:url(#linear-gradient-7);}.cls-30{fill:url(#linear-gradient-8);}.cls-31,.cls-34,.cls-35,.cls-38,.cls-40{opacity:0.5;}.cls-31{fill:url(#linear-gradient-9);}.cls-32{fill:url(#linear-gradient-10);}.cls-33{fill:url(#linear-gradient-11);}.cls-34{fill:url(#linear-gradient-12);}.cls-35{fill:url(#linear-gradient-13);}.cls-36{fill:url(#linear-gradient-14);}.cls-37{fill:url(#linear-gradient-15);}.cls-38{fill:url(#linear-gradient-16);}.cls-39{fill:url(#linear-gradient-17);}.cls-40{fill:url(#linear-gradient-18);}.cls-41{fill:url(#linear-gradient-19);}.cls-42{fill:url(#linear-gradient-20);}.cls-43{stroke:#00d6c6;}</style><linearGradient id="linear-gradient" y1="406.48" x2="4096" y2="406.48" gradientTransform="translate(0 -10.22)" gradientUnits="userSpaceOnUse"><stop offset="0" stop-color="#0a253e"/><stop offset="0.36" stop-color="#163847"/><stop offset="1" stop-color="#32645d"/></linearGradient><linearGradient id="linear-gradient-2" y1="406.1" x2="4096" y2="406.1" gradientTransform="translate(0 -10.22)" gradientUnits="userSpaceOnUse"><stop offset="0" stop-color="#fff" stop-opacity="0"/><stop offset="0.44" stop-color="#fbfefe" stop-opacity="0.01"/><stop offset="0.6" stop-color="#eafcfa" stop-opacity="0.04"/><stop offset="0.72" stop-color="#cef7f4" stop-opacity="0.1"/><stop offset="0.81" stop-color="#a6f1eb" stop-opacity="0.17"/><stop offset="0.89" stop-color="#72e8df" stop-opacity="0.28"/><stop offset="0.96" stop-color="#32ded1" stop-opacity="0.4"/><stop offset="1" stop-color="#00d6c6" stop-opacity="0.5"/></linearGradient><clipPath id="clip-path"><path class="cls-1" d="M2696.67,34.45V247.9c-50.47,26.8-96.52,54.91-138.3,81-38.87,24.29-74,46.85-105.65,65-34.54,19.9-66.12,36-95.39,49.18-129.55,58.38-214,58.84-309.85,67V34.49Z"/></clipPath><linearGradient id="linear-gradient-3" x1="2157.59" y1="408.29" x2="2290.94" y2="408.29" gradientTransform="translate(0 -10.22)" gradientUnits="userSpaceOnUse"><stop offset="0" stop-color="#6f0084"/><stop offset="1" stop-color="#00aea0"/></linearGradient><linearGradient id="linear-gradient-4" x1="2260.86" y1="110.88" x2="2429.72" y2="110.88" xlink:href="#linear-gradient-3"/><linearGradient id="linear-gradient-5" x1="2362.21" y1="277.64" x2="2423.77" y2="277.64" xlink:href="#linear-gradient-3"/><linearGradient id="linear-gradient-6" x1="2338.29" y1="397.89" x2="2432.64" y2="397.89" xlink:href="#linear-gradient-3"/><linearGradient id="linear-gradient-7" x1="2321.54" y1="423.49" x2="2400.6" y2="423.49" xlink:href="#linear-gradient-3"/><linearGradient id="linear-gradient-8" x1="2500.65" y1="322.23" x2="2546.45" y2="322.23" gradientTransform="translate(0 -10.22)" gradientUnits="userSpaceOnUse"><stop offset="0" stop-color="#00aea0"/><stop offset="1" stop-color="#b800aa"/></linearGradient><linearGradient id="linear-gradient-9" x1="2142.12" y1="284.62" x2="2300.42" y2="284.62" gradientTransform="translate(0 -10.22)" gradientUnits="userSpaceOnUse"><stop offset="0" stop-color="#b800aa"/><stop offset="1" stop-color="#00aea0"/></linearGradient><linearGradient id="linear-gradient-10" x1="2392.79" y1="226.53" x2="2430.02" y2="226.53" xlink:href="#linear-gradient-9"/><linearGradient id="linear-gradient-11" x1="2468.89" y1="218.81" x2="2473.81" y2="218.81" xlink:href="#linear-gradient-9"/><linearGradient id="linear-gradient-12" x1="2549.54" y1="149.5" x2="2638.29" y2="149.5" xlink:href="#linear-gradient-8"/><linearGradient id="linear-gradient-13" x1="2223.13" y1="187.64" x2="2335.94" y2="187.64" xlink:href="#linear-gradient-9"/><linearGradient id="linear-gradient-14" x1="2414.67" y1="77.05" x2="2433.66" y2="77.05" xlink:href="#linear-gradient-8"/><linearGradient id="linear-gradient-15" x1="2327.79" y1="286.38" x2="2405.07" y2="286.38" xlink:href="#linear-gradient-9"/><linearGradient id="linear-gradient-16" x1="2517.79" y1="272" x2="2538.42" y2="272" gradientTransform="matrix(1, 0.05, -0.05, 1, 16.81, -265.53)" xlink:href="#linear-gradient-8"/><linearGradient id="linear-gradient-17" x1="2515.3" y1="182.8" x2="2627.74" y2="182.8" xlink:href="#linear-gradient-3"/><linearGradient id="linear-gradient-18" x1="2136.82" y1="532.64" x2="2287.32" y2="532.64" gradientTransform="translate(28.51 -305.42) rotate(3.43)" xlink:href="#linear-gradient-9"/><linearGradient id="linear-gradient-19" x1="2450.5" y1="390.01" x2="2468.69" y2="408.19" gradientTransform="translate(0 -10.22)" gradientUnits="userSpaceOnUse"><stop offset="0" stop-color="#010758"/><stop offset="0.6" stop-color="#010758" stop-opacity="0.2"/><stop offset="1" stop-color="#010758" stop-opacity="0"/></linearGradient><linearGradient id="linear-gradient-20" x1="2573.37" y1="575.72" x2="2337.46" y2="233.89" gradientTransform="translate(0 -10.22)" gradientUnits="userSpaceOnUse"><stop offset="0" stop-color="#00d6c6" stop-opacity="0.5"/><stop offset="1" stop-color="#fff" stop-opacity="0"/></linearGradient></defs><title>Layer 1</title><g id="Layer_2" data-name="Layer 2"><g id="Layer_1-2" data-name="Layer 1"><g id="Layer_1-2-2" data-name="Layer 1-2"><path id="h-wave" class="cls-2" d="M0,34.45V757.89s365.72,12.33,800.48-168.35c263.68-109.58,593.41,44.09,800.73,28.56,181-13.57,178.54-64.63,347.77-95.51s266.94,7.5,503.74-128.65c172.6-99.25,451.68-329.24,856.62-257.49S4096,148.63,4096,34.45Z"/><path class="cls-3" d="M0,34.07V757.51s365.72,12.33,800.48-168.34c263.68-109.59,593.41,44.08,800.73,28.55,181-13.56,178.54-64.62,347.77-95.51s266.94,7.51,503.74-128.65c172.6-99.25,451.68-329.24,856.62-257.49S4096,148.26,4096,34.07Z"/><path class="cls-4" d="M2520.33,376.17c1.06-.88,3.08-1.81,3.83-1.05a7.83,7.83,0,0,1,1.63,3.91l-3.82,2Z"/><path class="cls-4" d="M2521.69,381.76l-2-5.77.28-.24c1-.81,3.37-2.09,4.48-1.05a8.29,8.29,0,0,1,1.79,4.3v.32Zm-.77-5.4,1.33,3.93,3-1.61a7.72,7.72,0,0,0-1.44-3.21c-.37-.37-1.81.08-2.89.89Z"/><path class="cls-4" d="M2524.5,377.57c1.25-.75,2.64,3.6-1.09,5.86l-2.15-3.9Z"/><path class="cls-5" d="M2524.5,377.57c1.25-.75,2.64,3.6-1.09,5.86l-2.15-3.9Z"/><ellipse class="cls-4" cx="2514.57" cy="381.65" rx="8.48" ry="8.88"/><ellipse class="cls-5" cx="2514.6" cy="381.72" rx="8.48" ry="8.88"/><path class="cls-4" d="M2523,380.34c1.39,4.19,2.74,10.22-1.91,13-5,3.05-9-1.4-11.74-4.75Z"/><path class="cls-5" d="M2523,380.34c1.39,4.19,2.74,10.22-1.91,13-5,3.05-9-1.4-11.74-4.75Z"/><ellipse class="cls-6" cx="2514.21" cy="381.27" rx="5.37" ry="5.63"/><ellipse class="cls-7" cx="2514.18" cy="381.27" rx="5.37" ry="5.63"/><path class="cls-8" d="M2508.22,421.12,2447.41,458a3.7,3.7,0,0,1-5.18-1.45h0L2419,414.43l67.38-40.86,23.28,42.1a4.1,4.1,0,0,1-1.41,5.44Z"/><path class="cls-8" d="M2492.71,429.6c-3.5,2.09-21.2,12.77-40.54,24.52l-3.65,2.22-.91.56a9.66,9.66,0,0,1-.86.5,2.89,2.89,0,0,1-1.64.25,2.8,2.8,0,0,1-1.51-.69,4.7,4.7,0,0,1-1.08-1.55l-2.12-3.82-8.19-14.75-12.39-22.14.14-.09c3.52-2.17,7.07-4.47,10.54-6.53,12-7.12,23.88-14.18,35.68-21.61,1.79-1.05,4.82-2.85,8.45-5.05l11.49-7,11.22,20,9.84,17.66,1.93,3.4a4,4,0,0,1,.55,3.41,6.29,6.29,0,0,1-1.35,2.18c-.08.14,0,.19.17.12a2.54,2.54,0,0,0,1-.75,4.44,4.44,0,0,0,1.1-2.63,4.33,4.33,0,0,0-.17-1.6,5.24,5.24,0,0,0-.3-.78l-.34-.65c-1.46-2.74-3-5.59-4.58-8.38l-18.64-33.82-56,33.86-12.75,7.72,14.35,25.95,6.23,11.19,1.74,3.15L2441,456l.44.78a4.58,4.58,0,0,0,.57.86,4.34,4.34,0,0,0,5.54,1.12c.54-.31,1-.58,1.45-.88l13.52-8.24,22.77-13.78c6.6-4,13.17-8.16,19.59-12.21a19.59,19.59,0,0,0,3.29-2.53c.11-.13-2.68,1.36-6,3.2s-7.27,4-9.45,5.24Z"/><path class="cls-4" d="M2435,426.5l3.73-2.26a.85.85,0,0,1,1.2.33l2.16,3.91a1,1,0,0,1-.32,1.26l-3.73,2.26a.85.85,0,0,1-1.2-.33l-2.16-3.91A.94.94,0,0,1,2435,426.5Z"/><path class="cls-5" d="M2435,426.5l3.73-2.27a.87.87,0,0,1,1.21.34l2.16,3.91a1,1,0,0,1-.32,1.26l-3.73,2.26a.86.86,0,0,1-1.21-.34l-2.16-3.9A1,1,0,0,1,2435,426.5Z"/><path class="cls-4" d="M2444.08,421l3.73-2.26a.86.86,0,0,1,1.2.34l2.16,3.9a.94.94,0,0,1-.32,1.26l-3.73,2.27a.86.86,0,0,1-1.2-.34l-2.16-3.91A1,1,0,0,1,2444.08,421Z"/><path class="cls-4" d="M2449.14,424.43c-.18.08-.67.35-1.34.75l-1.08.64h-.06l-.09-.15c-.53-.92-1.07-1.87-1.56-2.7l-.63-1.05a.25.25,0,0,1,0-.24v-.09l.22-.17a2.43,2.43,0,0,1,.46-.33c.56-.27,1.13-.54,1.67-.85a8.15,8.15,0,0,0,.8-.49l.39-.27.18-.15.07-.07a.59.59,0,0,1,.27.14l.65,1.05,1,1.65.46.77.19.3a.6.6,0,0,1,.12.32,1.14,1.14,0,0,1,0,.45c-.06.17,0,.61.31.57a.85.85,0,0,0,.6-.46,1.51,1.51,0,0,0-.07-1.4l-1.1-2.09-.55-1.05-.28-.51-.14-.27a1.68,1.68,0,0,0-.3-.4,1.53,1.53,0,0,0-1.9-.24l-1,.58-2,1.16-.84.5a1.8,1.8,0,0,0-.54,2.42l.24.43.48.84,1.24,2.1.31.52a1.67,1.67,0,0,0,.6.55,1.8,1.8,0,0,0,.51.17h.2a1.54,1.54,0,0,0,.52-.09,1.22,1.22,0,0,0,.24-.1l.15-.09.52-.29a10.37,10.37,0,0,0,1-.62,12.23,12.23,0,0,0,1.64-1.33.65.65,0,0,0,.1-.57,3.81,3.81,0,0,0-1.71.16Z"/><path class="cls-4" d="M2453.14,415.5l3.73-2.26a.85.85,0,0,1,1.2.33l2.16,3.91a1,1,0,0,1-.32,1.26l-3.73,2.26a.85.85,0,0,1-1.2-.33l-2.16-3.91A.94.94,0,0,1,2453.14,415.5Z"/><path class="cls-5" d="M2453.15,415.5l3.73-2.26a.86.86,0,0,1,1.2.34l2.16,3.9a.93.93,0,0,1-.32,1.26l-3.73,2.27a.86.86,0,0,1-1.2-.34l-2.16-3.91A1,1,0,0,1,2453.15,415.5Z"/><path class="cls-4" d="M2462.21,410l3.73-2.26a.85.85,0,0,1,1.2.34l2.16,3.9a.94.94,0,0,1-.32,1.26l-3.73,2.27a.86.86,0,0,1-1.2-.34l-2.16-3.91A1,1,0,0,1,2462.21,410Z"/><path class="cls-5" d="M2462.21,410l3.73-2.26a.85.85,0,0,1,1.2.34l2.16,3.9a1,1,0,0,1-.32,1.26l-3.73,2.27a.86.86,0,0,1-1.2-.34l-2.16-3.91A.94.94,0,0,1,2462.21,410Z"/><path class="cls-4" d="M2482.35,409.17l17.16-10.33a.85.85,0,0,1,1.2.34l2.16,3.93a.94.94,0,0,1-.33,1.26l-17.15,10.33a.87.87,0,0,1-1.21-.34l-2.15-3.93A.94.94,0,0,1,2482.35,409.17Z"/><path class="cls-5" d="M2482.35,409.17l17.16-10.33a.85.85,0,0,1,1.2.34l2.16,3.93a.94.94,0,0,1-.33,1.26l-17.15,10.33a.87.87,0,0,1-1.21-.34l-2.15-3.93A.94.94,0,0,1,2482.35,409.17Z"/><path class="cls-4" d="M2435.85,411.93l3.73-2.26a.86.86,0,0,1,1.21.33l2.16,3.91a1,1,0,0,1-.32,1.26l-3.73,2.26a.86.86,0,0,1-1.21-.33l-2.16-3.91A1,1,0,0,1,2435.85,411.93Z"/><path class="cls-5" d="M2435.85,411.92l3.73-2.26a.85.85,0,0,1,1.2.34l2.16,3.9a1,1,0,0,1-.32,1.26l-3.73,2.27a.86.86,0,0,1-1.2-.34l-2.16-3.91A.94.94,0,0,1,2435.85,411.92Z"/><path class="cls-4" d="M2444.92,406.42l3.73-2.27a.86.86,0,0,1,1.2.34l2.16,3.9a.94.94,0,0,1-.32,1.26l-3.73,2.27a.86.86,0,0,1-1.2-.34l-2.16-3.91A.94.94,0,0,1,2444.92,406.42Z"/><path class="cls-5" d="M2444.93,406.42l3.73-2.26a.86.86,0,0,1,1.2.34l2.16,3.9a1,1,0,0,1-.32,1.26l-3.73,2.27a.86.86,0,0,1-1.2-.34l-2.17-3.91A1,1,0,0,1,2444.93,406.42Z"/><path class="cls-4" d="M2426.83,417.41l3.73-2.27a.86.86,0,0,1,1.2.34l2.16,3.91a.94.94,0,0,1-.32,1.26l-3.73,2.26a.85.85,0,0,1-1.2-.34l-2.16-3.9A1,1,0,0,1,2426.83,417.41Z"/><path class="cls-5" d="M2426.82,417.4l3.73-2.26a.86.86,0,0,1,1.2.34l2.16,3.9a1,1,0,0,1-.32,1.26l-3.73,2.27a.86.86,0,0,1-1.2-.34l-2.16-3.91A.93.93,0,0,1,2426.82,417.4Z"/><path class="cls-4" d="M2454,400.91l3.73-2.26a.85.85,0,0,1,1.2.33l2.16,3.91a1,1,0,0,1-.32,1.26l-3.73,2.26a.85.85,0,0,1-1.2-.33l-2.16-3.91A.94.94,0,0,1,2454,400.91Z"/><path class="cls-5" d="M2454,400.91l3.73-2.26a.85.85,0,0,1,1.2.33l2.16,3.91a1,1,0,0,1-.32,1.26l-3.73,2.26a.85.85,0,0,1-1.2-.33l-2.16-3.91A.94.94,0,0,1,2454,400.91Z"/><path class="cls-4" d="M2463.05,395.41l3.73-2.26a.85.85,0,0,1,1.2.34l2.16,3.9a1,1,0,0,1-.32,1.26l-3.73,2.27a.86.86,0,0,1-1.2-.34l-2.16-3.91A.94.94,0,0,1,2463.05,395.41Z"/><path class="cls-5" d="M2463.05,395.4l3.73-2.26a.86.86,0,0,1,1.2.34l2.16,3.9a.94.94,0,0,1-.32,1.26l-3.73,2.27a.86.86,0,0,1-1.2-.34l-2.16-3.91A1,1,0,0,1,2463.05,395.4Z"/><path class="cls-4" d="M2456.15,427.73,2478.86,414a.85.85,0,0,1,1.2.33l3.8,6.86a1,1,0,0,1-.32,1.26l-22.71,13.78a.85.85,0,0,1-1.2-.33l-3.8-6.87A1,1,0,0,1,2456.15,427.73Z"/><path class="cls-5" d="M2456.15,427.73,2478.86,414a.85.85,0,0,1,1.2.33l3.8,6.86a1,1,0,0,1-.32,1.26l-22.71,13.78a.85.85,0,0,1-1.2-.33l-3.8-6.87A1,1,0,0,1,2456.15,427.73Z"/><path class="cls-4" d="M2472.13,389.92l3.73-2.27a.86.86,0,0,1,1.2.34l2.16,3.91a1,1,0,0,1-.32,1.26l-3.73,2.26a.85.85,0,0,1-1.2-.34l-2.16-3.9A.94.94,0,0,1,2472.13,389.92Z"/><path class="cls-5" d="M2472.13,389.94l3.73-2.27a.86.86,0,0,1,1.2.34l2.16,3.91a.94.94,0,0,1-.32,1.26l-3.73,2.26a.86.86,0,0,1-1.2-.34l-2.16-3.9A1,1,0,0,1,2472.13,389.94Z"/><path class="cls-4" d="M2481.2,384.42l3.73-2.26a.86.86,0,0,1,1.2.34l2.16,3.9a1,1,0,0,1-.32,1.26l-3.73,2.27a.86.86,0,0,1-1.2-.34l-2.17-3.91A1,1,0,0,1,2481.2,384.42Z"/><path class="cls-5" d="M2481.19,384.42l3.73-2.27a.86.86,0,0,1,1.2.34l2.16,3.9a.94.94,0,0,1-.32,1.26l-3.73,2.27a.86.86,0,0,1-1.2-.34l-2.16-3.91A.94.94,0,0,1,2481.19,384.42Z"/><path class="cls-9" d="M2536.6,447.05c2.69,4.86,2,22.44,1,27.64s-3.92,11.82-24.17,24.09-27.14,11.52-32,10-18.65-10.18-21.34-15Z"/><path class="cls-10" d="M2536.6,447.05c2.69,4.86,2,22.44,1,27.64s-3.92,11.82-24.17,24.09-27.14,11.52-32,10-18.65-10.18-21.34-15Z"/><path class="cls-11" d="M2525,403.2c-4.36.09-25.51-.9-27.45-1.71s-6.73-4.51-7.72-5.13-3.64-1.9-4.1-2.2a5.38,5.38,0,0,0-2.07-.24c-.64,0-1.8-.12-2,.67a3.64,3.64,0,0,0-.9-.29c-.63,0-1.31.76-1.64,1.32s-.5,1.28-.1,1.69a4.43,4.43,0,0,0-1.49-.2,3.45,3.45,0,0,0-2.2,2.1,2.52,2.52,0,0,0,.22,1.53,10.47,10.47,0,0,0-2-.35,1.05,1.05,0,0,0-.82,1.21h0a1.11,1.11,0,0,0,.27.54c.61.62,4.82,2.47,5.29,2.7l1.05.5c-1.1.32-2,.83-2,1.61-.09,1.17,1.44.8,2.82,1.37s3.6,1.71,5.79,2.43a23.07,23.07,0,0,0,7,.91c1.13-.11,2.48-1.3,4.86-1.1s24.5,4.39,26.06,5.54l14.69,1.58a16.8,16.8,0,0,0-.79-6.9c-2.19-4.7-6-7.69-12.77-7.59Zm-45.46-1.49c-.35-.06-1.8-.44-3.2-.77.43-.31,1-.84,1.3-.82a36,36,0,0,1,4.28,2.09c-.71-.06-1.92-.38-2.41-.46Zm.31-4.19c.28-.14.48-.42.7-.38.4.1,2.41,1.29,3.3,1.72-.85-.18-2.59-.82-4-1.27Z"/><path d="M2525.17,417.1c-.18-.18-.51.21-.35.61,0,.07.16.25.1.22-.21-.1-.5-.21-.22.18-.35-.24-.06.37-.06.39v.21a.72.72,0,0,0,.2.19c.12.1.8.47,1.07.62l.4.23.1.06a.62.62,0,0,0,.33,0s.1,0,.1-.07-.07-.3,0-.27.14.07.12,0a2.49,2.49,0,0,0-.27-.51l-.52-.73c-.17-.17-.88-1.05-1-1.13Z"/><path class="cls-11" d="M2453.23,416.29c-.4,1.12-1.25,5.61-1.58,6.58a56.59,56.59,0,0,0-1.92,5.68,8.86,8.86,0,0,1-2.19,3.73c-1.14,1.26-2.59,6.13-3.13,9.73-.45,3-1.14,17.56-1.57,22.13,2.47.48,9.95,3.79,14.24,5.17l-7.65,16.76c-7-1.95-17.45-8.38-19.92-13.62s.18-17.33,1.06-19.95,8.53-19.51,8.7-21.23-1.19-6.09-1.68-8.09a39.41,39.41,0,0,1-1-6.29,11.8,11.8,0,0,1,1.51-3.33,4.45,4.45,0,0,1,.61-.54,4.82,4.82,0,0,1,2.11-2c.43-.12.8.53.86,1.27a11.87,11.87,0,0,1,.11-1.58c.15-.5,1.69-1.31,2.13-1.46a1.87,1.87,0,0,1,1.6.84c.38.53-.24,1.05-.59,1.15s-.27.75-.17,1.57.45,4.74,1,4,1.28-3.94,1.69-5.41c.35-1.27,1.17-4.38,2-4.24s.9,2.43.51,4.19a52.63,52.63,0,0,0-.7,7.93,21.09,21.09,0,0,1,1.81-2.94c1.1-1.37,2.56-1.11,2.16,0Z"/><path class="cls-12" d="M2441.64,416c0-.59.12-4.33.16-5.7m-2.93,8.3c0-.84-.44-4.79-.16-5.63m42.91-18.75a39.71,39.71,0,0,1,4.77,2.84"/><path class="cls-6" d="M2540,439.22c-1.33,5.24-4,11.88-6.06,17.17s-10.45,19.85-28.38,30.72c-7,4.19-15.56,9.19-23,10.76s-17.44-2.7-20.06-3.14-27.09-15.33-29.4-16.27-2.19-3.93,0-8.38c2.33-4.69,7.93-8.16,10.43-8.23s19.24,4.19,21.78,3.15,5.5-2.51,11.4-4.49c10.67-3.57,26.93-17.33,26.93-17.33,2.12-1.29,6.62-8.38,8-8.84,1.18-.5,4.07-5.43,4.92-6.13a2.48,2.48,0,0,1,.58-.54c.83-.82,3.61-5,4.13-7.16a28.36,28.36,0,0,1,1-3.25c.79-2.82,3.27-4.83,6.48-6.29,6.27-2.87,9.68-1.2,10.85.31s1.7,22.7.4,27.94Z"/><path class="cls-7" d="M2540,439.22c-1.33,5.24-4,11.88-6.06,17.17s-10.45,19.85-28.38,30.72c-7,4.19-15.56,9.19-23,10.76s-17.44-2.7-20.06-3.14-27.09-15.33-29.4-16.27-2.19-3.93,0-8.38c2.33-4.69,7.93-8.16,10.43-8.23s19.24,4.19,21.78,3.15,5.5-2.51,11.4-4.49c10.67-3.57,26.93-17.33,26.93-17.33,2.12-1.29,6.62-8.38,8-8.84,1.18-.5,4.07-5.43,4.92-6.13a2.48,2.48,0,0,1,.58-.54c.83-.82,3.61-5,4.13-7.16a28.36,28.36,0,0,1,1-3.25c.79-2.82,3.27-4.83,6.48-6.29,6.27-2.87,9.68-1.2,10.85.31s1.7,22.7.4,27.94Z"/><path class="cls-12" d="M2481.89,402.27c-.68-.17-1.93-.73-2.39-.8s-3.31-.93-4.71-1.27m9-1.3c-.86-.25-4.38-1.59-5.83-2m43.21,17.62a20.53,20.53,0,0,1,5.2-6.35"/><path class="cls-13" d="M2501.54,434.8c-3.11-2.33-12.2-7.7-22.12-2.24-10.81,6-7.58,23.67-6.7,27.24Z"/><path class="cls-14" d="M2501.54,434.8c-3.11-2.33-12.2-7.7-22.12-2.24-10.81,6-7.58,23.67-6.7,27.24Z"/><path class="cls-13" d="M2482.54,431.48c-1-.48-3.72-2.09-5.36-1s-1.68,4.3-1.76,5.4Z"/><path class="cls-14" d="M2482.54,431.48c-1-.48-3.72-2.09-5.36-1s-1.68,4.3-1.76,5.4Z"/><path class="cls-15" d="M2474,454.36s-1.29-10.77,5.67-16.34,17-7.13,25.27-1.25,6.41,16.69,8.54,21.73,6.44,13.5,1.95,22.35-19.55,9.56-21.37,3-4.64-5.82-8.69-7.19-10.28-7-11.82-11.85c-2.23-7.12.45-10.43.45-10.43Z"/><path class="cls-16" d="M2474,454.36s-1.29-10.77,5.67-16.34,17-7.13,25.27-1.25,6.41,16.69,8.54,21.73,6.44,13.5,1.95,22.35-19.55,9.56-21.37,3-4.64-5.82-8.69-7.19-10.28-7-11.82-11.85c-2.23-7.12.45-10.43.45-10.43Z"/><g class="cls-17"><path class="cls-18" d="M2487.49,73.8V71.71h-6.81V65.1h-1v6.62h-6.81v2.09h6.81v6.61h1V73.81Z"/><path class="cls-19" d="M2251.18,203.55l-4.5-4.64,4.42-4.72-1.43-1.46-4.42,4.71-4.5-4.63-1.4,1.5,4.5,4.63-4.42,4.71,1.42,1.47,4.43-4.71,4.5,4.63Z"/><path class="cls-20" d="M2326.49,296l-3.66-3.4,3.25-3.83-1.5-1.39-3.25,3.83-3.65-3.4-1.33,1.57,3.66,3.39-3.25,3.84,1.49,1.39,3.25-3.83,3.66,3.4Z"/><path class="cls-21" d="M2072.14,460.82c-7.81-9.8-2.11-19.56,3.85-27.94,4.19-5.89,2.29-10-.13-15.25-1.81-3.91-3.85-8.38-3.25-14.05.68-6.52,3.45-8.82,6.13-11,2.85-2.36,5.8-4.8,7.16-12.78,1.24-7.25-.41-11.14-2-14.9-1.9-4.47-3.71-8.69-.75-17.32l1.88.71c-2.68,7.83-1.12,11.53.7,15.72,1.65,3.85,3.51,8.23,2.16,16.12-1.5,8.76-4.9,11.57-7.89,14.06-2.57,2.09-4.79,4-5.38,9.61-.54,5.12,1.29,9.09,3.06,12.92,2.5,5.4,4.85,10.48-.07,17.41-5.75,8.09-10.8,16.76-3.91,25.34Z"/><path class="cls-22" d="M2243.86,485.43c0-97.77,47.08-172.57,47.08-172.57l-33.7-17.9c-20.83-2-28.41,7.15-29.79,29.51-.94,15.23-28,11-35.32,28.29-8.21,19.48,8.76,30-10.93,51.92-17.88,19.9-38.5,66-8.08,96.76,0,0,21.46-3.8,35.37-7.1s35.37-8.91,35.37-8.91Z"/><path class="cls-23" d="M2263.72,155c-12-31.27,16.91-42,28.48-40.35,12.72,1.77,19.26-3.14,18.31-18.38-1.26-20.13,12.95-32.78,33.45-33.53s21.61-2.64,29.94-18.93,26.3-22.87,43.18-27.3l12.64,92.29s-62.47,7.06-145.08,76Z"/><path class="cls-24" d="M2362.45,270.36c-2.45-17.92,14.22-26.86,26.66-18.5,15.29,10.28,7.87-11.79,28.8-9.05l5.86,22.95s-30.77,13.74-46.88,26.51Z"/><path class="cls-21" d="M2103.87,462.91c-5.76-7.16-3.84-19.23,4.47-28.06,6.87-7.34,3.17-13.83-.1-19.6l-.67-1.19c-3.43-6.17-.81-21,10.95-29.33,4-2.85,2.79-6.2,0-12.37-2.6-5.85-5.83-13.12-2.07-21.48l1.81.89c-3.36,7.48-.47,14,2.08,19.7s4.89,11-.74,15c-10.45,7.4-13.43,21-10.34,26.55.21.39.43.78.66,1.18,3.27,5.78,7.76,13.7-.19,22.14-7.58,8.06-9.46,18.86-4.37,25.24Z"/><path class="cls-19" d="M2175.48,223.6l-1.18-17.39,2-.15,1,15.3,14.61-1.05.14,2.09Z"/><path class="cls-25" d="M2335.91,444.26l-11-8,1.14-1.72,9.38,6.8,6.49-9.81,1.64,1.19-7.63,11.52Z"/><path class="cls-21" d="M2208.34,417.56l-8.58-13.12,1.65-1.18,7.45,11.39,10.87-7.81,1.13,1.73-12.52,9Z"/><path class="cls-25" d="M2394.13,338.1A2.93,2.93,0,0,0,2390,337a3.23,3.23,0,0,0-1.08,4.3,2.92,2.92,0,0,0,4.1,1.13,3.19,3.19,0,0,0,1.49-2.75A3.35,3.35,0,0,0,2394.13,338.1Z"/><path class="cls-20" d="M2313.53,367.75a4.22,4.22,0,0,0-5.93-1.58h-.07a4.67,4.67,0,0,0-1.46,6.24,4.36,4.36,0,0,0,2.66,2,4.82,4.82,0,0,0,1,.14,4.44,4.44,0,0,0,4.32-4.57,4.68,4.68,0,0,0-.62-2.32Z"/><path class="cls-9" d="M2321.16,259.88c-.18-.22-.71-.2-1-.07a.79.79,0,0,0,.52-.52,1.45,1.45,0,0,0-.08-.92,3.31,3.31,0,0,0-.95-1.05,6,6,0,0,0-7.11-.06,6.72,6.72,0,0,0-2.6,7.11,5.87,5.87,0,0,0,8.49,3.94,6.27,6.27,0,0,0,1.39-1c.17-.15.34-.32.5-.49a5.86,5.86,0,0,0,1.85-3.61,4.87,4.87,0,0,0-1-3.37ZM2235.48,483a5.68,5.68,0,0,0-8-2.09,6.27,6.27,0,0,0-2,8.38h0A5.52,5.52,0,0,0,2229,492a5.61,5.61,0,0,0,1.29.15,5.9,5.9,0,0,0,3.07-.9,6.16,6.16,0,0,0,2.11-8.19Z"/><path class="cls-26" d="M2307.89,140a5.54,5.54,0,0,0-3.54-2.65,6.08,6.08,0,0,0-6.41,9,5.57,5.57,0,0,0,4.83,2.81,6.08,6.08,0,0,0,5.12-9.12Z"/><path class="cls-18" d="M2215,140.37a5,5,0,0,0-3.22-2.42,5.55,5.55,0,0,0-5.9,8.18,5.09,5.09,0,0,0,4.4,2.56,5.24,5.24,0,0,0,2.81-.83A5.64,5.64,0,0,0,2215,140.37Z"/><path class="cls-9" d="M2499.69,188a6.16,6.16,0,0,0-2.51-3.81,5.36,5.36,0,0,0-7.64,1.59c-.06.08-.11.18-.16.26a6.46,6.46,0,0,0,1.82,8.38,5.28,5.28,0,0,0,3.06,1,5,5,0,0,0,1.22-.15,5.45,5.45,0,0,0,3.52-2.68A6.43,6.43,0,0,0,2499.69,188Zm2.93-46.93a6.27,6.27,0,0,0-2.51-3.81,5.36,5.36,0,0,0-7.65,1.6l-.16.26a6.37,6.37,0,0,0-.68,4.57,5.85,5.85,0,0,0,5.57,4.79,5.57,5.57,0,0,0,1.22-.14,6,6,0,0,0,4.21-7.27Zm135.85,83.27a6.19,6.19,0,0,0-2.5-3.81,5.41,5.41,0,0,0-4.29-.83,6.11,6.11,0,0,0-4.39,7.31,5.83,5.83,0,0,0,7,4.6h0a5.59,5.59,0,0,0,3.52-2.69A6.46,6.46,0,0,0,2638.47,224.31Z"/><path class="cls-18" d="M2649.67,90.58a6.78,6.78,0,0,0-5.13-1,6.46,6.46,0,0,0-4.2,3,7.27,7.27,0,0,0,2.28,9.7,7,7,0,0,0,3.74,1.13,6.48,6.48,0,0,0,5.59-3.14,7.25,7.25,0,0,0-2.24-9.7h0Z"/><path class="cls-9" d="M2170.61,364.44a7.8,7.8,0,0,0-3.29-4.74,6.91,6.91,0,0,0-10,1.49,7.69,7.69,0,0,0,1.42,10.44h0a9.38,9.38,0,0,0,5,1.87,7.16,7.16,0,0,0,7.08-7.25h0a8.14,8.14,0,0,0-.21-1.85Zm238-256.66a6.9,6.9,0,0,0-10,1.49,7.69,7.69,0,0,0,1.42,10.44,9.28,9.28,0,0,0,5,1.85,6.93,6.93,0,0,0,6-3.41,7.81,7.81,0,0,0-2.46-10.37Z"/><path class="cls-18" d="M2162.55,141.42a9.19,9.19,0,0,0-3.87-5.56,8.26,8.26,0,0,0-11.68,2.56,8.83,8.83,0,0,0-1,6.63,9,9,0,0,0,8.57,7,8.18,8.18,0,0,0,7-4A8.9,8.9,0,0,0,2162.55,141.42Zm157.5-58a9,9,0,0,0-8.93-5.11,8.31,8.31,0,0,0-4.91,2.26,9,9,0,0,0-2.43,8.73,9.51,9.51,0,0,0,3,4.85,9,9,0,0,0,2,1.29,7.89,7.89,0,0,0,.91.37,8.14,8.14,0,0,0,5.55.1,7.62,7.62,0,0,0,3.79-3.08,1.26,1.26,0,0,0,.13-1c.07.15.22.17.42,0a2.79,2.79,0,0,0,.69-.93,7,7,0,0,0,.59-2,9.53,9.53,0,0,0-.81-5.52Z"/><path class="cls-20" d="M2359.75,306.68a4.38,4.38,0,0,0-2.67-2.09,4.32,4.32,0,0,0-5.27,3.29,4.56,4.56,0,0,0,3.14,5.52,4.32,4.32,0,0,0,5.27-3.29A4.76,4.76,0,0,0,2359.75,306.68ZM2404,274.6a4.23,4.23,0,0,0-6-1.54,4.67,4.67,0,0,0-1.47,6.24,4.29,4.29,0,0,0,2.67,2.09,3.77,3.77,0,0,0,1,.14,4.43,4.43,0,0,0,4.33-4.55,4.63,4.63,0,0,0-.62-2.34Z"/><path class="cls-25" d="M2487.76,249.64a4.23,4.23,0,0,0-6-1.55,4.68,4.68,0,0,0-1.48,6.24,4.4,4.4,0,0,0,2.68,2.07,4.17,4.17,0,0,0,3.28-.52,4.68,4.68,0,0,0,1.51-6.24h0v0Z"/><path class="cls-4" d="M2501.51,322.94a2.81,2.81,0,0,0-2.09-.67,2.74,2.74,0,0,0-1.93,1.05,3.1,3.1,0,0,0,.32,4.22,2.77,2.77,0,0,0,4-.34,3.1,3.1,0,0,0-.33-4.22l0,0h0Z"/><path class="cls-25" d="M2499,284.94a3.25,3.25,0,0,0-4.7.7,3.63,3.63,0,0,0,.43,4.72,3.25,3.25,0,0,0,2.13.81h.33a3.47,3.47,0,0,0,3-3.83,3.53,3.53,0,0,0-1.22-2.4Z"/><path class="cls-4" d="M2543.34,311.13a1.6,1.6,0,0,0-1.23-.4,1.68,1.68,0,0,0-1.13.64,1.8,1.8,0,0,0,.21,2.46h0a1.65,1.65,0,0,0,2.37-.23,1.81,1.81,0,0,0-.22-2.47Zm-70.92,26.08a1.64,1.64,0,0,0-1.23-.4,1.72,1.72,0,0,0-1.14.64,1.8,1.8,0,0,0,.22,2.46h0a1.62,1.62,0,0,0,2.36-.27,1.82,1.82,0,0,0-.22-2.44Zm-64.27,8.68a1.63,1.63,0,0,0-2.36.3,1.82,1.82,0,0,0,.28,2.47,1.64,1.64,0,0,0,1,.38h.16a1.73,1.73,0,0,0,1.51-1.88h0a1.77,1.77,0,0,0-.6-1.22ZM2480,340.3a1.61,1.61,0,0,0-2.33.27,1.79,1.79,0,0,0,.25,2.44,1.61,1.61,0,0,0,2.33-.26l0,0a1.81,1.81,0,0,0,.35-1.22,1.84,1.84,0,0,0-.63-1.15Zm-28.34-53.43a1.63,1.63,0,0,0-2.37.2,1.83,1.83,0,0,0,.19,2.48l0,0a1.63,1.63,0,0,0,2.36-.31,1.83,1.83,0,0,0-.21-2.4ZM2407,293.32a1.63,1.63,0,0,0-2.36.29,1.82,1.82,0,0,0,.28,2.47,1.64,1.64,0,0,0,1,.38h.16a1.72,1.72,0,0,0,1.51-1.88h0a1.71,1.71,0,0,0-.6-1.22Zm87.46,63.9a1.64,1.64,0,0,0-1.23-.4,1.72,1.72,0,0,0-1.14.64,1.8,1.8,0,0,0,.22,2.46h0a1.62,1.62,0,0,0,1.06.41h.17a1.6,1.6,0,0,0,1.13-.64,1.8,1.8,0,0,0-.21-2.46h0ZM2521,260.74a2.76,2.76,0,0,0-4,.65,3.09,3.09,0,0,0,.36,3.95,2.79,2.79,0,0,0,1.82.69,3,3,0,0,0,2.82-3A3,3,0,0,0,2521,260.74ZM2335.91,379.22a2.78,2.78,0,0,0-2.09-.67,2.91,2.91,0,0,0-2.58,3.17v.07a2.89,2.89,0,0,0,3.17,2.63,3,3,0,0,0,2.53-2.9v-.31a3,3,0,0,0-1-2Z"/><path class="cls-19" d="M2584,82a3.27,3.27,0,0,0-4.74.41,3.64,3.64,0,0,0,.39,5l.07.06a3.25,3.25,0,0,0,2.13.81h.33a3.49,3.49,0,0,0,3.09-3.81A3.62,3.62,0,0,0,2584,81.9Z"/><path class="cls-9" d="M2650.28,178.46a3.32,3.32,0,0,0-2.46-.8,3.48,3.48,0,0,0-3,3.85,3.4,3.4,0,0,0,3.67,3.16h0a3.35,3.35,0,0,0,2.26-1.26,3.63,3.63,0,0,0-.45-4.95Z"/><path class="cls-19" d="M2579.44,66.18a3.27,3.27,0,0,0-4.76.44,3.66,3.66,0,0,0,.42,5,3.28,3.28,0,0,0,4.73-.4l.06-.08A3.63,3.63,0,0,0,2579.44,66.18Z"/><ellipse class="cls-18" cx="2592" cy="41.56" rx="2.36" ry="2.47"/><path class="cls-18" d="M2592,44.56a2.89,2.89,0,0,1-2.84-2.72,3,3,0,0,1,.64-2.16,2.76,2.76,0,0,1,4-.42,3.09,3.09,0,0,1,.41,4.2,2.83,2.83,0,0,1-2.22,1.1Zm0-5h-.18a1.94,1.94,0,0,0-1.68,2.1,2,2,0,0,0,.67,1.32,1.8,1.8,0,0,0,2.62-.19,2,2,0,0,0-.17-2.75A1.81,1.81,0,0,0,2592,39.61Z"/><path class="cls-27" d="M2158.76,311.38a3.25,3.25,0,0,0-4.72.45h0a3.63,3.63,0,0,0,.46,5h0a3.25,3.25,0,0,0,4.72-.46h0a3.63,3.63,0,0,0-.46-4.95Zm33.85-2.53a3.24,3.24,0,0,0-4.71.49,3.62,3.62,0,0,0,.46,4.94,3.25,3.25,0,0,0,4.7-.47,3.63,3.63,0,0,0-.43-4.94Z"/><path class="cls-25" d="M2461.71,229.61a2.76,2.76,0,0,0-4,.29,3.07,3.07,0,0,0,.27,4.21l.17.14a2.68,2.68,0,0,0,1.78.67,2.91,2.91,0,0,0,2.87-3,3,3,0,0,0-1-2.33Z"/><path class="cls-18" d="M2111,487.12a3.26,3.26,0,0,0-4.72.59,3.64,3.64,0,0,0,.56,4.94,3.28,3.28,0,0,0,2,.76h.33a3.49,3.49,0,0,0,3.09-3.81A3.62,3.62,0,0,0,2111,487.12Zm-39.51,18.44a3.25,3.25,0,0,0-4.73.48,3.63,3.63,0,0,0,.46,4.95,3.25,3.25,0,0,0,4.73-.48,3.63,3.63,0,0,0-.46-4.95Zm18.32-30.26a3.25,3.25,0,0,0-4.72.54,3.63,3.63,0,0,0,.44,4.89,3.25,3.25,0,0,0,2.13.81A3.45,3.45,0,0,0,2091,478a3.62,3.62,0,0,0-1.22-2.73Z"/><ellipse class="cls-18" cx="2154.25" cy="287.21" rx="2.36" ry="2.47"/><path class="cls-18" d="M2154.25,290.17a2.79,2.79,0,0,1-1.82-.68,3.13,3.13,0,0,1-.36-4.22,2.75,2.75,0,0,1,4-.15,3.09,3.09,0,0,1,.36,3.94,2.74,2.74,0,0,1-1.93,1.05Zm0-4.94h-.18a1.92,1.92,0,0,0-1.68,2.09,2,2,0,0,0,.67,1.32,1.8,1.8,0,0,0,2.62-.26,2,2,0,0,0-.25-2.74,1.75,1.75,0,0,0-1.17-.41Z"/><ellipse class="cls-18" cx="2130.53" cy="292.25" rx="2.36" ry="2.47"/><path class="cls-18" d="M2130.53,295.3a3,3,0,1,1,2.9-3,3.12,3.12,0,0,1-.69,1.93A2.83,2.83,0,0,1,2130.53,295.3Zm0-4.95h-.18a1.83,1.83,0,0,0-1.26.7,2,2,0,0,0,.18,2.75,1.81,1.81,0,0,0,2.63-.19,2,2,0,0,0-.19-2.75l-.08-.07a1.86,1.86,0,0,0-1.1-.41Z"/><ellipse class="cls-18" cx="2108.87" cy="239.69" rx="2.36" ry="2.47"/><path class="cls-18" d="M2108.87,243.21a3.52,3.52,0,1,1,3.36-3.52,3.6,3.6,0,0,1-.77,2.24A3.31,3.31,0,0,1,2108.87,243.21Zm0-4.94a1.38,1.38,0,0,0-1.4,1.38h0a1.4,1.4,0,0,0,.53,1.17,1.36,1.36,0,0,0,1,.32,1.41,1.41,0,0,0,1.23-1.55,1.45,1.45,0,0,0-.47-1,1.33,1.33,0,0,0-.89-.33Z"/><path class="cls-25" d="M2438.66,310a2.93,2.93,0,0,0-4.12-1.06,3.22,3.22,0,0,0-1,4.31,2.91,2.91,0,0,0,4.11,1.07h0A3.23,3.23,0,0,0,2438.66,310Z"/><path class="cls-27" d="M2324,190.14l-2-.26c.06-.45,1.42-11.17,11.21-15.47a15.93,15.93,0,0,1,10.55-1,14.87,14.87,0,0,0,10.93-1.55c4.73-2.38,6.11-5.46,7.57-8.71,1.56-3.49,3.18-7.09,8.88-9.43,5.93-2.41,9.45-.81,12.56.59,2.6,1.18,4.84,2.2,8.35.79s5.91-4.42,8.47-7.59c3.24-4,6.6-8.2,12.54-9.74,10.74-2.78,18.52,5.32,18.84,5.68l-1.42,1.46c-.07-.07-7.34-7.59-16.94-5.11-5.31,1.38-8.46,5.24-11.49,9.06-2.61,3.24-5.3,6.59-9.28,8.19-4.27,1.72-7.11.43-9.87-.81-3-1.36-5.87-2.66-11-.56s-6.27,5-7.79,8.38-3.14,7-8.51,9.7c-5.68,2.85-9,2.29-12.13,1.73a14.27,14.27,0,0,0-9.45.92c-8.72,3.79-10,13.62-10,13.77Zm10.64,18.65-1.69-1.12c5-8.28,10.64-12.88,24.63-11.82,7.24.54,9.37-3.37,11.85-7.91,2-3.59,4-7.33,8.66-8.93,5.18-1.8,8.71-.61,12.12.52,3.58,1.19,6.95,2.31,12.49.46,3.83-1.28,6.86-4.57,9.8-7.75,5.56-6,11.3-12.25,22.24-5.24l-1,1.79c-9.57-6.13-14.29-1-19.76,4.91-3.11,3.37-6.33,6.85-10.63,8.3-6.15,2.09-10.16.72-13.7-.46-3.26-1-6.33-2.1-10.89-.53-3.94,1.37-5.7,4.58-7.55,8-2.58,4.72-5.25,9.59-13.74,9-13.1-1-18.12,3.06-22.83,10.84Zm263.93,38.32c0-.09-1-8.47-6.43-11.41-2.54-1.38-5.11-.67-8.09.16-3.35.93-7.14,2-11.56.12s-6.44-5.13-8.2-8c-1.56-2.56-2.91-4.78-5.73-5.84-2.2-.83-5.28.2-8.53,1.28-5.55,1.84-11.84,3.93-15.63-2.9-2.76-5-5.65-7.68-8.81-8.17s-6.76,1.23-10.76,5.12l-1.36-1.53c4.53-4.41,8.59-6.28,12.41-5.67s7.16,3.61,10.25,9.2c3,5.38,8,3.71,13.29,1.95,3.59-1.19,7-2.32,9.82-1.25,3.45,1.3,5.12,4,6.74,6.69s3.4,5.56,7.26,7.18,7.11.68,10.3-.2,6.29-1.75,9.52,0c6.36,3.45,7.46,12.64,7.5,13ZM2592,257.58l-2-.26s.48-4.51-2.49-7c-1.92-1.6-4.44-.93-7.63-.09s-7.07,1.86-11.07.4-5.89-4.19-7.72-6.78-3.38-4.83-6.88-5.91c-2.7-.83-6,.66-9.21,2.1-4.7,2.09-10,4.5-13.27-1.37-4.65-8.38-13.1-10.82-21.53-6.18l-.93-1.85c9.46-5.24,18.95-2.47,24.19,7,2.24,4,5.54,2.82,10.75.49,3.52-1.59,7.17-3.23,10.56-2.18,4.15,1.27,6.07,4,7.93,6.67,1.72,2.45,3.35,4.78,6.77,6s6.73.38,9.92-.45c3.43-.9,6.68-1.76,9.37.49,3.86,3.25,3.24,8.69,3.24,8.9Z"/><path class="cls-28" d="M2389.11,428.82l-17.38,2.66s-23.84,3.64-27-17.18,16.87-28.92,3.72-36.87-11.79-20.37-5.7-33.82l77.59,43.31,12.3,17.81Z"/><path class="cls-29" d="M2326.94,414.72c2.53.19,25.93-.07,33.12-.45,1.28-.07,2.58-.27,3.83-.23a95.45,95.45,0,0,0,12.88-.06c2.72.32,13.68-.29,14.48-.3,3.38,0,2.73-.09,6.1-.17a18.22,18.22,0,0,0,2.33-.24c.88-.14,1.14-.82.41-1a6.64,6.64,0,0,0-1.64-.39c-.94-.07-1.92-.07-2.88-.07h-31.43c-4.34,0-8.7,0-13,.08s-13,.35-13,.3c-2.74,0-5.49-.07-8.21,0-2.39.09-4.78.3-7.12.54a1.81,1.81,0,0,0-1.27.77c-.17.22,3.84,1.15,5.4,1.27Z"/><path class="cls-30" d="M2505,346.05c1.63-2.37,15.09-25.3,19-32.47.69-1.29,1.28-2.66,2-3.86a125,125,0,0,0,7.48-12.57c1.85-2.47,7.77-13.47,8.22-14.26,1.93-3.32,1.51-2.7,3.42-6a20.48,20.48,0,0,0,1.17-2.4c.4-.93,0-1.55-.62-1a8.91,8.91,0,0,0-1.28,1.39c-.61.87-1.18,1.83-1.75,2.76l-18.33,30.64c-2.53,4.19-5.07,8.47-7.55,12.76s-7.33,12.86-7.36,12.85c-1.61,2.66-3.27,5.3-4.8,8-1.33,2.38-2.55,4.82-3.72,7.23a2.19,2.19,0,0,0-.12,1.65,32.26,32.26,0,0,0,4.24-4.72Z"/><path class="cls-31" d="M2152.48,236.75c5,3.06,51.82,29.66,66.36,37.58,2.59,1.41,5.28,2.72,7.75,4.19,8.51,5.06,17,10.17,25.75,14.72,5.28,3.41,27.46,15.45,29.07,16.36,6.77,3.83,5.48,3,12.26,6.85,1.58.88,3.22,1.7,4.77,2.46,1.82.88,2.66.59,1.33-.46a31.83,31.83,0,0,0-3.11-2.23c-1.83-1.15-3.8-2.27-5.72-3.38l-62.77-36c-8.68-5-17.38-10-26.1-14.89s-26.17-14.66-26.17-14.66c-5.47-3.15-10.92-6.37-16.41-9.43-4.81-2.67-9.69-5.24-14.48-7.7a6.38,6.38,0,0,0-2.88-.79c-.28.06,7.28,5.48,10.35,7.33Z"/><path class="cls-32" d="M2394.17,152.33c1,4.82,11.93,49,15.57,62.46.65,2.41,1.44,4.81,2,7.17,1.82,8.18,3.58,16.31,6,24.33.94,5.24,6.52,25.79,6.9,27.3,1.6,6.37,1.33,5.12,3,11.52.37,1.48.84,3,1.29,4.35.53,1.62,1.28,2,1.18.52a24.74,24.74,0,0,0-.39-3.2c-.36-1.79-.81-3.65-1.25-5.47L2414,222c-2-8.21-4-16.44-6.06-24.63s-6.27-24.53-6.24-24.55c-1.25-5.17-2.44-10.38-3.77-15.51-1.17-4.51-2.46-9-3.76-13.33a4.8,4.8,0,0,0-1.29-2.21C2392.6,141.55,2393.56,149.35,2394.17,152.33Z"/><path class="cls-33" d="M2468.9,162c-.11,3.46.83,35.47,1.41,45.3.1,1.75.33,3.53.33,5.24,0,5.88-.1,11.74.44,17.62-.24,3.73.66,18.71.7,19.81.15,4.62.18,3.73.35,8.38,0,1,.15,2.1.3,3.14.16,1.21.81,1.54,1,.55a12.31,12.31,0,0,0,.32-2.26v-3.95q-.47-21.5-.95-43c-.14-5.95-.27-11.9-.47-17.81s-.71-17.81-.68-17.81c-.08-3.75-.09-7.51-.25-11.24-.14-3.26-.42-6.53-.72-9.73a2.81,2.81,0,0,0-.77-1.72c-.17-.22-.91,5.24-1,7.43Z"/><path class="cls-34" d="M2556.73,203c3-4.56,29.23-47.82,37.05-61.28,1.39-2.4,2.69-4.91,4.14-7.18,5-7.84,10-15.62,14.5-23.78,3.34-4.83,15.24-25.36,16.14-26.85,3.77-6.28,3-5.07,6.75-11.33.87-1.46,1.69-3,2.44-4.42.88-1.7.63-2.55-.39-1.36a31.07,31.07,0,0,0-2.17,2.82c-1.12,1.69-2.23,3.5-3.32,5.24q-17.74,29-35.47,57.92c-4.91,8-9.83,16-14.67,24.1S2567.28,181,2567.25,181c-3.1,5.05-6.26,10.08-9.27,15.15-2.64,4.46-5.17,9-7.62,13.42a6,6,0,0,0-.82,2.76c.05.3,5.33-6.56,7.19-9.38Z"/><path class="cls-35" d="M2229.89,109c3.44,5.24,36.83,52.72,47.33,67.13,1.87,2.57,3.87,5.1,5.61,7.66,6,8.84,11.89,17.67,18.32,26.19,3.6,5.73,19.62,27.69,20.77,29.33,4.84,6.85,3.94,5.48,8.79,12.31,1.12,1.59,2.34,3.15,3.49,4.6,1.36,1.71,2.25,1.85,1.42.22-.61-1.22-1.28-2.42-2-3.57-1.27-2-2.66-4-4-5.91L2285,183.09c-6.18-8.84-12.35-17.71-18.58-26.49s-18.74-26.31-18.72-26.34c-3.89-5.58-7.73-11.22-11.67-16.76-3.45-4.82-7-9.56-10.51-14.18a7.07,7.07,0,0,0-2.4-2.09c-.34-.14,4.61,8.56,6.74,11.8Z"/><path class="cls-36" d="M2414.85,9.42c.39,4.3,5.87,43.87,7.85,56,.35,2.16.83,4.33,1.07,6.45.81,7.33,1.57,14.57,2.94,21.79.3,4.65,3.32,23.12,3.51,24.48.81,5.71.71,4.59,1.53,10.3.2,1.32.47,2.66.75,3.9.33,1.48,1,1.83,1.11.57a19.23,19.23,0,0,0,0-2.84c-.14-1.59-.36-3.26-.57-4.89Q2429.52,98.57,2426,72c-1-7.33-2-14.73-3-22.08s-3.23-22-3.2-22c-.61-4.63-1.16-9.29-1.85-13.9-.6-4-1.34-8.06-2.1-12a4,4,0,0,0-1-2c-.22-.11-.22,6.76,0,9.43Z"/><path class="cls-37" d="M2332.11,226.66c2.3,3.84,25.14,38.35,32.4,48.78,1.29,1.86,2.71,3.66,3.88,5.54,4,6.45,8,12.91,12.51,19,2.38,4.19,13.46,20.09,14.24,21.28,3.32,5,2.71,4,6,8.93.77,1.16,1.63,2.28,2.45,3.31,1,1.23,1.74,1.23,1.24,0a20.19,20.19,0,0,0-1.28-2.65c-.85-1.43-1.8-2.88-2.73-4.31q-15.2-23.25-30.42-46.49c-4.21-6.45-8.42-12.89-12.69-19.28s-12.87-19.1-12.85-19.12c-2.64-4.06-5.24-8.17-8-12.16-2.37-3.5-4.85-6.92-7.31-10.25a4.09,4.09,0,0,0-1.84-1.43,91.56,91.56,0,0,0,4.4,8.81Z"/><path class="cls-38" d="M2536.82,69.52c-1.05,4.62-9,47.82-11.1,61.16-.38,2.38-.64,4.81-1.12,7.1-1.64,7.9-3.33,15.71-4.43,23.77-1.25,4.94-4.5,25.29-4.77,26.77-1.12,6.28-.85,5-2,11.28-.25,1.44-.43,2.94-.58,4.35-.18,1.64.37,2.26.86,1a25.24,25.24,0,0,0,.93-2.95c.4-1.72.74-3.53,1.08-5.3q5.46-29,10.91-57.95c1.5-8,3-16,4.45-24.09s4.22-24.1,4.26-24.1c1-5,2-10.11,2.85-15.15.76-4.43,1.39-8.88,2-13.24a4.81,4.81,0,0,0-.28-2.49,84.12,84.12,0,0,0-3.06,9.87Z"/><path class="cls-25" d="M2381.72,349.55a2,2,0,0,0-2.94.13h0c-13.43,15.27-18.49,27.66-18.7,28.18a2.24,2.24,0,0,0,1.1,2.86h0a2.19,2.19,0,0,0,.8.16,1.91,1.91,0,0,0,1.08-.31,2.09,2.09,0,0,0,.84-1.05c0-.11,4.94-12.13,17.93-26.91a2.25,2.25,0,0,0-.12-3.08h0Zm40.91-31.65a2,2,0,0,0-2.79-.92h0a157.24,157.24,0,0,0-17.61,11.26,2.25,2.25,0,0,0-.46,3.05,2,2,0,0,0,2.73.6l.13-.09a156.46,156.46,0,0,1,17.14-11,2.13,2.13,0,0,0,1-1.27,2.27,2.27,0,0,0-.12-1.68Zm60.19-17.65c-.5,0-12.46-1.05-30.58,3.69a2.22,2.22,0,0,0-1.17,2.83,2.08,2.08,0,0,0,2.17,1.36c17.47-4.57,29.09-3.58,29.21-3.57a1.91,1.91,0,0,0,1.25-.31,2.23,2.23,0,0,0,.7-3,2.06,2.06,0,0,0-1.59-1Z"/><path class="cls-20" d="M2291.36,422.33a3.39,3.39,0,0,0-4,2.74h0c-3.19,16.47-3.16,27.05-3.15,27.49a3.47,3.47,0,0,0,3.17,3.71,3.43,3.43,0,0,0,3.54-3.32,2.54,2.54,0,0,0,0-.39,152.65,152.65,0,0,1,3-26,3.54,3.54,0,0,0-2.56-4.19Zm56.23-104.92a3.28,3.28,0,0,0-2.39-1.05,3.36,3.36,0,0,0-2.38,1.05,218.26,218.26,0,0,0-26.3,33.92,3.63,3.63,0,0,0,.95,4.89,3.23,3.23,0,0,0,3.61.08,3.35,3.35,0,0,0,1.07-1.05,210.25,210.25,0,0,1,25.45-32.83,3.65,3.65,0,0,0,0-5h0Zm111.94-63a3.35,3.35,0,0,0-4-2.67h0a213.45,213.45,0,0,0-44.3,15.85,3.59,3.59,0,0,0-1.63,4.67h0A3.29,3.29,0,0,0,2414,274h0A207.34,207.34,0,0,1,2457,258.63a3.66,3.66,0,0,0,1-.42,3.59,3.59,0,0,0,1.53-3.77Zm121.74,10.33c-.49-.27-12.41-6.9-32.64-12.13a3.28,3.28,0,0,0-2.55.41,3.46,3.46,0,0,0-1.53,2.18,3.54,3.54,0,0,0,2.47,4.27h0c19.11,4.93,30.59,11.23,31.07,11.52a3.1,3.1,0,0,0,1.59.42,3.28,3.28,0,0,0,1.74-.5,3.44,3.44,0,0,0,1.23-1.36,3.62,3.62,0,0,0-1.35-4.79h0Z"/><path class="cls-9" d="M2271.17,324.21a3.71,3.71,0,0,0-6.88-1.12,339.58,339.58,0,0,0-29.83,67.65,4,4,0,0,0,2.37,5h0a3.58,3.58,0,0,0,3.12-.37,3.92,3.92,0,0,0,1.63-2.15,331.19,331.19,0,0,1,29.12-66,4.1,4.1,0,0,0,.44-3Zm156.67-125.65a3.74,3.74,0,0,0-4.59-2.79h0a255.56,255.56,0,0,0-67.11,29.87,4.06,4.06,0,0,0-1.42,5.4,3.7,3.7,0,0,0,5.16,1.49l.15-.1h0a249,249,0,0,1,65.18-29,4,4,0,0,0,2.67-4.8v-.06ZM2146.37,424.75a4.14,4.14,0,0,0-4.93,3.31h0c-5.13,25-7.39,48.49-6.74,69.77a4.26,4.26,0,0,0,4.16,4.19h.13a3.86,3.86,0,0,0,2-.62,4.41,4.41,0,0,0,2-3.88c-.63-20.56,1.57-43.33,6.55-67.65a4.36,4.36,0,0,0-3.16-5.15Zm97.05-198.09a4,4,0,0,0-5.87.45A451.92,451.92,0,0,0,2199,282.05a4.49,4.49,0,0,0,1.29,6,4,4,0,0,0,4.4,0,4.11,4.11,0,0,0,1.37-1.41,439,439,0,0,1,37.75-53.88,4.51,4.51,0,0,0-.43-6.15h0Zm78.4-69a4.06,4.06,0,0,0-5.71-1.49,307.48,307.48,0,0,0-48.18,38,4.49,4.49,0,0,0-.26,6.15h0a4,4,0,0,0,5.22.79,4.65,4.65,0,0,0,.66-.51,299.2,299.2,0,0,1,46.86-37,4.48,4.48,0,0,0,1.42-6h0Zm369.33-7.81a4.32,4.32,0,0,0-2-2.64,252.66,252.66,0,0,0-44.42-20.53,4.1,4.1,0,0,0-5.28,2.69,4.57,4.57,0,0,0,.21,3.35,4.1,4.1,0,0,0,2.39,2.2,245.25,245.25,0,0,1,43,19.91,4,4,0,0,0,4.21-.07,4.5,4.5,0,0,0,1.89-4.91Zm-108-39.81a4.13,4.13,0,0,0-2.72-1.74,439.71,439.71,0,0,0-70.34-5.48,4.39,4.39,0,0,0,0,8.73h1a429.2,429.2,0,0,1,68,5.37,2.22,2.22,0,0,0,.63,0,4,4,0,0,0,2.16-.62,4.39,4.39,0,0,0,2-3.07,4.49,4.49,0,0,0-.74-3.15Z"/><path class="cls-39" d="M2525.2,137.86c1.4-10.16,25.38-17.53,40.05,1.49s19.23,26.88,38.37,24.76c23-2.57,26.64,16.52,22.8,24.9l-19.89,28.6a107.28,107.28,0,0,0-37.1-20.24c-24.94-7.49-54.13-8.3-54.13-8.3Z"/><path class="cls-9" d="M2572.94,194.48c-.62-.19-15.35-4.67-39-7.34a3.81,3.81,0,0,0-4.15,3.49h0a4.1,4.1,0,0,0,.82,2.9,3.64,3.64,0,0,0,2.53,1.44c23,2.57,37.53,7,37.68,7a3.77,3.77,0,0,0,4.58-2.87,4,4,0,0,0-2.46-4.71Z"/><path class="cls-21" d="M2597.14,195.08l-.57-2,12.65-3.88L2605.5,176l1.92-.59,4.28,15.25-14.56,4.49Z"/><path class="cls-4" d="M2398.81,420.48a2.83,2.83,0,0,0-2.1-.67,3,3,0,0,0-2.57,3.27,2.89,2.89,0,0,0,3.12,2.7,3,3,0,0,0,2.57-3.27h0A3.07,3.07,0,0,0,2398.81,420.48Zm-19.45-5.76a1.63,1.63,0,0,0-2.36.3,1.82,1.82,0,0,0,.28,2.47,1.57,1.57,0,0,0,1,.37h.16a1.58,1.58,0,0,0,1.14-.62A1.86,1.86,0,0,0,2380,416a1.74,1.74,0,0,0-.61-1.23Z"/><path class="cls-40" d="M2140.52,346.15c4.71,1.31,48.73,11.52,62.32,14.34,2.42.51,4.91.89,7.24,1.49,8.05,2.09,16,4.19,24.21,5.69,5,1.53,25.77,5.84,27.28,6.19,6.36,1.45,5.14,1.12,11.5,2.55,1.47.34,3,.59,4.43.81,1.68.25,2.31-.3,1-.86a27,27,0,0,0-3-1.11c-1.74-.49-3.59-.93-5.4-1.36l-59-14c-8.17-1.94-16.35-3.88-24.54-5.74s-24.56-5.49-24.56-5.52c-5.15-1.23-10.3-2.53-15.44-3.67-4.51-1-9-1.84-13.5-2.65a4.68,4.68,0,0,0-2.54.18c-.23.15,7.09,2.85,10,3.67Z"/><path class="cls-41" d="M2503.06,363.57c-17.69,11-34.47,21.24-50.34,30.38q-18.87,10.85-36.59,20.25l6.18-4.08,58.45-35.62Z"/><path class="cls-8" d="M2478.38,354.19c-3.44-7.53-7-15-10.41-22.36a23,23,0,0,0-2.2-3.82c0-.06-.07-.1-.1-.17l.08.08c.12.1.17.06.11-.18a2.24,2.24,0,0,0-.76-1.14,3.11,3.11,0,0,0-2.83-.66,5,5,0,0,0-.76.31l-.63.36-1.28.73c-2.73,1.59-5.57,3.31-8.35,5l-45.35,27.43-11.34,6.89-1.42.86-.71.43-.35.21a3.52,3.52,0,0,0-.42.29,3.79,3.79,0,0,0-1.3,3.84,4.73,4.73,0,0,0,.87,1.77l.93,1.41,1.87,2.82,15,22.54q4.88,7.33,9.76,14.74l24.11-14.67L2480.43,378l6.89-4.19c-3-6.48-6-13.05-8.91-19.58Z"/><path class="cls-42" d="M2548,16.64l-66.36,359.8-58.23,35.34L2053.6,324.46C2114.93,78.61,2375.81-37.38,2548,16.64Z"/><path class="cls-25" d="M2423.38,411.69l-25.18-38.11a1.65,1.65,0,0,1,.38-2.23h0l.1-.07,62-37.62a1.51,1.51,0,0,1,2.11.58h0l.06.12,18.74,42Z"/><path class="cls-43" d="M2423.38,411.69l-25.18-38.11a1.65,1.65,0,0,1,.38-2.23h0l.1-.07,62-37.62a1.51,1.51,0,0,1,2.11.58h0l.06.12,18.74,42Z"/><path class="cls-4" d="M2417.31,371.77l-10.92,6.62a.32.32,0,0,1-.42-.19h0a.36.36,0,0,1,.09-.39l10.92-6.62a.32.32,0,0,1,.44.12h0A.36.36,0,0,1,2417.31,371.77Z"/><path class="cls-4" d="M2415.49,372.47c-.39.2-2.33,1.36-4.44,2.65l-3.11,1.92c-.9.54-2,1.32-1.72,1.1l.28-.19.56-.37a37.71,37.71,0,0,0,3.85-2.31c.86-.41,4.06-2.53,4.3-2.67l1.8-1.13a.18.18,0,0,1,.27,0h0a.14.14,0,0,1,.06.12,1.22,1.22,0,0,1,0,.27c0,.07.08.14.24,0a.56.56,0,0,0,0-.78h0l-.13-.1a.61.61,0,0,0-.46,0l-.28.14-.43.26-9.42,5.63-1,.62a.78.78,0,0,0-.15,1l.06.08a.69.69,0,0,0,.57.22.47.47,0,0,0,.3-.1l.13-.07,1.94-1.18,3.87-2.41c.82-.5,1.65-1,2.46-1.48s1.39-.93,2.06-1.41a.76.76,0,0,0,.27-.43,8.78,8.78,0,0,0-1.85.57Zm39.93-23.75-10.92,6.62a.32.32,0,0,1-.47,0,.37.37,0,0,1,0-.49l0,0a.21.21,0,0,1,.1-.06l10.92-6.63a.32.32,0,0,1,.44.15.34.34,0,0,1-.11.44Z"/><path class="cls-4" d="M2453.6,349.35c-.39.2-2.33,1.36-4.44,2.65l-3.11,1.92c-.9.54-2,1.32-1.72,1.05l.28-.2c.18-.13.37-.24.56-.36a39.61,39.61,0,0,0,3.85-2.31c.86-.41,4.06-2.53,4.3-2.67l1.8-1.15a.19.19,0,0,1,.27,0h0a.2.2,0,0,1,.06.14v.26c0,.07.08.14.24,0a.57.57,0,0,0,0-.79.31.31,0,0,0-.13-.1.72.72,0,0,0-.46,0,2.85,2.85,0,0,0-.28.15l-.43.26-9.42,5.63-1,.6a.81.81,0,0,0-.14,1.05v.06a.69.69,0,0,0,.57.22.75.75,0,0,0,.3-.09l.13-.07,1.94-1.19,3.87-2.42c.82-.48,1.65-.95,2.46-1.46s1.39-.94,2.06-1.42a.68.68,0,0,0,.27-.43,9.48,9.48,0,0,0-1.85.59Z"/><ellipse class="cls-4" cx="2420.72" cy="369.35" rx="0.87" ry="0.91"/><path class="cls-4" d="M2421.22,369.3a.65.65,0,0,1-.28.48.55.55,0,0,1-.67-.1.18.18,0,0,1-.13-.15,3.26,3.26,0,0,1,.14-.6c.07,0,.18-.12.32-.18a.86.86,0,0,1,.32-.05.73.73,0,0,1,.29.15.31.31,0,0,0,.13.06.29.29,0,0,0,.27-.15.28.28,0,0,0,0-.18.62.62,0,0,0-.17-.22,1.19,1.19,0,0,0-1.73.2,1.33,1.33,0,0,0,.2,1.81,1.17,1.17,0,0,0,1.09.24,1.29,1.29,0,0,0,.56-.36,1.15,1.15,0,0,0,.37-.72,1,1,0,0,0-.22-.65.25.25,0,0,0-.24,0,4.64,4.64,0,0,1-.25.42Zm16.11-9.64-5,3a.32.32,0,0,1-.44-.12h0a.36.36,0,0,1,.12-.46h0l5-3a.32.32,0,0,1,.44.13.35.35,0,0,1-.12.46Z"/><path class="cls-4" d="M2436.33,359.83c-.2.08-1.17.66-2.22,1.31l-1.55,1-.34.23s-.08,0-.07.06l.13-.11a1.67,1.67,0,0,1,.28-.18,9.91,9.91,0,0,0,1.92-1.16,18.33,18.33,0,0,0,2.14-1.35l.45-.3c.08-.05.1-.08.21,0a.23.23,0,0,1,0,.2c0,.09,0,.34.18.27a.48.48,0,0,0,.28-.41.64.64,0,0,0-.62-.65h0a.72.72,0,0,0-.32.08l-.15.09-.3.17-.59.36-1.18.69-2.36,1.39-.5.31a.76.76,0,0,0-.24,1l0,0a.41.41,0,0,0,.07.11.77.77,0,0,0,.56.25.64.64,0,0,0,.3-.08l.15-.09.48-.3,1.91-1.23c.42-.24.84-.46,1.24-.72s.68-.5,1-.77a.41.41,0,0,0,.08-.32,2.62,2.62,0,0,0-1,.16Zm-6.83,4.61-5,3a.33.33,0,0,1-.45-.13.34.34,0,0,1,.12-.46h0l5-3a.32.32,0,0,1,.42.2.35.35,0,0,1-.09.39Z"/><path class="cls-4" d="M2428.5,364.55c-.21.1-1.18.67-2.23,1.32l-1.54,1-.35.22a.06.06,0,0,0-.06.06h0l.14-.11a1.27,1.27,0,0,1,.27-.18,10,10,0,0,0,1.93-1.16,18.33,18.33,0,0,0,2.14-1.35l.44-.29c.08,0,.11-.08.21,0a.24.24,0,0,1,.06.2c0,.08,0,.32.18.27a.48.48,0,0,0,.27-.42.63.63,0,0,0-.6-.65h0a.62.62,0,0,0-.32.09l-.15.09-.29.17-.59.34-1.18.71-2.36,1.39-.51.29a.79.79,0,0,0-.21,1.05l.06.08a.74.74,0,0,0,.56.27.8.8,0,0,0,.3-.09l.15-.08.48-.31,1.92-1.22c.41-.24.84-.47,1.23-.74a9.08,9.08,0,0,0,1-.76.39.39,0,0,0,.08-.31,2.81,2.81,0,0,0-1,.13Z"/><ellipse class="cls-4" cx="2440.76" cy="357.19" rx="0.87" ry="0.91"/><path class="cls-4" d="M2441.26,357.1a.71.71,0,0,1-.28.5.57.57,0,0,1-.68-.12s-.12-.07-.12-.13a4.13,4.13,0,0,1,.13-.61,2.68,2.68,0,0,0,.33-.18.55.55,0,0,1,.31,0,.71.71,0,0,1,.29.14.33.33,0,0,0,.13.07.36.36,0,0,0,.28-.15.34.34,0,0,0,0-.2,1.24,1.24,0,0,0-.18-.22,1.19,1.19,0,0,0-1.41-.07,1.32,1.32,0,0,0-.52,1.42,1.17,1.17,0,0,0,1.67.84,1.33,1.33,0,0,0,.38-.29,1.06,1.06,0,0,0,.37-.72,1,1,0,0,0-.22-.65h-.24A2.35,2.35,0,0,1,2441.26,357.1Z"/><path class="cls-5" d="M2463.24,347.2c-1.16.72-1.21-2.92-3.91-1.28,2.7-1.64-.28-3.49.88-4.19m-29.3,57.85c1.17-.7-1.82-2.55.88-4.19-2.7,1.64-2.74-2-3.91-1.29"/><path class="cls-4" d="M2443.92,366.58,2433,373.21a.32.32,0,0,1-.44-.13h0a.36.36,0,0,1,.12-.46h0l10.91-6.62a.32.32,0,0,1,.45.12.34.34,0,0,1-.12.46Z"/><path class="cls-4" d="M2442.1,367.24c-.39.2-2.33,1.37-4.43,2.66l-3.11,1.91c-.91.55-2,1.32-1.73,1.05l.27-.19a4.73,4.73,0,0,1,.56-.35,41.91,41.91,0,0,0,3.85-2.33c.87-.4,4.07-2.53,4.3-2.67l1.81-1.13c.15-.14.3-.07.32.11a1.22,1.22,0,0,1,0,.27c0,.07.09.14.24,0a.56.56,0,0,0,0-.78h0l-.13-.1a.61.61,0,0,0-.46,0l-.28.14-.44.26-9.41,5.63-1,.62a.78.78,0,0,0-.16,1.05.72.72,0,0,0,.64.31.47.47,0,0,0,.3-.1l.12-.07,1.95-1.18,3.86-2.41c.82-.5,1.66-1,2.46-1.48s1.39-.93,2.06-1.41a.68.68,0,0,0,.27-.43,9.27,9.27,0,0,0-1.84.62Zm-5.83,14.9-10.91,6.63a.3.3,0,0,1-.43-.14h0a.34.34,0,0,1,.11-.44l10.92-6.63a.32.32,0,0,1,.44.13.35.35,0,0,1-.12.46Z"/><path class="cls-4" d="M2434.46,382.8c-.39.2-2.34,1.37-4.44,2.66l-3.11,1.92a14.37,14.37,0,0,1-1.72,1.05l.28-.2c.18-.13.37-.24.56-.36a41.81,41.81,0,0,0,3.85-2.32c.86-.4,4.06-2.52,4.3-2.66l1.8-1.15a.19.19,0,0,1,.27,0h0a.16.16,0,0,1,.06.13v.27c0,.07.08.14.24,0a.57.57,0,0,0,0-.79.31.31,0,0,0-.13-.1.61.61,0,0,0-.46,0l-.28.15-.43.25-9.42,5.64-1,.6a.8.8,0,0,0-.16,1.05l.07.08a.7.7,0,0,0,.87.13l.13-.07,1.94-1.2,3.87-2.41c.82-.49,1.65-1,2.46-1.47s1.39-.93,2.06-1.41a.82.82,0,0,0,.27-.43,8.59,8.59,0,0,0-1.85.63Zm-8.61-5.24-5,3a.32.32,0,0,1-.45-.12.34.34,0,0,1,.12-.46h0l5-3a.32.32,0,0,1,.46.09.36.36,0,0,1-.09.48h0Z"/><path class="cls-4" d="M2424.85,377.71c-.21.09-1.18.67-2.23,1.31l-1.54,1-.35.22a.07.07,0,0,0-.06.07h0l.14-.11.27-.19a9.46,9.46,0,0,0,1.93-1.15,18.33,18.33,0,0,0,2.14-1.35l.44-.29c.08-.06.11-.09.21,0a.23.23,0,0,1,.06.2c0,.08,0,.32.18.27a.48.48,0,0,0,.27-.42.63.63,0,0,0-.6-.65h0a.72.72,0,0,0-.32.08l-.15.1-.29.17-.59.34-1.18.7-2.36,1.4-.51.29a.79.79,0,0,0-.21,1.05l.06.08a.73.73,0,0,0,.56.26.64.64,0,0,0,.3-.08l.15-.08.48-.31,1.92-1.22c.41-.25.84-.48,1.23-.74a10.53,10.53,0,0,0,1-.76.4.4,0,0,0,.08-.32,3.06,3.06,0,0,0-1,.14Zm31.24-18.51-5,3.05a.32.32,0,0,1-.43-.14v0a.34.34,0,0,1,.11-.44l5-3a.33.33,0,0,1,.47,0h0a.36.36,0,0,1,0,.48.19.19,0,0,1-.14.11Z"/><path class="cls-4" d="M2455.09,359.37c-.21.08-1.18.66-2.23,1.31l-1.54,1-.35.22a.06.06,0,0,0-.06.06h0l.14-.1a1,1,0,0,1,.27-.19,10.47,10.47,0,0,0,1.93-1.15,18.4,18.4,0,0,0,2.14-1.36l.44-.29c.08-.06.11-.09.21,0a.25.25,0,0,1,.06.2c0,.09,0,.34.18.27a.45.45,0,0,0,.27-.41.64.64,0,0,0-.62-.65.62.62,0,0,0-.32.09l-.15.08-.29.18-.59.35-1.18.69L2451,361l-.51.31a.78.78,0,0,0-.21,1l.06.09a.69.69,0,0,0,.56.25.63.63,0,0,0,.3-.07l.15-.1.48-.29,1.92-1.24c.41-.24.84-.46,1.23-.72a8.16,8.16,0,0,0,1-.78.36.36,0,0,0,.08-.3,2.6,2.6,0,0,0-1,.13Z"/><ellipse class="cls-4" cx="2447.34" cy="364.12" rx="0.87" ry="0.91"/><path class="cls-4" d="M2447.84,364.07a.64.64,0,0,1-.29.48.53.53,0,0,1-.67-.1.18.18,0,0,1-.13-.15,3.26,3.26,0,0,1,.14-.6c.08,0,.18-.12.32-.17a.58.58,0,0,1,.32,0,.61.61,0,0,1,.29.14.33.33,0,0,0,.13.07.31.31,0,0,0,.27-.15.21.21,0,0,0,0-.19.52.52,0,0,0-.17-.22,1.16,1.16,0,0,0-1.41-.07,1.31,1.31,0,0,0-.44,1.75,1.2,1.2,0,0,0,1.59.5,1.49,1.49,0,0,0,.38-.28,1.06,1.06,0,0,0,.37-.73,1,1,0,0,0-.22-.65h-.24a2.86,2.86,0,0,1-.24.42Zm.6,10.7-5,3a.31.31,0,0,1-.44-.11h0a.35.35,0,0,1,.12-.47l5-3a.34.34,0,0,1,.45.13.36.36,0,0,1-.13.47h0Z"/><path class="cls-4" d="M2447.44,374.91c-.2.09-1.17.67-2.22,1.31l-1.55,1-.34.22s-.08,0-.07.07l.13-.1a1.26,1.26,0,0,1,.28-.19,9.18,9.18,0,0,0,1.92-1.16,18.33,18.33,0,0,0,2.14-1.35l.45-.29c.08,0,.1-.08.21,0a.24.24,0,0,1,.05.2c0,.08,0,.32.18.27a.48.48,0,0,0,.28-.42.64.64,0,0,0-.62-.65h0a.62.62,0,0,0-.32.09l-.15.08-.3.18-.59.34-1.18.7-2.36,1.39-.5.3a.77.77,0,0,0-.24,1l0,0a.36.36,0,0,0,.07.1.73.73,0,0,0,.56.26.64.64,0,0,0,.3-.08l.15-.08.48-.3,1.91-1.23c.42-.24.84-.47,1.24-.73a9.18,9.18,0,0,0,1-.77.39.39,0,0,0,.08-.31,2.6,2.6,0,0,0-1,.13Z"/><ellipse class="cls-4" cx="2429.26" cy="375.08" rx="0.87" ry="0.91"/><path class="cls-4" d="M2429.76,375a.59.59,0,0,1-.5.63.58.58,0,0,1-.5-.25s-.13-.09-.13-.15a3.26,3.26,0,0,1,.14-.6c.07,0,.18-.12.32-.19a.86.86,0,0,1,.32,0,.73.73,0,0,1,.29.15l.13.06a.3.3,0,0,0,.27-.14.34.34,0,0,0,0-.2.51.51,0,0,0-.17-.21,1.19,1.19,0,0,0-1.42-.08,1.36,1.36,0,0,0-.52,1.42,1.18,1.18,0,0,0,2.06.55,1.15,1.15,0,0,0,.37-.72,1,1,0,0,0-.22-.66.33.33,0,0,0-.24,0c-.06.14-.13.26-.2.39Z"/><ellipse class="cls-4" cx="2439.69" cy="379.68" rx="0.87" ry="0.91"/><path class="cls-4" d="M2440.19,379.63a.67.67,0,0,1-.28.49.57.57,0,0,1-.68-.12s-.12-.07-.12-.13a3.18,3.18,0,0,1,.14-.61c.07,0,.18-.13.32-.18a.58.58,0,0,1,.32,0,.62.62,0,0,1,.28.14.37.37,0,0,0,.14.07c.05,0,.24-.06.27-.16a.28.28,0,0,0,0-.18.79.79,0,0,0-.18-.22,1.17,1.17,0,0,0-1.41-.08,1.34,1.34,0,0,0-.52,1.43,1.18,1.18,0,0,0,.88.92,1.32,1.32,0,0,0,1.54-1.1.85.85,0,0,0-.22-.65h-.23c-.07,0-.2.34-.25.38Zm20.42-12.25-5,3a.32.32,0,0,1-.47,0,.37.37,0,0,1,0-.49h0a.17.17,0,0,1,.1-.07l5-3a.33.33,0,0,1,.47,0h0a.38.38,0,0,1,0,.49.21.21,0,0,1-.14.1Z"/><path class="cls-4" d="M2459.61,367.58c-.2.09-1.18.67-2.23,1.32l-1.54,1-.35.22a.07.07,0,0,0-.06.07h0l.13-.11.27-.19a9.46,9.46,0,0,0,1.93-1.15,18.33,18.33,0,0,0,2.14-1.35l.45-.29c.07,0,.1-.09.2,0a.23.23,0,0,1,.06.2c0,.08,0,.32.18.27a.46.46,0,0,0,.27-.42.63.63,0,0,0-.6-.65h0a.73.73,0,0,0-.33.08l-.15.1-.29.17-.59.34-1.18.7-2.36,1.4-.51.29a.79.79,0,0,0-.21,1.05l.06.08a.73.73,0,0,0,.56.26.68.68,0,0,0,.31-.08l.14-.08.49-.31,1.91-1.22c.41-.25.84-.47,1.24-.74a10.53,10.53,0,0,0,1-.76.4.4,0,0,0,.08-.32,3.06,3.06,0,0,0-1,.14Z"/><ellipse class="cls-4" cx="2451.86" cy="372.29" rx="0.87" ry="0.91"/><path class="cls-4" d="M2452.36,372.25a.72.72,0,0,1-.28.48.56.56,0,0,1-.68-.11.19.19,0,0,1-.13-.14,3.9,3.9,0,0,1,.14-.59c.08,0,.18-.13.33-.19a.55.55,0,0,1,.31,0,.61.61,0,0,1,.29.14l.13.07a.3.3,0,0,0,.28-.15.23.23,0,0,0,0-.2.72.72,0,0,0-.17-.22,1.17,1.17,0,0,0-1.41-.06,1.34,1.34,0,0,0-.37,1.79,1.21,1.21,0,0,0,.73.55,1.26,1.26,0,0,0,.79-.09,1.29,1.29,0,0,0,.38-.28,1.06,1.06,0,0,0,.37-.73,1,1,0,0,0-.22-.66h-.24a2.59,2.59,0,0,1-.25.39Z"/></g></g></g></g></svg>