<svg xmlns="http://www.w3.org/2000/svg" xmlns:xlink="http://www.w3.org/1999/xlink" viewBox="0 0 1366.88 596.81"><defs><style>.cls-1,.cls-11,.cls-13,.cls-15,.cls-4,.cls-40,.cls-6,.cls-9{fill:none;}.cls-2{stroke:#000;fill:url(#linear-gradient);}.cls-10,.cls-11,.cls-13,.cls-15,.cls-2,.cls-4,.cls-40,.cls-6,.cls-9{stroke-miterlimit:10;}.cls-3{fill:#c9f5f2;}.cls-4{stroke:#c9f5f2;}.cls-5{fill:#00aea0;}.cls-6{stroke:#00aea0;}.cls-7{fill:#fff;}.cls-8{fill:#00506b;}.cls-9{stroke:#00506b;}.cls-15,.cls-9{stroke-width:2px;}.cls-10,.cls-12{fill:#ff927c;}.cls-10,.cls-13{stroke:#ff927c;}.cls-11{stroke:#ef5c8a;stroke-width:0.75px;}.cls-14{fill:#002c51;}.cls-15{stroke:#002c51;}.cls-16{clip-path:url(#clip-path);}.cls-17,.cls-24{fill:#6f0084;}.cls-18{fill:#007585;}.cls-19,.cls-25{fill:#53007a;}.cls-19,.cls-20,.cls-21,.cls-22,.cls-24,.cls-26,.cls-28,.cls-29,.cls-31,.cls-32,.cls-34,.cls-36{opacity:0.25;}.cls-19,.cls-20,.cls-21,.cls-22,.cls-24,.cls-26,.cls-27,.cls-28,.cls-29,.cls-30,.cls-31,.cls-32,.cls-33,.cls-34,.cls-35,.cls-36,.cls-37{isolation:isolate;}.cls-20{fill:url(#linear-gradient-2);}.cls-21{fill:url(#linear-gradient-3);}.cls-22{fill:url(#linear-gradient-4);}.cls-23{fill:#00d6c6;}.cls-26{fill:#a8009c;}.cls-27{opacity:0.2;fill:url(#linear-gradient-5);}.cls-28{fill:url(#linear-gradient-6);}.cls-29{fill:url(#linear-gradient-7);}.cls-30,.cls-33,.cls-35,.cls-37{opacity:0.5;}.cls-30{fill:url(#linear-gradient-8);}.cls-31{fill:url(#linear-gradient-9);}.cls-32{fill:url(#linear-gradient-10);}.cls-33{fill:url(#linear-gradient-11);}.cls-34{fill:url(#linear-gradient-12);}.cls-35{fill:url(#linear-gradient-13);}.cls-36{fill:url(#linear-gradient-14);}.cls-37{fill:url(#linear-gradient-15);}.cls-38{fill:url(#linear-gradient-16);}.cls-39{fill:url(#linear-gradient-17);}.cls-40{stroke:#00d6c6;}</style><linearGradient id="linear-gradient" y1="335.61" x2="1731.06" y2="335.61" gradientUnits="userSpaceOnUse"><stop offset="0.01" stop-color="#0a253e"/><stop offset="0.36" stop-color="#163847"/><stop offset="1" stop-color="#32645d"/></linearGradient><clipPath id="clip-path" transform="translate(0 -37.11)"><path class="cls-1" d="M1223.57,0V203.76c-50.47,25.58-96.52,52.41-138.3,77.33-38.87,23.18-74,44.72-105.65,62.07-34.54,19-66.12,34.37-95.39,46.95-129.55,55.73-214,56.17-309.85,63.93V0"/></clipPath><linearGradient id="linear-gradient-2" x1="690.61" y1="357.33" x2="823.96" y2="357.33" gradientTransform="translate(-6.12 -10.22)" gradientUnits="userSpaceOnUse"><stop offset="0" stop-color="#6f0084"/><stop offset="1" stop-color="#00aea0"/></linearGradient><linearGradient id="linear-gradient-3" x1="793.88" y1="111.56" x2="962.71" y2="111.56" xlink:href="#linear-gradient-2"/><linearGradient id="linear-gradient-4" x1="895.26" y1="232.6" x2="956.82" y2="232.6" xlink:href="#linear-gradient-2"/><linearGradient id="linear-gradient-5" x1="871.31" y1="347.4" x2="965.66" y2="347.4" xlink:href="#linear-gradient-2"/><linearGradient id="linear-gradient-6" x1="854.55" y1="371.83" x2="933.62" y2="371.83" xlink:href="#linear-gradient-2"/><linearGradient id="linear-gradient-7" x1="1033.67" y1="275.18" x2="1079.47" y2="275.18" gradientTransform="translate(-6.12 -10.22)" gradientUnits="userSpaceOnUse"><stop offset="0" stop-color="#00aea0"/><stop offset="1" stop-color="#b800aa"/></linearGradient><linearGradient id="linear-gradient-8" x1="675.14" y1="239.27" x2="833.44" y2="239.27" gradientTransform="translate(-6.12 -10.22)" gradientUnits="userSpaceOnUse"><stop offset="0" stop-color="#b800aa"/><stop offset="1" stop-color="#00aea0"/></linearGradient><linearGradient id="linear-gradient-9" x1="925.81" y1="183.82" x2="963.04" y2="183.82" xlink:href="#linear-gradient-8"/><linearGradient id="linear-gradient-10" x1="1001.91" y1="176.46" x2="1006.83" y2="176.46" xlink:href="#linear-gradient-8"/><linearGradient id="linear-gradient-11" x1="756.15" y1="146.7" x2="868.96" y2="146.7" xlink:href="#linear-gradient-8"/><linearGradient id="linear-gradient-12" x1="860.81" y1="240.95" x2="938.09" y2="240.95" xlink:href="#linear-gradient-8"/><linearGradient id="linear-gradient-13" x1="1042.51" y1="149.98" x2="1062.06" y2="149.98" gradientTransform="matrix(1, 0.05, -0.05, 1, 9.72, -101.27)" xlink:href="#linear-gradient-7"/><linearGradient id="linear-gradient-14" x1="1048.37" y1="142.08" x2="1160.71" y2="142.08" xlink:href="#linear-gradient-2"/><linearGradient id="linear-gradient-15" x1="658.46" y1="366.18" x2="808.87" y2="366.18" gradientTransform="translate(20.17 -99.69) rotate(3.43)" xlink:href="#linear-gradient-8"/><linearGradient id="linear-gradient-16" x1="982.94" y1="338.89" x2="1002.29" y2="358.22" gradientTransform="translate(-6.12 -10.22)" gradientUnits="userSpaceOnUse"><stop offset="0" stop-color="#010758"/><stop offset="0.6" stop-color="#010758" stop-opacity="0.2"/><stop offset="1" stop-color="#010758" stop-opacity="0"/></linearGradient><linearGradient id="linear-gradient-17" x1="967.13" y1="553.11" x2="795.47" y2="304.38" gradientTransform="translate(-6.12 -10.22)" gradientUnits="userSpaceOnUse"><stop offset="0" stop-color="#00d6c6" stop-opacity="0.5"/><stop offset="1" stop-color="#fff" stop-opacity="0"/></linearGradient></defs><title>Layer 1</title><g id="Layer_2" data-name="Layer 2"><g id="Layer_1-2" data-name="Layer 1"><path class="cls-2" d="M0,37.61H1366v141s22-13-270,106c-73.09,29.79-126.76,59.64-169.27,88C814.55,447.45,809.08,488,725.08,519.46c-72.47,27.11-78.42.31-178.08,26.15-134.76,34.95-144.34,89.26-220,83-88-7.28-110.34-83.65-189-81-60.85,2-108.29,49.79-137,86" transform="translate(0 -37.11)"/><g id="Layer_1-2-2" data-name="Layer 1-2"><path class="cls-3" d="M1047.23,326.2c1.06-.84,3.08-1.73,3.83-1a7.27,7.27,0,0,1,1.63,3.73l-3.82,1.95Z" transform="translate(0 -37.11)"/><path class="cls-3" d="M1048.59,331.54l-2-5.51.28-.23c1-.77,3.37-2,4.48-1a7.73,7.73,0,0,1,1.79,4.1v.31Zm-.77-5.16,1.33,3.75,3-1.53a7.18,7.18,0,0,0-1.44-3.07c-.37-.35-1.81.08-2.89.85Z" transform="translate(0 -37.11)"/><path class="cls-3" d="M1051.38,327.54c1.25-.72,2.64,3.43-1.09,5.59l-2.15-3.72Z" transform="translate(0 -37.11)"/><path class="cls-4" d="M1051.38,327.54c1.25-.72,2.64,3.43-1.09,5.59l-2.15-3.72Z" transform="translate(0 -37.11)"/><circle class="cls-3" cx="1041.47" cy="294.32" r="8.48"/><circle class="cls-4" cx="1041.51" cy="294.4" r="8.48"/><path class="cls-3" d="M1049.9,330.18c1.39,4,2.74,9.76-1.91,12.45-5,2.91-9-1.34-11.74-4.54Z" transform="translate(0 -37.11)"/><path class="cls-4" d="M1049.9,330.18c1.39,4,2.74,9.76-1.91,12.45-5,2.91-9-1.34-11.74-4.54Z" transform="translate(0 -37.11)"/><circle class="cls-5" cx="1041.11" cy="293.96" r="5.37"/><circle class="cls-6" cx="1041.08" cy="293.96" r="5.37"/><path class="cls-7" d="M1035.12,369.11l-60.81,35.22a3.79,3.79,0,0,1-5.18-1.38h0L945.9,362.76l67.38-39L1036.56,364A3.8,3.8,0,0,1,1035.12,369.11Z" transform="translate(0 -37.11)"/><path class="cls-7" d="M1019.61,377.2c-3.5,2-21.2,12.19-40.54,23.41l-3.69,2.12-.91.53c-.3.18-.63.37-.86.48A3.07,3.07,0,0,1,972,404a2.91,2.91,0,0,1-1.51-.66,4.52,4.52,0,0,1-1.08-1.48c-.71-1.22-1.42-2.43-2.12-3.65l-8.15-14.08L946.72,363l.14-.09c3.52-2.07,7.07-4.26,10.54-6.23,12-6.8,23.88-13.54,35.68-20.63,1.79-1,4.82-2.72,8.45-4.82l11.49-6.69,11.22,19.11,9.84,16.86,1.93,3.24a3.65,3.65,0,0,1,.55,3.26,6,6,0,0,1-1.35,2.08c-.08.13,0,.18.17.11a2.45,2.45,0,0,0,1-.71,4.14,4.14,0,0,0,1.1-2.51,4,4,0,0,0-.17-1.53,5.21,5.21,0,0,0-.3-.74l-.34-.62c-1.46-2.62-3-5.34-4.58-8l-18.64-32.29-56,32.32-12.75,7.37,14.35,24.77c1.75,3,3.94,6.75,6.23,10.69l1.74,3,.87,1.5.44.75a4.62,4.62,0,0,0,.57.82,4.49,4.49,0,0,0,5.54,1.07c.54-.3,1-.56,1.45-.84l13.49-7.85,22.77-13.15c6.6-3.86,13.17-7.79,19.59-11.66a19.44,19.44,0,0,0,3.29-2.41c.11-.13-2.68,1.29-6,3s-7.27,3.79-9.45,5Z" transform="translate(0 -37.11)"/><rect class="cls-3" x="962.26" y="372.76" width="6.07" height="6.07" rx="0.88" transform="translate(-58.35 497.31) rotate(-30.08)"/><rect class="cls-4" x="962.25" y="372.75" width="6.07" height="6.07" rx="0.88" transform="translate(-58.35 497.31) rotate(-30.08)"/><rect class="cls-3" x="971.33" y="367.49" width="6.07" height="6.07" rx="0.88" transform="translate(-54.49 501.15) rotate(-30.08)"/><path class="cls-3" d="M976,372.27c-.18.07-.67.33-1.34.71l-1.08.61h-.06l-.09-.14c-.53-.88-1.07-1.78-1.56-2.58l-.63-1a.24.24,0,0,1,0-.23v-.08l.22-.17a2.85,2.85,0,0,1,.46-.31c.56-.26,1.13-.52,1.67-.81a8,8,0,0,0,.8-.47l.39-.26.18-.14.07-.07a.54.54,0,0,1,.27.14l.65,1,1,1.57.46.74.19.28a.59.59,0,0,1,.12.31,1,1,0,0,1,0,.43c-.06.16,0,.58.31.54a.85.85,0,0,0,.6-.44,1.37,1.37,0,0,0-.07-1.33l-1.1-2-.55-1-.28-.49-.14-.25a1.85,1.85,0,0,0-.3-.39,1.59,1.59,0,0,0-1.9-.22l-1,.55-2,1.11-.84.47a1.67,1.67,0,0,0-.54,2.31l.24.41.48.81,1.24,2,.31.5a1.59,1.59,0,0,0,.6.52,1.78,1.78,0,0,0,.51.16h.2a1.53,1.53,0,0,0,.52-.08,1.22,1.22,0,0,0,.24-.1l.15-.08.52-.28a10.08,10.08,0,0,0,1-.59,12.6,12.6,0,0,0,1.64-1.27.61.61,0,0,0,.1-.55,4.13,4.13,0,0,0-1.71.16Z" transform="translate(0 -37.11)"/><rect class="cls-3" x="980.39" y="362.25" width="6.07" height="6.07" rx="0.88" transform="translate(-50.64 504.99) rotate(-30.08)"/><rect class="cls-4" x="980.4" y="362.26" width="6.07" height="6.07" rx="0.88" transform="translate(-50.65 504.99) rotate(-30.08)"/><rect class="cls-3" x="989.46" y="356.99" width="6.07" height="6.07" rx="0.88" transform="translate(-46.79 508.82) rotate(-30.08)"/><rect class="cls-4" x="989.46" y="356.98" width="6.07" height="6.07" rx="0.88" transform="translate(-46.78 508.82) rotate(-30.08)"/><rect class="cls-3" x="1008.63" y="352.48" width="21.55" height="6.09" rx="0.88" transform="matrix(0.87, -0.5, 0.5, 0.87, -41.57, 518.19)"/><rect class="cls-4" x="1008.63" y="352.48" width="21.55" height="6.09" rx="0.88" transform="matrix(0.87, -0.5, 0.5, 0.87, -41.57, 518.19)"/><rect class="cls-3" x="963.11" y="358.85" width="6.07" height="6.07" rx="0.88" transform="translate(-51.27 495.86) rotate(-30.08)"/><rect class="cls-4" x="963.1" y="358.84" width="6.07" height="6.07" rx="0.88" transform="translate(-51.26 495.86) rotate(-30.08)"/><rect class="cls-3" x="972.17" y="353.58" width="6.07" height="6.07" rx="0.88" transform="translate(-47.4 499.7) rotate(-30.08)"/><rect class="cls-4" x="972.17" y="353.6" width="6.07" height="6.07" rx="0.88" transform="translate(-47.41 499.7) rotate(-30.08)"/><rect class="cls-3" x="954.08" y="364.08" width="6.07" height="6.07" rx="0.88" transform="translate(-55.1 492.05) rotate(-30.08)"/><rect class="cls-4" x="954.07" y="364.07" width="6.07" height="6.07" rx="0.88" transform="translate(-55.1 492.04) rotate(-30.08)"/><rect class="cls-3" x="981.23" y="348.33" width="6.07" height="6.07" rx="0.88" transform="translate(-43.55 503.53) rotate(-30.08)"/><rect class="cls-4" x="981.23" y="348.33" width="6.07" height="6.07" rx="0.88" transform="translate(-43.55 503.53) rotate(-30.08)"/><rect class="cls-3" x="990.3" y="343.08" width="6.07" height="6.07" rx="0.88" transform="translate(-39.7 507.37) rotate(-30.08)"/><rect class="cls-4" x="990.29" y="343.07" width="6.07" height="6.07" rx="0.88" transform="translate(-39.69 507.37) rotate(-30.08)"/><rect class="cls-3" x="982.74" y="368.22" width="28" height="9.33" rx="0.88" transform="translate(-52.66 512.68) rotate(-30.08)"/><rect class="cls-4" x="982.74" y="368.22" width="28" height="9.33" rx="0.88" transform="translate(-52.66 512.68) rotate(-30.08)"/><rect class="cls-3" x="999.38" y="337.84" width="6.07" height="6.07" rx="0.88" transform="translate(-35.85 511.22) rotate(-30.08)"/><rect class="cls-4" x="999.38" y="337.85" width="6.07" height="6.07" rx="0.88" transform="translate(-35.85 511.22) rotate(-30.08)"/><rect class="cls-3" x="1008.44" y="332.59" width="6.07" height="6.07" rx="0.88" transform="translate(-32 515.05) rotate(-30.08)"/><rect class="cls-4" x="1008.44" y="332.59" width="6.07" height="6.07" rx="0.88" transform="translate(-32 515.05) rotate(-30.08)"/><path class="cls-8" d="M1063.5,393.86c2.69,4.64,2,21.42,1,26.38s-3.92,11.29-24.17,23-27.14,11-32,9.52S989.68,443,987,438.4Z" transform="translate(0 -37.11)"/><path class="cls-9" d="M1063.5,393.86c2.69,4.64,2,21.42,1,26.38s-3.92,11.29-24.17,23-27.14,11-32,9.52S989.68,443,987,438.4Z" transform="translate(0 -37.11)"/><path class="cls-10" d="M1051.9,352c-4.36.09-25.51-.86-27.45-1.63s-6.73-4.31-7.72-4.9-3.64-1.81-4.1-2.1a5.79,5.79,0,0,0-2.07-.23c-.64,0-1.8-.11-2,.64a3.59,3.59,0,0,0-.9-.27c-.63,0-1.31.72-1.64,1.26s-.5,1.22-.1,1.61a4.43,4.43,0,0,0-1.49-.19,3.37,3.37,0,0,0-2.2,2,2.3,2.3,0,0,0,.22,1.46,11.28,11.28,0,0,0-2-.33,1,1,0,0,0-.82,1.15h0a1,1,0,0,0,.27.52c.61.59,4.82,2.36,5.29,2.58l1,.47c-1.1.31-2,.8-2,1.54-.09,1.12,1.44.76,2.82,1.31s3.6,1.63,5.79,2.32a24.35,24.35,0,0,0,7,.87c1.13-.11,2.48-1.24,4.86-1s24.5,4.19,26.06,5.29l14.69,1.5a15.33,15.33,0,0,0-.79-6.58c-2.19-4.49-6-7.34-12.77-7.25Zm-45.46-1.42c-.35-.06-1.8-.42-3.2-.74.43-.29,1-.8,1.3-.78a35.43,35.43,0,0,1,4.28,2c-.71-.06-1.92-.37-2.41-.44Zm.31-4c.28-.13.48-.4.7-.36.4.09,2.41,1.23,3.3,1.64-.85-.17-2.59-.78-4-1.21Z" transform="translate(0 -37.11)"/><path d="M1052.07,365.27c-.18-.17-.51.2-.35.58,0,.07.16.24.1.21s-.5-.2-.22.17c-.35-.22-.06.36-.06.38v.2a.7.7,0,0,0,.2.18c.12.09.8.45,1.07.59l.4.22.1.06a.62.62,0,0,0,.33,0s.1,0,.1-.07-.07-.29,0-.26.14.07.12,0a3.72,3.72,0,0,0-.27-.48l-.52-.7c-.17-.16-.88-1-1-1.08Z" transform="translate(0 -37.11)"/><path class="cls-10" d="M980.13,364.5c-.4,1.07-1.25,5.35-1.58,6.28a52.05,52.05,0,0,0-1.92,5.42,8.39,8.39,0,0,1-2.19,3.56c-1.14,1.2-2.59,5.85-3.13,9.29-.45,2.82-1.14,16.76-1.57,21.12,2.47.46,10,3.62,14.24,4.94l-7.6,16c-7-1.86-17.45-8-19.92-13s.18-16.55,1.06-19.05,8.53-18.62,8.7-20.26-1.19-5.82-1.68-7.73a34.8,34.8,0,0,1-1-6,11.06,11.06,0,0,1,1.51-3.18,4.23,4.23,0,0,1,.61-.51,4.67,4.67,0,0,1,2.11-1.92c.43-.12.8.5.86,1.21a10.84,10.84,0,0,1,.11-1.51c.15-.48,1.69-1.25,2.13-1.39a1.88,1.88,0,0,1,1.6.8c.38.51-.24,1-.59,1.1s-.27.71-.17,1.5.45,4.52,1,3.81,1.28-3.76,1.69-5.16c.35-1.21,1.17-4.18,2-4.05s.9,2.32.51,4a48,48,0,0,0-.7,7.57,19.68,19.68,0,0,1,1.81-2.8c1.1-1.31,2.56-1.06,2.16,0Z" transform="translate(0 -37.11)"/><path class="cls-11" d="M968.54,364.21c0-.56.12-4.13.16-5.44m-2.93,7.92c0-.8-.44-4.57-.16-5.37m42.91-17.9a41.52,41.52,0,0,1,4.77,2.71" transform="translate(0 -37.11)"/><path class="cls-5" d="M1066.9,386.39c-1.33,5-4,11.34-6.06,16.39s-10.46,18.94-28.38,29.33c-7,4-15.56,8.77-23,10.27s-17.44-2.58-20.06-3-27.09-14.63-29.4-15.53-2.19-3.75,0-8c2.33-4.47,7.93-7.79,10.43-7.85s19.24,4,21.78,3,5.5-2.39,11.4-4.28c10.67-3.41,26.93-16.54,26.93-16.54,2.12-1.24,6.62-8,8-8.44,1.18-.48,4.07-5.19,4.92-5.85a2.4,2.4,0,0,1,.58-.52c.83-.78,3.61-4.77,4.13-6.83a26.18,26.18,0,0,1,1-3.11c.79-2.69,3.27-4.61,6.48-6,6.27-2.74,9.68-1.15,10.85.29s1.7,21.67.4,26.68Z" transform="translate(0 -37.11)"/><path class="cls-6" d="M1066.9,386.39c-1.33,5-4,11.34-6.06,16.39s-10.46,18.94-28.38,29.33c-7,4-15.56,8.77-23,10.27s-17.44-2.58-20.06-3-27.09-14.63-29.4-15.53-2.19-3.75,0-8c2.33-4.47,7.93-7.79,10.43-7.85s19.24,4,21.78,3,5.5-2.39,11.4-4.28c10.67-3.41,26.93-16.54,26.93-16.54,2.12-1.24,6.62-8,8-8.44,1.18-.48,4.07-5.19,4.92-5.85a2.4,2.4,0,0,1,.58-.52c.83-.78,3.61-4.77,4.13-6.83a26.18,26.18,0,0,1,1-3.11c.79-2.69,3.27-4.61,6.48-6,6.27-2.74,9.68-1.15,10.85.29s1.7,21.67.4,26.68Z" transform="translate(0 -37.11)"/><path class="cls-11" d="M1008.79,351.11c-.68-.16-1.93-.69-2.39-.76s-3.31-.89-4.71-1.21m9-1.24c-.86-.24-4.38-1.52-5.83-1.95m43.21,16.82a19.78,19.78,0,0,1,5.2-6.06" transform="translate(0 -37.11)"/><path class="cls-12" d="M1028.44,382.17c-3.11-2.23-12.2-7.35-22.12-2.14-10.81,5.7-7.58,22.59-6.7,26Z" transform="translate(0 -37.11)"/><path class="cls-13" d="M1028.44,382.17c-3.11-2.23-12.2-7.35-22.12-2.14-10.81,5.7-7.58,22.59-6.7,26Z" transform="translate(0 -37.11)"/><path class="cls-12" d="M1009.44,379c-1-.46-3.72-2-5.36-1s-1.68,4.11-1.76,5.16Z" transform="translate(0 -37.11)"/><path class="cls-13" d="M1009.44,379c-1-.46-3.72-2-5.36-1s-1.68,4.11-1.76,5.16Z" transform="translate(0 -37.11)"/><path class="cls-14" d="M1000.9,400.84s-1.29-10.28,5.67-15.6,17-6.81,25.27-1.19,6.41,15.93,8.54,20.74,6.44,12.89,2,21.32-19.55,9.13-21.37,2.85-4.64-5.56-8.69-6.86-10.28-6.65-11.82-11.32c-2.23-6.79.45-9.95.45-9.95Z" transform="translate(0 -37.11)"/><path class="cls-15" d="M1000.9,400.84s-1.29-10.28,5.67-15.6,17-6.81,25.27-1.19,6.41,15.93,8.54,20.74,6.44,12.89,2,21.32-19.55,9.13-21.37,2.85-4.64-5.56-8.69-6.86-10.28-6.65-11.82-11.32c-2.23-6.79.45-9.95.45-9.95Z" transform="translate(0 -37.11)"/><g class="cls-16"><path class="cls-17" d="M778.08,161.42l-4.5-4.43,4.42-4.5-1.43-1.4-4.42,4.5-4.5-4.42-1.4,1.43,4.5,4.42-4.42,4.5,1.42,1.4,4.43-4.5,4.5,4.42Z" transform="translate(0 -37.11)"/><path class="cls-18" d="M853.38,249.69l-3.66-3.24,3.25-3.66-1.5-1.33-3.24,3.65-3.65-3.25-1.33,1.5,3.66,3.24-3.25,3.66,1.49,1.33,3.25-3.66,3.66,3.25Z" transform="translate(0 -37.11)"/><path class="cls-19" d="M599,407c-7.81-9.35-2.11-18.67,3.85-26.67,4.19-5.62,2.29-9.56-.13-14.55-1.81-3.74-3.85-8-3.25-13.42.68-6.22,3.45-8.41,6.13-10.53,2.85-2.26,5.8-4.59,7.16-12.2,1.24-6.92-.41-10.64-2-14.23-1.9-4.26-3.71-8.29-.75-16.53l1.88.68c-2.68,7.47-1.12,11,.7,15,1.65,3.68,3.51,7.86,2.16,15.39-1.5,8.36-4.9,11.05-7.89,13.42-2.57,2-4.79,3.79-5.38,9.18-.54,4.88,1.29,8.67,3.06,12.33,2.5,5.15,4.85,10-.07,16.62-5.75,7.72-10.8,16-3.91,24.19Z" transform="translate(0 -37.11)"/><path class="cls-20" d="M770.76,430.5c0-93.33,47.08-164.73,47.08-164.73l-33.7-17.09c-20.83-1.87-28.41,6.82-29.79,28.17-.94,14.54-28,10.54-35.32,27-8.21,18.6,8.76,28.62-10.93,49.56-17.88,19-38.5,63-8.08,92.37,0,0,21.46-3.63,35.37-6.78s35.37-8.5,35.37-8.5Z" transform="translate(0 -37.11)"/><path class="cls-21" d="M956.59,71.07s-62.47,6.74-145.08,72.51l-20.89-28.47c-12-29.85,16.91-40.06,28.48-38.52,12.72,1.72,19.28-3,18.28-17.48" transform="translate(0 -37.11)"/><path class="cls-22" d="M889.38,225.2c-2.45-17.11,14.22-25.64,26.66-17.66,15.29,9.81,7.87-11.26,28.8-8.64l5.86,21.91s-30.8,13.11-46.88,25.28Z" transform="translate(0 -37.11)"/><path class="cls-19" d="M630.77,409c-5.76-6.84-3.84-18.36,4.47-26.79,6.87-7,3.17-13.2-.1-18.71l-.67-1.13c-3.43-5.89-.81-20.06,11-28,4-2.72,2.79-5.92,0-11.81-2.6-5.58-5.83-12.52-2.07-20.5l1.81.85c-3.36,7.14-.47,13.34,2.08,18.8s4.89,10.51-.74,14.32c-10.5,7.08-13.48,20.08-10.39,25.35.21.37.43.74.66,1.12,3.27,5.52,7.76,13.08-.19,21.14-7.58,7.69-9.46,18-4.37,24.09Z" transform="translate(0 -37.11)"/><path class="cls-17" d="M702.38,180.56,701.2,164l2-.14,1,14.6,14.61-1,.14,2Z" transform="translate(0 -37.11)"/><path class="cls-23" d="M862.81,391.2l-11-7.63,1.14-1.64,9.38,6.49,6.49-9.37,1.64,1.14-7.63,11Z" transform="translate(0 -37.11)"/><path class="cls-19" d="M735.24,365.71l-8.58-12.52,1.65-1.13,7.45,10.87,10.87-7.45,1.13,1.65-12.52,8.58Z" transform="translate(0 -37.11)"/><path class="cls-23" d="M921,289.86a3,3,0,1,0,.41,1.48A3.08,3.08,0,0,0,921,289.86Z" transform="translate(0 -37.11)"/><path class="cls-18" d="M840.43,318.16a4.33,4.33,0,0,0-5.93-1.51h-.07a4.34,4.34,0,0,0,1.2,7.92,4.81,4.81,0,0,0,1,.13,4.34,4.34,0,0,0,3.7-6.58Z" transform="translate(0 -37.11)"/><path class="cls-8" d="M848.06,215.19c-.18-.21-.71-.19-1-.06a.79.79,0,0,0,.52-.5,1.34,1.34,0,0,0-.08-.88,3.24,3.24,0,0,0-1-1,6.25,6.25,0,0,0-7.11-.06,6.44,6.44,0,0,0-2.37,2.94,6.12,6.12,0,0,0-.23,3.85,5.93,5.93,0,0,0,4.59,4.3,6.33,6.33,0,0,0,3.9-.54,6.1,6.1,0,0,0,1.39-.92c.17-.14.34-.3.5-.46a5.54,5.54,0,0,0,1.85-3.45,4.52,4.52,0,0,0-1-3.22ZM762.38,428.11a5.83,5.83,0,0,0-10,6h0a5.48,5.48,0,0,0,3.54,2.54,5.6,5.6,0,0,0,1.29.14,6,6,0,0,0,3.07-.86,5.72,5.72,0,0,0,2.11-7.81Z" transform="translate(0 -37.11)"/><path class="cls-24" d="M834.79,100.76a5.5,5.5,0,0,0-3.54-2.53,6,6,0,0,0-7,4.24,5.51,5.51,0,0,0,.59,4.31,5.6,5.6,0,0,0,4.83,2.68,6,6,0,0,0,5.71-4.35,5.55,5.55,0,0,0-.63-4.32Z" transform="translate(0 -37.11)"/><path class="cls-25" d="M741.9,101.11a5,5,0,0,0-3.22-2.31,5.45,5.45,0,0,0-6.44,3.88,5,5,0,0,0,.54,3.93,5.1,5.1,0,0,0,4.4,2.44,5.38,5.38,0,0,0,2.81-.79A5.24,5.24,0,0,0,741.9,101.11Z" transform="translate(0 -37.11)"/><path class="cls-8" d="M1026.59,146.55a5.88,5.88,0,0,0-2.51-3.64,5.51,5.51,0,0,0-7.64,1.52c-.06.08-.11.17-.16.25a6,6,0,0,0,1.82,8,5.46,5.46,0,0,0,3.06.93,5,5,0,0,0,1.22-.14,5.44,5.44,0,0,0,3.52-2.56A5.89,5.89,0,0,0,1026.59,146.55Zm2.93-44.8a6,6,0,0,0-2.51-3.64,5.52,5.52,0,0,0-7.65,1.53l-.16.25a5.84,5.84,0,0,0-.68,4.36,5.76,5.76,0,0,0,5.57,4.57,5.56,5.56,0,0,0,1.22-.13,5.74,5.74,0,0,0,4.21-6.94Zm135.86,79.49a5.9,5.9,0,0,0-2.5-3.64,5.59,5.59,0,0,0-4.29-.79,5.83,5.83,0,1,0,2.59,11.37,5.55,5.55,0,0,0,3.52-2.57A5.91,5.91,0,0,0,1165.38,181.24Z" transform="translate(0 -37.11)"/><path class="cls-8" d="M697.51,315a7.45,7.45,0,0,0-3.29-4.52,7.12,7.12,0,1,0-8.55,11.39h0a9.61,9.61,0,0,0,5,1.78,7,7,0,0,0,7.08-6.92h0a7.52,7.52,0,0,0-.21-1.77Zm238-245A7.12,7.12,0,1,0,927,81.39h0a9.6,9.6,0,0,0,5,1.77,7,7,0,0,0,6-3.26A7.26,7.26,0,0,0,935.5,70Z" transform="translate(0 -37.11)"/><path class="cls-18" d="M886.65,259.87a4.39,4.39,0,0,0-2.67-2,4.34,4.34,0,1,0,2.67,2Zm44.25-30.63a4.34,4.34,0,1,0-7.43,4.49,4.29,4.29,0,0,0,2.67,2,4.22,4.22,0,0,0,1,.13,4.33,4.33,0,0,0,4.33-4.35,4.29,4.29,0,0,0-.62-2.23Z" transform="translate(0 -37.11)"/><path class="cls-23" d="M1014.66,205.42a4.34,4.34,0,1,0-4.76,6.45,4.29,4.29,0,0,0,3.28-.5,4.34,4.34,0,0,0,1.51-6h0v0Z" transform="translate(0 -37.11)"/><path class="cls-3" d="M1028.38,275.39a2.87,2.87,0,0,0-2.09-.64,2.8,2.8,0,0,0-1.93,1,2.86,2.86,0,1,0,4-.32l0,0h0Z" transform="translate(0 -37.11)"/><path class="cls-23" d="M1025.9,239.11a3.36,3.36,0,0,0-4.27,5.18,3.32,3.32,0,0,0,2.13.77h.33a3.36,3.36,0,0,0,1.81-5.94h0Z" transform="translate(0 -37.11)"/><path class="cls-3" d="M1070.24,264.11a1.67,1.67,0,0,0-1.23-.38,1.72,1.72,0,0,0-1.13.61,1.67,1.67,0,0,0,.21,2.35h0a1.67,1.67,0,0,0,1.07.38,1.64,1.64,0,0,0,1.3-.6,1.68,1.68,0,0,0-.22-2.36ZM999.32,289a1.71,1.71,0,0,0-1.23-.38,1.77,1.77,0,0,0-1.14.61,1.67,1.67,0,0,0,.22,2.35h0a1.68,1.68,0,0,0,2.14-2.59Zm-64.27,8.29a1.68,1.68,0,1,0-1.07,3h.16a1.66,1.66,0,0,0,1.51-1.79h0a1.66,1.66,0,0,0-.6-1.17ZM1006.9,292a1.66,1.66,0,1,0,.25,2.33l0,0a1.67,1.67,0,0,0,.35-1.16,1.72,1.72,0,0,0-.63-1.1Zm-28.34-51a1.68,1.68,0,1,0-2.17,2.56l0,0a1.68,1.68,0,0,0,2.15-2.58Zm-44.66,6.15a1.68,1.68,0,1,0-1.07,3H933a1.66,1.66,0,0,0,1.51-1.79h0a1.62,1.62,0,0,0-.6-1.17Zm87.48,61a1.67,1.67,0,0,0-2.35.21l0,0a1.67,1.67,0,0,0,.22,2.35h0a1.65,1.65,0,0,0,1.06.39h.17a1.64,1.64,0,0,0,1.13-.61,1.67,1.67,0,0,0-.2-2.35Zm26.54-92.1a2.85,2.85,0,0,0-3.62,4.39,2.81,2.81,0,0,0,1.82.66,2.86,2.86,0,0,0,1.8-5.05ZM862.81,329.11a2.87,2.87,0,0,0-2.09-.64,2.81,2.81,0,0,0-2.58,3v.06a2.86,2.86,0,0,0,5.7-.25V331a2.83,2.83,0,0,0-1-1.9Z" transform="translate(0 -37.11)"/><path class="cls-8" d="M1177.18,137.47a3.42,3.42,0,0,0-2.46-.76,3.36,3.36,0,0,0,.65,6.69,3.4,3.4,0,0,0,2.26-1.2,3.36,3.36,0,0,0-.45-4.73Z" transform="translate(0 -37.11)"/><path class="cls-26" d="M685.66,264.35a3.35,3.35,0,0,0-4.72.44h0a3.36,3.36,0,0,0,.46,4.73h0a3.36,3.36,0,0,0,4.72-.44h0a3.36,3.36,0,0,0-.46-4.73Zm33.85-2.41a3.35,3.35,0,1,0,.45,4.73A3.35,3.35,0,0,0,719.51,261.94Z" transform="translate(0 -37.11)"/><path class="cls-23" d="M988.61,186.3a2.85,2.85,0,1,0-3.75,4.29l.17.14a2.81,2.81,0,0,0,1.78.64,2.85,2.85,0,0,0,2.87-2.85,2.82,2.82,0,0,0-1-2.22Z" transform="translate(0 -37.11)"/><path class="cls-25" d="M637.9,432.11a3.36,3.36,0,1,0-2.15,6h.33a3.37,3.37,0,0,0,1.82-6Zm-39.52,17.58a3.36,3.36,0,1,0,.46,4.73,3.36,3.36,0,0,0-.46-4.73Zm18.33-28.88a3.36,3.36,0,0,0-4.28,5.18,3.32,3.32,0,0,0,2.13.77,3.36,3.36,0,0,0,2.15-5.95Z" transform="translate(0 -37.11)"/><circle class="cls-25" cx="681.15" cy="204.17" r="2.36"/><path class="cls-25" d="M681.15,244.11a2.88,2.88,0,0,1-1.82-.65,2.84,2.84,0,0,1-1-1.94,2.79,2.79,0,0,1,.64-2.09,2.87,2.87,0,1,1,4.41,3.68,2.8,2.8,0,0,1-1.93,1Zm0-4.72H681a1.87,1.87,0,0,0-1.68,2,1.9,1.9,0,0,0,.67,1.26,1.87,1.87,0,0,0,2.42-2.84h0a1.83,1.83,0,0,0-1.17-.39Z" transform="translate(0 -37.11)"/><circle class="cls-25" cx="657.43" cy="208.98" r="2.36"/><path class="cls-25" d="M657.43,249a2.87,2.87,0,1,1,2.21-1A2.88,2.88,0,0,1,657.43,249Zm0-4.72h-.18A1.84,1.84,0,0,0,656,245a1.86,1.86,0,1,0,2.62-.18l-.08-.07a1.91,1.91,0,0,0-1.1-.39Z" transform="translate(0 -37.11)"/><circle class="cls-25" cx="635.77" cy="158.81" r="2.36"/><path class="cls-25" d="M635.77,199.28a3.36,3.36,0,1,1,2.61-1.17A3.36,3.36,0,0,1,635.77,199.28Zm0-4.72a1.36,1.36,0,0,0-1.4,1.32h0a1.32,1.32,0,0,0,.53,1.12,1.39,1.39,0,0,0,1,.3,1.36,1.36,0,0,0,.76-2.39,1.39,1.39,0,0,0-.89-.32Z" transform="translate(0 -37.11)"/><path class="cls-23" d="M965.56,263a3,3,0,1,0-1,4.12h0A3,3,0,0,0,965.56,263Z" transform="translate(0 -37.11)"/><path class="cls-26" d="M850.9,148.62l-2-.25c.06-.43,1.42-10.66,11.21-14.76a16.57,16.57,0,0,1,10.55-1,15.45,15.45,0,0,0,10.93-1.5c4.73-2.27,6.11-5.21,7.57-8.31,1.56-3.33,3.18-6.77,8.88-9,5.93-2.3,9.45-.78,12.56.56,2.6,1.13,4.84,2.1,8.35.75s5.91-4.21,8.47-7.24C930.66,104,934,100,940,98.57c10.74-2.65,18.52,5.08,18.84,5.42l-1.42,1.42c-.07-.07-7.34-7.25-16.94-4.88-5.31,1.32-8.46,5-11.49,8.65-2.61,3.09-5.3,6.29-9.28,7.82-4.27,1.64-7.11.41-9.87-.78-3-1.3-5.87-2.54-11-.53s-6.27,4.72-7.79,8-3.14,6.68-8.51,9.26c-5.68,2.72-9,2.18-12.13,1.65a14.83,14.83,0,0,0-9.45.88c-8.72,3.61-10,13-10,13.14Zm10.64,17.8-1.69-1.07c5-7.9,10.64-12.29,24.63-11.28,7.24.52,9.37-3.22,11.85-7.55,2-3.43,4-7,8.66-8.52,5.18-1.72,8.71-.59,12.12.49,3.58,1.14,6.95,2.21,12.49.44,3.83-1.22,6.86-4.36,9.8-7.4,5.56-5.75,11.3-11.69,22.24-5l-1,1.71c-9.57-5.85-14.29-1-19.76,4.69-3.11,3.21-6.33,6.54-10.63,7.92-6.15,2-10.16.69-13.7-.44-3.26-1-6.33-2-10.89-.5-3.94,1.3-5.7,4.37-7.55,7.61-2.58,4.51-5.25,9.16-13.74,8.56-13.1-1-18.12,2.92-22.83,10.34ZM1125.47,203c0-.08-1-8.08-6.43-10.89-2.54-1.32-5.11-.64-8.09.15-3.35.89-7.14,1.89-11.56.12s-6.44-4.9-8.2-7.65c-1.56-2.44-2.91-4.56-5.73-5.57-2.2-.79-5.28.19-8.53,1.22-5.55,1.73-11.84,3.73-15.63-2.77-2.76-4.77-5.65-7.33-8.81-7.8s-6.76,1.18-10.76,4.89l-1.35-1.46c4.53-4.21,8.59-6,12.41-5.41s7.16,3.44,10.25,8.78c3,5.13,8,3.54,13.29,1.86,3.59-1.14,7-2.21,9.82-1.19,3.45,1.24,5.12,3.85,6.74,6.38s3.4,5.31,7.26,6.86,7.11.65,10.3-.19,6.29-1.67,9.52,0c6.36,3.29,7.46,12.06,7.5,12.43Zm-6.57,10-2-.25s.48-4.31-2.52-6.64c-1.92-1.53-4.44-.89-7.63-.09s-7.07,1.78-11.07.38-5.89-4-7.72-6.47-3.38-4.61-6.88-5.64c-2.7-.79-6,.63-9.21,2-4.7,2-10,4.3-13.27-1.3-4.65-8-13.1-10.33-21.53-5.9l-.93-1.77c9.46-5,18.95-2.36,24.19,6.67,2.24,3.87,5.54,2.7,10.75.47,3.52-1.52,7.17-3.08,10.56-2.08,4.15,1.21,6.07,3.83,7.93,6.37,1.72,2.34,3.35,4.56,6.77,5.76s6.73.37,9.92-.43c3.43-.86,6.68-1.68,9.37.47,3.86,3.1,3.24,8.3,3.24,8.5Z" transform="translate(0 -37.11)"/><path class="cls-27" d="M916,376.46,898.63,379s-23.84,3.47-27-16.4,16.87-27.61,3.72-35.2-11.79-19.44-5.7-32.28l77.59,41.34,12.3,17Z" transform="translate(0 -37.11)"/><path class="cls-28" d="M853.84,363c2.53.18,25.93-.07,33.12-.43,1.28-.07,2.58-.26,3.83-.22a98.85,98.85,0,0,0,12.88-.06c2.72.31,13.68-.27,14.48-.28,3.38,0,2.73-.09,6.1-.17a16.56,16.56,0,0,0,2.33-.23c.88-.13,1.14-.78.41-1a7.09,7.09,0,0,0-1.64-.37c-.94-.07-1.92-.07-2.88-.07H891c-4.34,0-8.7,0-13,.08s-13,.33-13,.29c-2.74,0-5.49-.07-8.21,0-2.39.08-4.78.28-7.12.51a1.84,1.84,0,0,0-1.27.74c-.17.21,3.84,1.09,5.4,1.21Z" transform="translate(0 -37.11)"/><path class="cls-29" d="M1031.9,297.45c1.63-2.26,15.09-24.15,19-31,.69-1.23,1.28-2.54,2-3.68a119,119,0,0,0,7.48-12c1.85-2.36,7.77-12.86,8.22-13.61,1.93-3.17,1.51-2.58,3.42-5.76a19.74,19.74,0,0,0,1.17-2.29c.4-.89,0-1.48-.62-.93a9,9,0,0,0-1.28,1.33c-.61.83-1.18,1.75-1.75,2.64l-18.33,29.24c-2.53,4-5.07,8.09-7.55,12.18s-7.33,12.28-7.36,12.27c-1.61,2.54-3.27,5.06-4.8,7.64-1.33,2.27-2.55,4.6-3.72,6.9a2,2,0,0,0-.12,1.57,31.13,31.13,0,0,0,4.24-4.5Z" transform="translate(0 -37.11)"/><path class="cls-30" d="M679.38,193.11c5,2.92,51.82,28.32,66.36,35.88,2.59,1.34,5.28,2.59,7.75,4,8.51,4.83,17,9.7,25.75,14,5.28,3.25,27.46,14.75,29.07,15.61,6.77,3.66,5.48,2.9,12.26,6.54,1.58.84,3.22,1.63,4.77,2.35,1.82.84,2.66.56,1.33-.44a32.77,32.77,0,0,0-3.11-2.13c-1.83-1.09-3.8-2.16-5.72-3.22q-31.38-17.19-62.77-34.37c-8.68-4.75-17.38-9.52-26.1-14.21s-26.17-14-26.17-14c-5.47-3-10.92-6.08-16.41-9-4.81-2.55-9.69-5-14.48-7.35a6.73,6.73,0,0,0-2.88-.75c-.28.06,7.28,5.23,10.35,7Z" transform="translate(0 -37.11)"/><path class="cls-31" d="M921.07,112.53c1,4.6,11.93,46.74,15.57,59.62.65,2.3,1.44,4.59,2,6.85,1.82,7.8,3.58,15.56,6,23.22.94,5,6.52,24.62,6.9,26.06,1.6,6.08,1.33,4.89,3,11,.37,1.41.84,2.83,1.29,4.15.53,1.55,1.28,1.86,1.18.5a22.46,22.46,0,0,0-.39-3.06c-.36-1.71-.81-3.48-1.25-5.22L940.92,179c-2-7.84-4-15.7-6.06-23.52s-6.27-23.41-6.24-23.43c-1.24-4.94-2.44-9.94-3.77-14.81-1.17-4.3-2.46-8.56-3.76-12.72a4.54,4.54,0,0,0-1.29-2.11C919.5,102.24,920.46,109.68,921.07,112.53Z" transform="translate(0 -37.11)"/><path class="cls-32" d="M995.8,121.76c-.11,3.3.83,33.86,1.41,43.24.1,1.67.33,3.37.33,5,0,5.62-.1,11.21.44,16.82-.24,3.56.66,17.86.7,18.91.15,4.41.18,3.56.35,8,.05,1,.15,2,.3,3,.16,1.15.81,1.47,1,.52a11,11,0,0,0,.32-2.15v-3.77q-.46-20.52-.95-41c-.14-5.68-.27-11.36-.47-17s-.71-17-.68-17c-.08-3.58-.09-7.17-.25-10.73-.14-3.12-.42-6.24-.72-9.29a2.63,2.63,0,0,0-.77-1.64c-.17-.21-.91,5-1,7.09Z" transform="translate(0 -37.11)"/><path class="cls-33" d="M756.79,71.2c3.44,5,36.83,50.32,47.33,64.08,1.87,2.45,3.87,4.86,5.61,7.31,6,8.44,11.89,16.87,18.32,25,3.6,5.47,19.62,26.43,20.77,28,4.84,6.53,3.94,5.23,8.79,11.75,1.12,1.51,2.34,3,3.49,4.39,1.36,1.63,2.25,1.76,1.42.21-.61-1.17-1.28-2.31-2-3.41-1.27-1.86-2.66-3.77-4-5.64l-44.59-61c-6.18-8.44-12.35-16.9-18.58-25.29s-18.74-25.11-18.72-25.14c-3.89-5.33-7.73-10.71-11.67-16-3.45-4.6-7-9.12-10.51-13.53a7,7,0,0,0-2.4-2c-.34-.13,4.61,8.17,6.74,11.27Z" transform="translate(0 -37.11)"/><path class="cls-34" d="M859,183.48c2.3,3.67,25.14,36.61,32.4,46.57,1.29,1.77,2.71,3.49,3.88,5.28,4,6.16,8,12.33,12.51,18.18,2.38,4,13.46,19.18,14.24,20.31,3.32,4.75,2.71,3.79,6,8.53.77,1.1,1.63,2.17,2.45,3.16,1,1.17,1.74,1.17,1.24,0a18.76,18.76,0,0,0-1.28-2.53c-.85-1.37-1.8-2.75-2.73-4.12q-15.19-22.19-30.42-44.38c-4.21-6.15-8.42-12.3-12.69-18.4s-12.87-18.23-12.85-18.25c-2.64-3.88-5.24-7.8-8-11.61-2.37-3.34-4.85-6.6-7.31-9.78a4,4,0,0,0-1.84-1.37,86.15,86.15,0,0,0,4.4,8.41Z" transform="translate(0 -37.11)"/><path class="cls-35" d="M1052.62,91.86c-.38,2.27-.64,4.59-1.12,6.78-1.64,7.54-3.33,15-4.43,22.69-1.25,4.72-4.5,24.14-4.77,25.55-1.12,6-.85,4.81-2,10.77-.25,1.38-.43,2.81-.58,4.15-.18,1.57.37,2.16.86.93a23.26,23.26,0,0,0,.93-2.82c.4-1.64.74-3.37,1.08-5.06q5.46-27.66,10.91-55.31c1.5-7.66,3-15.32,4.45-23s4.22-23,4.26-23c1-4.82,2-9.65,2.85-14.47" transform="translate(0 -37.11)"/><path class="cls-23" d="M908.62,300.79a2.08,2.08,0,0,0-2.94.12h0c-13.43,14.58-18.49,26.41-18.7,26.9a2.1,2.1,0,0,0,1.1,2.73h0a2.19,2.19,0,0,0,.8.16,2.07,2.07,0,0,0,1.08-.3,2,2,0,0,0,.84-1c.05-.11,4.94-11.58,17.93-25.69a2.08,2.08,0,0,0-.12-2.94h0Zm40.91-30.21a2.07,2.07,0,0,0-2.79-.88h0a159,159,0,0,0-17.61,10.75,2.08,2.08,0,0,0,2.27,3.48l.13-.08a157.92,157.92,0,0,1,17.14-10.47,2,2,0,0,0,1-1.21,2.12,2.12,0,0,0-.12-1.6Zm60.19-16.85c-.5,0-12.46-1-30.58,3.52a2.08,2.08,0,0,0,1,4c17.47-4.36,29.09-3.42,29.21-3.41a2,2,0,0,0,1.25-.29,2.08,2.08,0,0,0-.89-3.85Z" transform="translate(0 -37.11)"/><path class="cls-18" d="M818.26,370.26a3.38,3.38,0,0,0-4,2.62h0c-3.19,15.72-3.16,25.82-3.15,26.24a3.36,3.36,0,1,0,6.71.37,2.28,2.28,0,0,0,0-.37,139.43,139.43,0,0,1,3-24.85,3.39,3.39,0,0,0-2.56-4Zm56.23-100.15a3.31,3.31,0,0,0-2.39-1,3.43,3.43,0,0,0-2.38,1,209.94,209.94,0,0,0-26.34,32.37,3.37,3.37,0,0,0,4.56,4.74,3.3,3.3,0,0,0,1.07-1,202.17,202.17,0,0,1,25.45-31.34,3.36,3.36,0,0,0,0-4.75h0ZM986.43,210a3.34,3.34,0,0,0-4-2.55h0a220.2,220.2,0,0,0-44.3,15.13,3.36,3.36,0,0,0-1.63,4.46h0a3.35,3.35,0,0,0,4.44,1.65h0A213.57,213.57,0,0,1,983.9,214a3.61,3.61,0,0,0,1-.4,3.36,3.36,0,0,0,1.53-3.6Zm121.74,9.86c-.49-.26-12.41-6.59-32.64-11.58a3.4,3.4,0,0,0-2.55.39,3.33,3.33,0,0,0-1.53,2.08,3.37,3.37,0,0,0,2.47,4.08h0c19.11,4.71,30.59,10.72,31.07,11a3.26,3.26,0,0,0,1.59.4,3.36,3.36,0,0,0,1.74-.48,3.27,3.27,0,0,0,1.23-1.3,3.37,3.37,0,0,0-1.35-4.57h0Z" transform="translate(0 -37.11)"/><path class="cls-8" d="M798.07,276.6a3.77,3.77,0,0,0-6.88-1.07,316.67,316.67,0,0,0-29.81,64.58,3.76,3.76,0,0,0,2.37,4.74h0a3.64,3.64,0,0,0,1.18.19,3.69,3.69,0,0,0,1.94-.54,3.77,3.77,0,0,0,1.63-2.05,309,309,0,0,1,29.12-63,3.75,3.75,0,0,0,.44-2.85ZM954.74,156.66a3.75,3.75,0,0,0-4.59-2.66h0A261.85,261.85,0,0,0,883,182.52a3.78,3.78,0,1,0,3.74,6.57l.15-.09h0a255.08,255.08,0,0,1,65.18-27.7,3.75,3.75,0,0,0,2.67-4.58v-.06ZM673.27,372.57a4.14,4.14,0,0,0-4.89,3.16h0c-5.13,23.89-7.39,46.29-6.74,66.6a4.16,4.16,0,0,0,4.16,4h.13a4,4,0,0,0,2-.59,4.16,4.16,0,0,0,2-3.7c-.63-19.63,1.57-41.36,6.55-64.58a4.16,4.16,0,0,0-3.16-4.92Zm97.05-189.09a4.16,4.16,0,0,0-5.87.43,431.72,431.72,0,0,0-38.55,52.45,4.16,4.16,0,0,0,5.69,5.77,4,4,0,0,0,1.37-1.35,419.33,419.33,0,0,1,37.75-51.43,4.16,4.16,0,0,0-.43-5.87h0Zm78.4-65.83a4.17,4.17,0,0,0-5.71-1.42,306.29,306.29,0,0,0-48.18,36.3,4.16,4.16,0,0,0-.26,5.88h0a4.17,4.17,0,0,0,5.22.76,4.51,4.51,0,0,0,.66-.49,298.32,298.32,0,0,1,46.86-35.31,4.15,4.15,0,0,0,1.42-5.69v0Zm369.33-7.45a4.16,4.16,0,0,0-2-2.52,258.92,258.92,0,0,0-44.42-19.57,4.15,4.15,0,0,0-5.07,5.77A4.06,4.06,0,0,0,1169,96a251,251,0,0,1,43,19,4.17,4.17,0,0,0,4.21-.06,4.22,4.22,0,0,0,1.89-4.69Z" transform="translate(0 -37.11)"/><path class="cls-36" d="M1052.1,98.72c1.4-9.7,25.38-16.74,40,1.42s19.23,25.66,38.37,23.63c23-2.45,26.64,15.77,22.8,23.77l-19.89,27.3a109.21,109.21,0,0,0-37-19.32c-24.94-7.15-54.13-7.92-54.13-7.92Z" transform="translate(0 -37.11)"/><path class="cls-8" d="M1099.84,152.76c-.62-.18-15.35-4.45-39-7a3.76,3.76,0,0,0-4.15,3.33h0a3.79,3.79,0,0,0,.82,2.77,3.71,3.71,0,0,0,2.53,1.37c23,2.45,37.53,6.65,37.68,6.7a3.77,3.77,0,0,0,2.12-7.23Z" transform="translate(0 -37.11)"/><path class="cls-19" d="M1124,153.34l-.57-1.92,12.65-3.71-3.74-12.6,1.92-.56,4.3,14.56L1124,153.39Z" transform="translate(0 -37.11)"/><path class="cls-3" d="M925.71,368.5a2.9,2.9,0,0,0-2.1-.64,2.86,2.86,0,1,0,3.12,2.57h0A2.86,2.86,0,0,0,925.71,368.5ZM906.26,363a1.68,1.68,0,1,0-1.07,3h.19a1.59,1.59,0,0,0,1.14-.6,1.71,1.71,0,0,0,.38-1.23,1.63,1.63,0,0,0-.61-1.17Z" transform="translate(0 -37.11)"/><path class="cls-37" d="M667.38,297.54c4.71,1.25,48.73,11,62.32,13.69,2.42.49,4.91.85,7.24,1.42,8,2,16,4,24.21,5.44,5,1.46,25.77,5.57,27.28,5.9,6.36,1.39,5.14,1.07,11.5,2.44,1.47.32,3,.56,4.43.77,1.68.24,2.31-.28,1-.82a26.71,26.71,0,0,0-3-1.06c-1.74-.47-3.59-.89-5.4-1.3l-59-13.37c-8.17-1.85-16.35-3.7-24.54-5.48s-24.56-5.24-24.56-5.27c-5.15-1.17-10.3-2.41-15.44-3.5-4.51-.94-9-1.76-13.5-2.53a4.87,4.87,0,0,0-2.54.17c-.23.14,7.09,2.72,10,3.5Z" transform="translate(0 -37.11)"/><path class="cls-38" d="M1030,314.17c-17.69,10.51-34.47,20.28-50.34,29Q960.75,353.52,943,362.5l6.18-3.89,58.45-34Z" transform="translate(0 -37.11)"/><path class="cls-7" d="M1005.28,305.22c-3.44-7.19-7-14.35-10.41-21.35a21.76,21.76,0,0,0-2.2-3.64c0-.06-.07-.1-.1-.16l.08.07c.12.1.17.06.11-.17a2.15,2.15,0,0,0-.76-1.09,3.24,3.24,0,0,0-2.83-.63,5,5,0,0,0-.76.3l-.63.34-1.28.7c-2.73,1.52-5.57,3.16-8.35,4.76L932.8,310.54l-11.34,6.57-1.42.82-.71.41-.35.2c-.13.08-.29.18-.42.28a3.53,3.53,0,0,0-1.3,3.67,4.46,4.46,0,0,0,.87,1.69l.93,1.34,1.87,2.69,15,21.52q4.88,7,9.76,14.07l24.11-14,37.53-21.87,6.89-4c-3-6.19-6-12.46-8.91-18.69Z" transform="translate(0 -37.11)"/><path class="cls-39" d="M1008.54,326.46l-58.23,33.73L580.5,276.84" transform="translate(0 -37.11)"/><path class="cls-23" d="M950.28,360.11,925.1,323.73a1.53,1.53,0,0,1,.38-2.13h0l.1-.07,62-35.91a1.55,1.55,0,0,1,2.11.55h0l.06.12,18.74,40.09Z" transform="translate(0 -37.11)"/><path class="cls-40" d="M950.28,360.11,925.1,323.73a1.53,1.53,0,0,1,.38-2.13h0l.1-.07,62-35.91a1.55,1.55,0,0,1,2.11.55h0l.06.12,18.74,40.09Z" transform="translate(0 -37.11)"/><path class="cls-3" d="M944.21,322l-10.92,6.32a.32.32,0,0,1-.42-.18h0a.32.32,0,0,1,.09-.37l10.92-6.32a.32.32,0,0,1,.44.11h0A.34.34,0,0,1,944.21,322Z" transform="translate(0 -37.11)"/><path class="cls-3" d="M942.38,322.67c-.39.19-2.33,1.3-4.44,2.53L934.83,327c-.9.52-2,1.26-1.72,1.05l.28-.18.56-.35a38.69,38.69,0,0,0,3.85-2.21c.86-.39,4.06-2.41,4.3-2.55l1.8-1.08a.19.19,0,0,1,.27,0h0a.14.14,0,0,1,.06.12,1.13,1.13,0,0,1,0,.26c0,.06.08.13.24,0a.53.53,0,0,0,0-.75h0a.38.38,0,0,0-.13-.09.61.61,0,0,0-.46,0c-.18.07-.18.09-.28.13l-.43.25L933.75,327l-1,.59a.73.73,0,0,0-.15,1l.06.07a.72.72,0,0,0,.57.21.53.53,0,0,0,.3-.09l.13-.07,1.94-1.13,3.87-2.3c.82-.47,1.65-.92,2.46-1.41s1.39-.89,2.06-1.35a.68.68,0,0,0,.27-.41,9.35,9.35,0,0,0-1.85.55ZM982.31,300l-10.93,6.32a.33.33,0,1,1-.45-.48l0,0a.21.21,0,0,1,.1-.06L982,299.43a.33.33,0,0,1,.44.15.32.32,0,0,1-.11.42Z" transform="translate(0 -37.11)"/><path class="cls-3" d="M980.5,300.6c-.39.19-2.33,1.3-4.44,2.53L973,305c-.9.52-2,1.26-1.72,1l.28-.19c.18-.12.37-.23.56-.34a38.69,38.69,0,0,0,3.85-2.21c.86-.39,4.06-2.41,4.3-2.55l1.8-1.09a.19.19,0,0,1,.27,0h0a.16.16,0,0,1,.06.13V300c0,.07.08.13.24,0a.54.54,0,0,0,0-.76.38.38,0,0,0-.13-.09.72.72,0,0,0-.46,0l-.28.14-.43.25-9.42,5.37-1,.58a.74.74,0,0,0-.14,1l0,.06a.72.72,0,0,0,.57.21.75.75,0,0,0,.3-.09l.13-.07,1.94-1.13,3.87-2.31c.82-.46,1.65-.91,2.46-1.4s1.39-.89,2.06-1.35a.68.68,0,0,0,.27-.41,9.38,9.38,0,0,0-1.85.56Z" transform="translate(0 -37.11)"/><circle class="cls-3" cx="947.62" cy="282.58" r="0.87"/><path class="cls-3" d="M948.12,319.64a.61.61,0,0,1-.28.46.56.56,0,0,1-.67-.1.16.16,0,0,1-.13-.14,2.79,2.79,0,0,1,.14-.57c.07,0,.18-.12.32-.17a.86.86,0,0,1,.32-.05.61.61,0,0,1,.29.14.31.31,0,0,0,.13.06.3.3,0,0,0,.27-.14.28.28,0,0,0,0-.18.68.68,0,0,0-.17-.21,1.23,1.23,0,1,0-1.53,1.93,1.22,1.22,0,0,0,1.65-.12,1.1,1.1,0,0,0,.37-.69.88.88,0,0,0-.22-.62.25.25,0,0,0-.24,0,3.34,3.34,0,0,1-.25.4Zm16.11-9.2-5,2.9a.32.32,0,0,1-.44-.12h0a.33.33,0,0,1,.12-.44h0l5-2.9a.32.32,0,1,1,.32.56Z" transform="translate(0 -37.11)"/><path class="cls-3" d="M963.23,310.6c-.2.08-1.17.63-2.22,1.25l-1.55.92-.34.22s-.08,0-.07.06l.13-.11a2.61,2.61,0,0,1,.28-.17,10.2,10.2,0,0,0,1.92-1.11,17.87,17.87,0,0,0,2.14-1.29l.45-.28c.08,0,.1-.08.21,0a.21.21,0,0,1,0,.19c0,.08,0,.32.18.26a.46.46,0,0,0,.28-.4.62.62,0,0,0-.62-.62h0a.72.72,0,0,0-.32.08l-.15.09-.3.16-.59.34-1.18.66-2.36,1.33-.5.29a.72.72,0,0,0-.24,1l0,0a.36.36,0,0,0,.07.1.8.8,0,0,0,.56.24.61.61,0,0,0,.3-.08l.15-.08.48-.29,1.91-1.17c.42-.23.84-.44,1.24-.69a10.33,10.33,0,0,0,1-.74.36.36,0,0,0,.08-.3,2.82,2.82,0,0,0-1,.15ZM956.4,315l-5,2.9a.33.33,0,0,1-.45-.12.32.32,0,0,1,.12-.44h0l5-2.9a.33.33,0,0,1,.33.56Z" transform="translate(0 -37.11)"/><path class="cls-3" d="M955.38,315.11c-.21.09-1.18.64-2.23,1.26l-1.54.92-.35.21a.06.06,0,0,0-.06.06h0l.14-.1a1.27,1.27,0,0,1,.27-.18,9.71,9.71,0,0,0,1.93-1.1,17.87,17.87,0,0,0,2.14-1.29l.44-.28c.08,0,.11-.08.21,0a.22.22,0,0,1,.06.19c0,.08,0,.31.18.26a.45.45,0,0,0,.27-.4.61.61,0,0,0-.6-.62h0a.72.72,0,0,0-.32.08l-.15.09-.29.16-.59.33-1.18.67-2.33,1.35-.51.28a.73.73,0,0,0-.21,1l.06.08a.75.75,0,0,0,.56.25.61.61,0,0,0,.3-.08l.15-.08.48-.29,1.92-1.17c.41-.23.84-.45,1.23-.7a10.23,10.23,0,0,0,1-.73.36.36,0,0,0,.08-.3,2.81,2.81,0,0,0-1,.13Z" transform="translate(0 -37.11)"/><circle class="cls-3" cx="967.66" cy="270.97" r="0.87"/><path class="cls-3" d="M968.16,308a.65.65,0,0,1-.28.47.59.59,0,0,1-.68-.11s-.12-.07-.12-.13a3.75,3.75,0,0,1,.13-.58l.33-.17a.55.55,0,0,1,.31,0,.84.84,0,0,1,.29.13.33.33,0,0,0,.13.07.35.35,0,0,0,.28-.14.31.31,0,0,0,0-.19.81.81,0,0,0-.17-.24A1.22,1.22,0,0,0,967,307a1.23,1.23,0,0,0-.52,1.36,1.16,1.16,0,0,0,.88.88,1.2,1.2,0,0,0,.79-.08,1.29,1.29,0,0,0,.38-.28,1,1,0,0,0,.37-.69.88.88,0,0,0-.22-.62h-.27A1.87,1.87,0,0,1,968.16,308Z" transform="translate(0 -37.11)"/><path class="cls-4" d="M990.14,298.55c-1.16.68-1.21-2.79-3.91-1.23,2.7-1.56-.28-3.33.88-4m-29.3,55.23c1.17-.67-1.82-2.44.88-4-2.7,1.56-2.74-1.9-3.91-1.23" transform="translate(0 -37.11)"/><path class="cls-3" d="M970.82,317.05l-10.92,6.32a.32.32,0,0,1-.44-.12h0a.33.33,0,0,1,.12-.44h0l10.91-6.32a.33.33,0,0,1,.45.12.32.32,0,0,1-.12.44Z" transform="translate(0 -37.11)"/><path class="cls-3" d="M969,317.68c-.39.19-2.33,1.3-4.43,2.53L961.46,322c-.91.52-2,1.26-1.73,1l.27-.18a6.42,6.42,0,0,1,.56-.34,40.86,40.86,0,0,0,3.85-2.22c.87-.38,4.07-2.41,4.3-2.55l1.81-1.08c.15-.13.3-.06.32.11a1.13,1.13,0,0,1,0,.26c0,.06.09.13.24,0a.53.53,0,0,0,0-.75h0a.38.38,0,0,0-.13-.09.61.61,0,0,0-.46,0l-.28.13-.44.25L960.38,322l-1,.59a.72.72,0,0,0,.48,1.3.53.53,0,0,0,.3-.09l.12-.07,2-1.13,3.86-2.3c.82-.47,1.66-.92,2.46-1.41s1.39-.89,2.06-1.35a.62.62,0,0,0,.27-.41,9.89,9.89,0,0,0-1.84.6Zm-5.83,14.22-10.91,6.33a.32.32,0,0,1-.43-.13v0a.32.32,0,0,1,.11-.42l10.92-6.32a.32.32,0,0,1,.32.56Z" transform="translate(0 -37.11)"/><path class="cls-3" d="M961.38,332.53c-.39.19-2.34,1.31-4.44,2.54l-3.11,1.83a12.84,12.84,0,0,1-1.72,1l.28-.19c.18-.12.37-.23.56-.34a39.67,39.67,0,0,0,3.83-2.26c.86-.38,4.06-2.4,4.3-2.54l1.8-1.09a.19.19,0,0,1,.27,0h0a.14.14,0,0,1,.06.12v.26c0,.07.08.13.24,0a.54.54,0,0,0,0-.76.38.38,0,0,0-.13-.09.61.61,0,0,0-.46,0l-.28.14-.43.24-9.42,5.38-1,.58a.74.74,0,0,0-.16,1l.07.08a.73.73,0,0,0,.87.12l.13-.07,1.94-1.14,3.8-2.23c.82-.47,1.65-.92,2.46-1.41s1.39-.88,2.06-1.34a.76.76,0,0,0,.27-.41,8.51,8.51,0,0,0-1.85.6Zm-8.61-5-5,2.9a.33.33,0,0,1-.45-.12.32.32,0,0,1,.12-.44h0l5-2.91a.33.33,0,0,1,.37.55h0Z" transform="translate(0 -37.11)"/><path class="cls-3" d="M951.75,327.67c-.21.09-1.18.64-2.23,1.25l-1.54.93-.35.21a.06.06,0,0,0-.06.06h0l.14-.1a1.27,1.27,0,0,1,.27-.18,9.71,9.71,0,0,0,1.93-1.1,17.87,17.87,0,0,0,2.14-1.29l.44-.28c.08-.05.11-.08.21,0a.22.22,0,0,1,.06.19c0,.08,0,.31.18.26a.45.45,0,0,0,.27-.4.61.61,0,0,0-.6-.62h0a.72.72,0,0,0-.32.08l-.15.09-.29.16-.59.33-1.18.67-2.36,1.33-.51.28a.73.73,0,0,0-.21,1l.06.08a.75.75,0,0,0,.56.25.61.61,0,0,0,.3-.08l.15-.08.48-.29,1.92-1.17c.41-.23.84-.45,1.23-.7a10.23,10.23,0,0,0,1-.73.36.36,0,0,0,.08-.3,3.06,3.06,0,0,0-1,.13ZM983,310l-5,2.91a.32.32,0,0,1-.43-.13v0a.32.32,0,0,1,.11-.42l5-2.9a.33.33,0,0,1,.47,0h0a.34.34,0,0,1,0,.46.21.21,0,0,1-.14.1Z" transform="translate(0 -37.11)"/><path class="cls-3" d="M982,310.16c-.21.08-1.18.63-2.23,1.25l-1.54.93-.35.21a.06.06,0,0,0-.06.06h0l.14-.1a1.27,1.27,0,0,1,.27-.18,10.23,10.23,0,0,0,1.93-1.1,17.94,17.94,0,0,0,2.14-1.3l.44-.27c.08-.06.11-.09.21,0a.22.22,0,0,1,.06.19c0,.08,0,.32.18.26a.44.44,0,0,0,.27-.4.62.62,0,0,0-.94-.53l-.15.08-.29.17-.59.33-1.18.66-2.36,1.33-.51.29a.73.73,0,0,0-.21,1l.06.08a.71.71,0,0,0,.56.24.63.63,0,0,0,.3-.07l.15-.09.48-.28,1.92-1.18c.41-.23.84-.44,1.23-.69a8.9,8.9,0,0,0,1-.74A.34.34,0,0,0,983,310a2.81,2.81,0,0,0-1,.12Z" transform="translate(0 -37.11)"/><circle class="cls-3" cx="974.24" cy="277.59" r="0.87"/><path class="cls-3" d="M974.74,314.65a.62.62,0,0,1-.29.46.56.56,0,0,1-.67-.1.17.17,0,0,1-.13-.14,2.79,2.79,0,0,1,.14-.57c.08,0,.18-.12.32-.17a.86.86,0,0,1,.32,0,.61.61,0,0,1,.29.14.31.31,0,0,0,.13.06.3.3,0,0,0,.27-.14.19.19,0,0,0,0-.18.58.58,0,0,0-.17-.21,1.2,1.2,0,0,0-1.41-.07,1.22,1.22,0,0,0,1.15,2.15,1.46,1.46,0,0,0,.38-.27,1,1,0,0,0,.37-.69.88.88,0,0,0-.22-.62H975a3.26,3.26,0,0,1-.24.4Zm.6,10.21-5,2.9a.32.32,0,0,1-.44-.11h0a.33.33,0,0,1,.12-.45l5-2.9a.35.35,0,0,1,.45.12.33.33,0,0,1-.13.45h0Z" transform="translate(0 -37.11)"/><path class="cls-3" d="M974.38,325c-.2.08-1.17.64-2.22,1.25l-1.55.93-.34.21s-.08,0-.07.07l.13-.1a1.67,1.67,0,0,1,.28-.18,9.36,9.36,0,0,0,1.92-1.1,17.87,17.87,0,0,0,2.14-1.29l.45-.28c.08,0,.1-.08.21,0a.21.21,0,0,1,0,.19c0,.08,0,.31.18.26a.46.46,0,0,0,.28-.4.62.62,0,0,0-.62-.62h0a.72.72,0,0,0-.32.08l-.15.08-.3.17-.59.33-1.18.66-2.36,1.33-.5.29a.72.72,0,0,0-.24,1l0,0a.36.36,0,0,0,.07.1.71.71,0,0,0,.56.24.63.63,0,0,0,.3-.07l.15-.08.48-.29,1.91-1.17c.42-.23.84-.45,1.24-.7a8.81,8.81,0,0,0,1-.73.36.36,0,0,0,.08-.3,2.6,2.6,0,0,0-1,.13Z" transform="translate(0 -37.11)"/><circle class="cls-3" cx="956.16" cy="288.05" r="0.87"/><path class="cls-3" d="M956.66,325.11a.55.55,0,0,1-1,.36s-.13-.08-.13-.14a2.79,2.79,0,0,1,.14-.57c.07,0,.18-.12.32-.18a.86.86,0,0,1,.32,0,.61.61,0,0,1,.29.14l.13.06a.3.3,0,0,0,.27-.14.31.31,0,0,0,0-.19.55.55,0,0,0-.17-.2,1.23,1.23,0,0,0-1.42-.07,1.26,1.26,0,0,0-.52,1.35,1.22,1.22,0,0,0,.89.89,1.27,1.27,0,0,0,1.17-.36,1.1,1.1,0,0,0,.37-.69.9.9,0,0,0-.22-.63.33.33,0,0,0-.24,0c-.06.13-.13.25-.2.37Z" transform="translate(0 -37.11)"/><circle class="cls-3" cx="966.59" cy="292.44" r="0.87"/><path class="cls-3" d="M967.09,329.5a.65.65,0,0,1-.28.47.59.59,0,0,1-.68-.11s-.12-.07-.12-.13a2.89,2.89,0,0,1,.14-.58c.07,0,.18-.12.32-.17a.58.58,0,0,1,.32,0,.6.6,0,0,1,.28.13.37.37,0,0,0,.14.07s.24-.06.27-.15a.28.28,0,0,0,0-.18.91.91,0,0,0-.18-.21,1.22,1.22,0,0,0-1.41-.07,1.23,1.23,0,0,0-.52,1.36,1.16,1.16,0,0,0,.88.88,1.2,1.2,0,0,0,.79-.08,1.36,1.36,0,0,0,.75-1,.8.8,0,0,0-.22-.62h-.19c-.07,0-.2.32-.25.36Zm20.42-11.69-5,2.9a.33.33,0,1,1-.45-.48l0,0a.21.21,0,0,1,.1-.06l5-2.9a.33.33,0,0,1,.47,0h0a.34.34,0,0,1,0,.46A.21.21,0,0,1,987.51,317.81Z" transform="translate(0 -37.11)"/><path class="cls-3" d="M986.51,318c-.2.09-1.18.64-2.23,1.26l-1.54.92-.35.21a.06.06,0,0,0-.06.06h0l.13-.1a1.27,1.27,0,0,1,.27-.18,9.71,9.71,0,0,0,1.93-1.1,17.87,17.87,0,0,0,2.14-1.29l.45-.28c.07,0,.1-.08.2,0a.2.2,0,0,1,.06.19c0,.08,0,.31.18.26a.44.44,0,0,0,.27-.4.61.61,0,0,0-.6-.62h0a.76.76,0,0,0-.33.08l-.15.09-.29.16-.59.33-1.18.67-2.36,1.33-.51.28a.73.73,0,0,0-.21,1l.06.08a.75.75,0,0,0,.56.25.84.84,0,0,0,.31-.08l.14-.08.49-.29,1.91-1.17c.41-.23.84-.44,1.24-.7a10.23,10.23,0,0,0,1-.73.36.36,0,0,0,.08-.3,3.06,3.06,0,0,0-1,.13Z" transform="translate(0 -37.11)"/><circle class="cls-3" cx="978.76" cy="285.39" r="0.87"/><path class="cls-3" d="M979.26,322.46a.72.72,0,0,1-.28.46.59.59,0,0,1-.68-.11.15.15,0,0,1-.13-.13,4,4,0,0,1,.14-.57c.08,0,.18-.12.33-.18a.55.55,0,0,1,.31,0,.61.61,0,0,1,.29.14l.13.06a.29.29,0,0,0,.28-.14.21.21,0,0,0,0-.19.68.68,0,0,0-.17-.21,1.22,1.22,0,0,0-1.41-.06,1.25,1.25,0,0,0-.37,1.72,1.29,1.29,0,0,0,.73.52,1.34,1.34,0,0,0,.79-.09,1.46,1.46,0,0,0,.38-.27,1,1,0,0,0,.37-.69.9.9,0,0,0-.22-.63h-.24A3,3,0,0,1,979.26,322.46Z" transform="translate(0 -37.11)"/></g></g></g></g></svg>