<?xml version="1.0" encoding="iso-8859-1"?>
<!-- Generator: Adobe Illustrator 22.0.1, SVG Export Plug-In . SVG Version: 6.00 Build 0)  -->
<svg xmlns="http://www.w3.org/2000/svg" xmlns:xlink="http://www.w3.org/1999/xlink" version="1.1" id="Layer_1" x="0px" y="0px" viewBox="0 0 64 64" style="enable-background:new 0 0 64 64;" xml:space="preserve" width="50px" height="50px">
<linearGradient id="SVGID_1__69464" gradientUnits="userSpaceOnUse" x1="31.5" y1="7" x2="31.5" y2="57" spreadMethod="reflect">
	<stop offset="0" style="stop-color:#1A6DFF"/>
	<stop offset="1" style="stop-color:#C822FF"/>
</linearGradient>
<path style="fill:url(#SVGID_1__69464);" d="M53,48h-3.5c2.91-3.88,4.5-8.6,4.5-13.5C54,22.09,43.91,12,31.5,12c-0.5,0-1,0.02-1.5,0.05V8  c0-0.55-0.45-1-1-1H16c-0.36,0-0.69,0.19-0.87,0.51c-0.18,0.31-0.17,0.7,0.01,1L18,13.28v3.23c-5.64,4.24-9,10.92-9,17.99  c0,6.9,3.2,13.44,8.61,17.69L15.2,55.4c-0.23,0.3-0.26,0.71-0.09,1.05C15.28,56.79,15.62,57,16,57h31c0.29,0,0.57-0.13,0.76-0.35  l6-7c0.25-0.3,0.31-0.71,0.15-1.07C53.75,48.23,53.39,48,53,48z M30,14.06c0.5-0.03,1-0.06,1.5-0.06C42.8,14,52,23.2,52,34.5  c0,4.99-1.81,9.76-5.09,13.5h-4.28C46.62,44.71,49,39.78,49,34.5C49,24.85,41.15,17,31.5,17c-0.5,0-1,0.03-1.5,0.07V14.06z   M30,19.08c0.5-0.05,1-0.08,1.5-0.08C40.05,19,47,25.95,47,34.5c0,5.6-3.02,10.75-7.89,13.5H30V19.08z M11,34.5  c0-5.92,2.59-11.54,7-15.41v4.3c-2.57,3.13-4,7.04-4,11.11s1.43,7.98,4,11.11v4.31C13.59,46.04,11,40.42,11,34.5z M18,26.91v15.18  c-1.3-2.3-2-4.91-2-7.59S16.7,29.21,18,26.91z M46.54,55H18l1.8-2.4c0.13-0.17,0.2-0.38,0.2-0.6V13c0-0.18-0.05-0.36-0.14-0.51  L17.77,9H28v40c0,0.55,0.45,1,1,1h21.83L46.54,55z"/>
<linearGradient id="SVGID_2__69464" gradientUnits="userSpaceOnUse" x1="17" y1="26.91" x2="17" y2="42.09" spreadMethod="reflect">
	<stop offset="0" style="stop-color:#6DC7FF"/>
	<stop offset="1" style="stop-color:#E6ABFF"/>
</linearGradient>
<path style="fill:url(#SVGID_2__69464);" d="M18,26.91v15.18c-1.3-2.3-2-4.91-2-7.59S16.7,29.21,18,26.91z"/>
<linearGradient id="SVGID_3__69464" gradientUnits="userSpaceOnUse" x1="38.5" y1="19" x2="38.5" y2="48" spreadMethod="reflect">
	<stop offset="0" style="stop-color:#6DC7FF"/>
	<stop offset="1" style="stop-color:#E6ABFF"/>
</linearGradient>
<path style="fill:url(#SVGID_3__69464);" d="M47,34.5c0,5.6-3.02,10.75-7.89,13.5H30V19.08c0.5-0.05,1-0.08,1.5-0.08  C40.05,19,47,25.95,47,34.5z"/>
</svg>
