<svg xmlns="http://www.w3.org/2000/svg" xmlns:xlink="http://www.w3.org/1999/xlink" viewBox="0 0 1440.1 119.96"><defs><style>.cls-1{fill:url(#linear-gradient);}.cls-2{fill:url(#linear-gradient-2);}</style><linearGradient id="linear-gradient" x1="1397.01" y1="61.61" x2="31.99" y2="59.23" gradientUnits="userSpaceOnUse"><stop offset="0.44" stop-color="#fff"/><stop offset="0.49" stop-color="#f2f2f2"/><stop offset="0.59" stop-color="#cecece"/><stop offset="0.71" stop-color="#959595"/><stop offset="0.87" stop-color="#474747"/><stop offset="1"/></linearGradient><linearGradient id="linear-gradient-2" x1="1380.18" y1="49.58" x2="181.15" y2="60.05" gradientUnits="userSpaceOnUse"><stop offset="0" stop-color="#32645d"/><stop offset="0.1" stop-color="#285455"/><stop offset="0.26" stop-color="#1a3f4b"/><stop offset="0.44" stop-color="#113044"/><stop offset="0.66" stop-color="#0c283f"/><stop offset="1" stop-color="#0a253e"/></linearGradient></defs><title>Asset 1</title><g id="Layer_2" data-name="Layer 2"><g id="wave"><path class="cls-1" d="M0,98.79.1,0l1440,1.53-.1,98.79a3126.53,3126.53,0,0,0-720-.77Q587.49,112.6,521.24,116,440.62,120,360,120A3135.17,3135.17,0,0,1,0,98.79Z"/><path class="cls-2" d="M0,98.79.1,0l1440,1.53-.1,98.79a3126.53,3126.53,0,0,0-720-.77Q587.49,112.6,521.24,116,440.62,120,360,120A3135.17,3135.17,0,0,1,0,98.79Z"/></g></g></svg>